ply
format ascii 1.0
element vertex 352
property float32 x
property float32 y
property float32 z
element face 671
property list uint8 int32 vertex_indices
end_header
-0.018 0.038 0.086 
-0.009 0.044 0.088 
-0.01 0.033 0.09 
-0.023 0.031 0.082 
-0.025 0.043 0.082 
-0.016 0.049 0.086 
-0.023 0.055 0.081 
-0.009 0.054 0.088 
0.005 0.044 0.086 
-0.02 0.026 0.088 
-0.018 0.023 0.093 
-0.011 0.023 0.097 
-0.011 0.018 0.099 
-0.015 0.017 0.097 
0 0.027 0.087 
-0.005 0.02 0.094 
-0.012 0.011 0.097 
-0.003 0.015 0.088 
-0.007 0.012 0.093 
-0.011 0.01 0.09 
-0.009 0.01 0.083 
0.001 0.019 0.081 
-0.006 0.014 0.073 
-0.013 0.011 0.082 
-0.015 0.015 0.074 
-0.015 0.023 0.082 
0.009 0.034 0.084 
0.01 0.025 0.078 
-0.015 0.014 0.06 
-0.031 0.022 0.067 
-0.028 0.019 0.06 
-0.032 0.027 0.072 
-0.031 0.035 0.075 
-0.033 0.042 0.075 
-0.033 0.048 0.073 
-0.034 0.054 0.07 
-0.033 0.061 0.065 
-0.015 0.064 0.08 
-0.021 0.069 0.067 
-0.012 0.074 0.068 
-0.013 0.076 0.076 
-0.014 0.076 0.083 
-0.015 0.075 0.09 
-0.016 0.072 0.095 
-0.018 0.067 0.094 
-0.02 0.063 0.091 
-0.021 0.059 0.087 
-0.013 0.063 0.093 
-0.008 0.067 0.092 
-0.002 0.064 0.085 
-0.009 0.072 0.089 
-0.006 0.073 0.076 
-0.002 0.07 0.08 
0.008 0.062 0.08 
-0.037 0.039 0.062 
-0.034 0.027 0.066 
-0.036 0.035 0.057 
-0.038 0.039 0.056 
-0.036 0.046 0.055 
-0.036 0.052 0.064 
-0.035 0.058 0.062 
-0.034 0.06 0.058 
-0.028 0.064 0.048 
-0.023 0.069 0.055 
-0.038 0.053 0.058 
-0.036 0.052 0.052 
-0.037 0.052 0.046 
-0.036 0.053 0.044 
-0.04 0.038 0.053 
-0.042 0.042 0.05 
-0.041 0.044 0.047 
-0.035 0.026 0.06 
-0.027 0.019 0.05 
-0.034 0.029 0.054 
-0.035 0.028 0.049 
-0.04 0.034 0.05 
-0.044 0.038 0.047 
-0.042 0.035 0.044 
-0.042 0.038 0.041 
-0.043 0.042 0.043 
-0.032 0.026 0.043 
-0.04 0.031 0.041 
-0.036 0.032 0.036 
-0.04 0.034 0.037 
-0.015 0.017 0.048 
-0.017 0.028 0.033 
-0.008 0.017 0.043 
-0.026 0.03 0.034 
-0.019 0.038 0.03 
-0.007 0.015 0.037 
-0.015 0.025 0.028 
-0.017 0.037 0.018 
-0.042 0.045 0.042 
-0.039 0.049 0.042 
-0.038 0.038 0.034 
-0.041 0.043 0.037 
-0.037 0.048 0.036 
-0.027 0.051 0.034 
-0.025 0.047 0.032 
-0.013 0.047 0.026 
-0.014 0.053 0.032 
-0.002 0.058 0.021 
-0.001 0.06 0.03 
-0.01 0.061 0.037 
-0.017 0.063 0.039 
-0.028 0.057 0.038 
-0.016 0.069 0.049 
-0.001 0.069 0.051 
0.007 0.069 0.069 
0.018 0.044 0.078 
0.022 0.027 0.066 
0.015 0.02 0.062 
0.008 0.018 0.066 
0.002 0.014 0.051 
0.014 0.014 0.052 
0.004 0.012 0.046 
0.026 0.024 0.057 
-0.015 0.019 0.022 
-0.008 0.011 0.031 
-0.013 -0.001 0.015 
-0.018 -0.002 0.005 
-0.021 0.008 -0.004 
-0.026 0.031 -0.012 
-0.018 0.045 0.003 
-0.022 0.019 -0.011 
-0.021 0.016 -0.016 
-0.022 0.018 -0.023 
-0.021 0.013 -0.01 
-0.017 0.047 -0.014 
-0.013 0.052 -0.001 
0.02 0.064 0.019 
0.013 0.064 0.031 
0.007 0.065 0.04 
-0.002 0.057 -0.012 
0.007 0.063 0.008 
0.017 0.063 -0.011 
0.029 0.064 0.004 
0.001 0.046 -0.032 
-0.018 0.031 -0.077 
-0.024 0.033 -0.031 
-0.013 0.045 -0.033 
0.017 0.059 -0.028 
0.015 0.054 -0.045 
0.003 0.044 -0.048 
-0.012 0.044 -0.047 
0.001 0.047 -0.083 
-0.016 0.044 -0.084 
-0.011 0.048 -0.082 
-0.02 0.052 -0.092 
-0.013 0.057 -0.091 
0.012 0.052 -0.082 
0.017 0.051 -0.083 
0.022 0.047 -0.083 
0.029 0.047 -0.059 
0.027 0.038 -0.084 
0.023 0.051 -0.093 
0.04 0.037 -0.042 
0.032 0.051 -0.043 
0.036 0.054 -0.029 
0.035 0.06 -0.01 
0.045 0.047 -0.01 
0.044 0.04 -0.029 
0.043 0.027 -0.019 
-0.001 0.056 -0.096 
-0.001 0.055 -0.093 
-0.013 0.058 -0.097 
-0.021 0.053 -0.096 
0.025 0.057 0.053 
0.02 0.058 0.065 
0.031 0.057 0.042 
0.036 0.055 0.033 
0.042 0.053 0.018 
0.044 0.051 0.008 
0.038 0.023 -0.031 
0.029 0.027 -0.052 
0.005 0.006 0.04 
0.015 0.009 0.045 
0.004 -0.006 0.032 
0.015 -0.007 0.035 
-0.018 -0.012 -0.002 
0.002 -0.02 0.022 
-0.024 -0.016 -0.021 
-0.025 -0.008 -0.021 
-0.025 -0.002 -0.023 
-0.025 0.003 -0.028 
-0.023 0.007 -0.035 
-0.012 0.022 -0.072 
-0.025 0.031 -0.084 
-0.016 0.033 -0.097 
-0.018 0.035 -0.085 
-0.028 0.029 -0.091 
-0.022 0.027 -0.098 
-0.027 0.019 -0.097 
-0.03 0.019 -0.089 
-0.034 -0.006 -0.027 
-0.032 0.003 -0.037 
-0.029 0.005 -0.055 
-0.02 0.009 -0.057 
-0.018 0.008 -0.075 
-0.028 0.002 -0.076 
-0.026 0.022 -0.082 
-0.03 0.015 -0.082 
-0.038 0.01 -0.09 
-0.037 0.009 -0.083 
-0.045 -0.001 -0.085 
-0.045 0.002 -0.092 
-0.041 0.002 -0.098 
-0.033 0.011 -0.097 
-0.039 -0.013 -0.079 
-0.048 -0.009 -0.086 
-0.038 -0.006 -0.064 
-0.038 -0.002 -0.045 
-0.042 -0.027 -0.067 
-0.042 -0.013 -0.042 
-0.04 -0.024 -0.037 
-0.043 -0.024 -0.049 
-0.042 -0.022 -0.08 
-0.036 -0.047 -0.055 
-0.036 -0.048 -0.07 
-0.037 -0.047 -0.08 
-0.041 -0.031 -0.08 
-0.052 -0.022 -0.087 
-0.051 -0.033 -0.088 
-0.047 -0.045 -0.088 
-0.037 -0.062 -0.088 
-0.032 -0.027 -0.028 
-0.03 -0.042 -0.036 
-0.021 -0.035 -0.027 
-0.013 -0.027 -0.006 
-0.005 -0.053 -0.018 
-0.019 -0.045 -0.032 
-0.001 -0.034 0.008 
-0.022 -0.055 -0.041 
-0.011 -0.059 -0.032 
-0.021 -0.064 -0.056 
0.002 -0.068 -0.038 
0.005 -0.058 -0.018 
0.008 -0.048 -0.003 
0.011 -0.036 0.011 
0.013 -0.022 0.024 
-0.05 -0.008 -0.092 
-0.047 -0.008 -0.098 
-0.05 -0.021 -0.097 
-0.052 -0.022 -0.093 
-0.052 -0.033 -0.094 
-0.048 -0.033 -0.098 
-0.048 -0.045 -0.093 
-0.044 -0.044 -0.099 
-0.043 -0.055 -0.094 
-0.033 -0.058 -0.099 
-0.037 -0.061 -0.093 
-0.005 -0.075 -0.089 
-0.021 -0.069 -0.097 
-0.025 -0.071 -0.086 
0 -0.076 -0.084 
-0.006 -0.074 -0.071 
-0.025 -0.064 -0.078 
-0.016 -0.074 -0.082 
0.006 -0.074 -0.074 
0.016 -0.072 -0.075 
0.009 -0.074 -0.084 
0.004 -0.074 -0.089 
0.01 -0.073 -0.062 
-0.001 -0.073 -0.058 
0.018 -0.062 -0.032 
-0.004 -0.073 -0.094 
0.02 -0.057 -0.021 
0.022 -0.047 -0.007 
0.019 0.056 -0.094 
0.018 0.057 -0.097 
0.02 0.039 -0.095 
0.029 0.042 0.062 
0.024 0.043 0.071 
0.035 0.042 0.051 
0.038 0.041 0.043 
0.043 0.038 0.032 
0.015 0.06 0.073 
0.046 0.034 0.011 
0.046 0.032 -0.001 
0.029 0.037 -0.072 
0.018 0.028 -0.078 
0.033 0.036 -0.06 
0.016 0.031 -0.095 
0.01 0.06 -0.097 
0.01 0.06 -0.092 
0.017 -0.042 0.003 
0.026 -0.034 0.007 
0.02 -0.029 0.017 
0.028 -0.02 0.019 
0.029 -0.004 0.03 
0.03 0.016 0.045 
0.038 0.031 0.045 
0.039 0.025 0.039 
0.04 0.016 0.032 
0.04 0.004 0.022 
0.04 -0.012 0.008 
0.038 -0.026 -0.005 
0.032 -0.043 -0.022 
0.028 -0.053 -0.028 
0.021 -0.064 -0.038 
-0.04 0.036 0.051 
0.045 0.026 0.019 
0.045 0.016 0.008 
0.045 0.001 -0.007 
0.044 0.001 -0.019 
0.043 -0.013 -0.02 
0.041 0.005 -0.035 
0.043 -0.005 -0.025 
0.039 -0.03 -0.018 
0.05 -0.011 -0.033 
0.049 -0.026 -0.029 
0.028 0.012 -0.06 
0.035 0.01 -0.048 
0.022 0.012 -0.075 
0.046 -0.037 -0.03 
0.052 -0.029 -0.042 
0.046 -0.046 -0.047 
0.037 -0.054 -0.038 
0.026 -0.068 -0.058 
0.037 -0.06 -0.059 
0.042 -0.053 -0.052 
0.044 0.003 -0.044 
0.05 -0.007 -0.049 
0.052 -0.018 -0.044 
0.036 0.007 -0.056 
0.045 -0.002 -0.056 
0.035 0.004 -0.066 
0.028 0.009 -0.068 
0.032 0.004 -0.073 
0.03 0.005 -0.076 
0.019 0.02 -0.084 
0.042 -0.006 -0.068 
0.038 -0.006 -0.077 
0.042 -0.021 -0.08 
0.048 -0.015 -0.063 
0.05 -0.028 -0.062 
0.05 -0.037 -0.063 
0.046 -0.048 -0.068 
0.038 -0.057 -0.072 
0.042 -0.037 -0.082 
0.043 -0.048 -0.082 
0.038 -0.056 -0.085 
0.03 -0.063 -0.082 
0.028 -0.063 -0.092 
0.021 -0.068 -0.088 
0.018 -0.07 -0.084 
0.022 -0.068 -0.079 
0.016 -0.069 -0.091 
0.01 -0.072 -0.09 
0.033 -0.063 -0.064 
0.027 -0.067 -0.073 
0.02 -0.071 -0.069 
3 0 1 2 
3 0 3 4 
3 1 0 4 
3 5 1 4 
3 6 5 4 
3 6 7 5 
3 5 7 1 
3 1 8 2 
3 3 2 9 
3 9 2 10 
3 10 2 11 
3 10 11 12 
3 10 12 13 
3 11 2 14 
3 11 14 15 
3 11 15 12 
3 12 15 16 
3 12 16 13 
3 15 14 17 
3 15 17 18 
3 16 15 18 
3 16 18 19 
3 19 18 20 
3 20 18 17 
3 17 21 20 
3 20 21 22 
3 20 22 23 
3 23 19 20 
3 23 22 24 
3 24 25 23 
3 19 23 25 
3 16 19 25 
3 13 16 25 
3 13 25 10 
3 10 25 9 
3 9 25 3 
3 2 8 14 
3 14 26 27 
3 24 22 28 
3 29 24 30 
3 24 29 31 
3 25 24 31 
3 32 3 31 
3 17 14 21 
3 27 21 14 
3 33 4 32 
3 33 34 4 
3 6 4 34 
3 35 6 34 
3 35 36 6 
3 37 6 36 
3 38 37 36 
3 38 39 37 
3 37 39 40 
3 37 40 41 
3 37 41 42 
3 37 42 43 
3 44 37 43 
3 37 44 45 
3 37 45 46 
3 6 37 46 
3 6 46 7 
3 45 7 46 
3 45 47 7 
3 48 7 47 
3 43 48 47 
3 43 47 44 
3 48 49 7 
3 50 48 43 
3 42 50 43 
3 42 41 50 
3 51 50 41 
3 40 51 41 
3 40 39 51 
3 52 53 49 
3 52 48 50 
3 52 49 48 
3 50 51 52 
3 49 53 8 
3 49 8 7 
3 54 33 32 
3 54 32 31 
3 54 31 55 
3 54 55 56 
3 54 56 57 
3 57 58 54 
3 54 58 59 
3 59 34 54 
3 54 34 33 
3 35 34 59 
3 59 36 35 
3 60 36 59 
3 60 61 36 
3 62 36 61 
3 62 63 36 
3 36 63 38 
3 39 38 63 
3 64 61 60 
3 64 65 61 
3 66 61 65 
3 66 67 61 
3 62 61 67 
3 64 59 58 
3 68 58 57 
3 58 68 69 
3 70 58 69 
3 70 66 58 
3 65 58 66 
3 58 65 64 
3 55 31 29 
3 29 30 55 
3 55 30 71 
3 55 71 56 
3 60 59 64 
3 45 44 47 
3 30 24 28 
3 30 28 72 
3 30 72 73 
3 30 73 71 
3 56 71 73 
3 56 73 74 
3 56 74 75 
3 57 56 68 
3 76 75 77 
3 77 78 76 
3 76 78 79 
3 79 70 76 
3 76 70 69 
3 69 68 76 
3 74 73 72 
3 74 72 80 
3 74 80 81 
3 81 75 74 
3 81 80 82 
3 81 82 83 
3 81 83 78 
3 81 78 77 
3 75 81 77 
3 72 28 84 
3 72 84 85 
3 72 85 80 
3 86 84 28 
3 84 86 85 
3 85 87 80 
3 87 85 88 
3 87 88 82 
3 82 80 87 
3 85 86 89 
3 85 89 90 
3 85 90 91 
3 92 70 79 
3 92 93 70 
3 70 93 66 
3 67 66 93 
3 78 83 94 
3 78 94 95 
3 78 95 92 
3 78 92 79 
3 96 93 92 
3 93 96 67 
3 92 95 96 
3 94 96 95 
3 94 97 96 
3 96 97 67 
3 82 94 83 
3 82 88 94 
3 94 88 98 
3 94 98 97 
3 88 91 99 
3 88 99 100 
3 88 100 98 
3 100 99 101 
3 101 102 100 
3 100 102 103 
3 100 103 104 
3 97 100 104 
3 98 100 97 
3 105 62 67 
3 67 97 105 
3 105 97 104 
3 105 104 62 
3 106 63 62 
3 106 39 63 
3 104 106 62 
3 104 103 107 
3 104 107 106 
3 107 39 106 
3 39 107 51 
3 51 107 108 
3 8 53 109 
3 8 109 26 
3 109 110 27 
3 109 27 26 
3 27 110 111 
3 27 111 21 
3 21 111 112 
3 21 112 22 
3 112 111 113 
3 112 113 22 
3 22 113 28 
3 113 111 114 
3 113 114 115 
3 113 115 89 
3 113 89 86 
3 28 113 86 
3 111 116 114 
3 111 110 116 
3 117 90 89 
3 117 89 118 
3 117 118 119 
3 117 120 121 
3 90 117 91 
3 91 117 122 
3 123 91 122 
3 123 101 91 
3 122 117 124 
3 124 117 125 
3 124 125 126 
3 124 126 122 
3 125 117 127 
3 127 117 121 
3 117 119 120 
3 91 101 99 
3 122 128 123 
3 129 101 123 
3 101 130 131 
3 102 131 132 
3 131 102 101 
3 133 134 101 
3 101 134 130 
3 135 130 134 
3 135 136 130 
3 135 134 133 
3 137 135 133 
3 102 132 107 
3 126 138 139 
3 122 126 139 
3 122 139 128 
3 140 128 139 
3 128 137 133 
3 141 135 137 
3 142 141 137 
3 143 142 137 
3 144 143 137 
3 144 145 143 
3 142 143 145 
3 128 140 137 
3 144 137 140 
3 144 140 139 
3 146 144 139 
3 146 147 144 
3 144 147 145 
3 148 149 146 
3 146 149 147 
3 145 150 142 
3 151 142 150 
3 151 152 142 
3 142 152 153 
3 154 153 152 
3 151 155 152 
3 153 156 157 
3 153 157 142 
3 157 156 158 
3 157 158 142 
3 142 158 141 
3 141 158 159 
3 159 158 160 
3 161 160 158 
3 160 161 162 
3 158 156 161 
3 141 159 135 
3 135 159 136 
3 138 146 139 
3 163 164 149 
3 165 149 166 
3 163 149 165 
3 107 132 108 
3 167 168 132 
3 169 167 132 
3 132 131 169 
3 170 169 131 
3 130 170 131 
3 130 171 170 
3 130 136 171 
3 172 171 136 
3 159 172 136 
3 159 160 172 
3 173 162 161 
3 173 161 156 
3 173 156 174 
3 118 89 175 
3 115 175 89 
3 115 114 175 
3 175 114 176 
3 118 175 119 
3 119 175 177 
3 177 175 176 
3 176 178 177 
3 179 177 180 
3 179 119 177 
3 119 179 120 
3 179 181 182 
3 183 179 182 
3 183 120 179 
3 183 121 120 
3 183 184 121 
3 127 121 185 
3 125 127 185 
3 184 185 121 
3 185 186 125 
3 187 188 189 
3 190 191 188 
3 190 192 191 
3 190 187 193 
3 148 189 166 
3 187 138 186 
3 190 188 187 
3 182 181 194 
3 183 182 194 
3 195 183 194 
3 195 184 183 
3 195 185 184 
3 196 185 195 
3 196 197 185 
3 185 197 186 
3 198 186 197 
3 196 198 197 
3 196 199 198 
3 200 198 201 
3 200 187 198 
3 186 198 187 
3 187 200 193 
3 193 200 201 
3 202 193 201 
3 202 201 203 
3 202 203 204 
3 205 202 204 
3 205 206 202 
3 207 202 206 
3 207 193 202 
3 193 192 190 
3 192 193 207 
3 201 198 199 
3 201 199 203 
3 203 199 204 
3 204 199 208 
3 204 208 209 
3 210 199 196 
3 210 196 211 
3 211 196 195 
3 211 195 194 
3 212 211 213 
3 212 210 211 
3 211 194 213 
3 213 194 214 
3 213 214 215 
3 208 199 210 
3 208 210 212 
3 208 212 216 
3 212 213 215 
3 217 212 215 
3 217 218 212 
3 212 218 219 
3 212 219 220 
3 212 220 216 
3 208 216 221 
3 209 208 221 
3 216 220 221 
3 221 220 222 
3 222 220 223 
3 223 220 219 
3 223 219 224 
3 194 225 214 
3 214 225 226 
3 214 226 217 
3 214 217 215 
3 194 181 225 
3 225 181 227 
3 225 227 226 
3 179 180 228 
3 179 228 181 
3 181 228 227 
3 227 228 229 
3 227 229 230 
3 228 180 231 
3 228 231 229 
3 226 227 230 
3 226 230 232 
3 226 232 217 
3 230 229 233 
3 230 233 232 
3 232 234 217 
3 232 235 234 
3 232 233 235 
3 236 235 229 
3 237 236 229 
3 231 237 229 
3 231 238 237 
3 239 238 231 
3 180 239 231 
3 180 177 178 
3 180 178 239 
3 206 205 240 
3 241 206 240 
3 242 241 240 
3 242 240 243 
3 243 244 242 
3 245 242 244 
3 244 246 247 
3 244 247 245 
3 248 247 246 
3 248 249 247 
3 248 250 249 
3 251 252 250 
3 240 205 204 
3 240 204 209 
3 240 209 221 
3 240 221 243 
3 243 221 244 
3 221 222 244 
3 244 222 223 
3 244 223 246 
3 223 248 246 
3 223 224 248 
3 248 224 250 
3 253 250 224 
3 253 254 251 
3 234 218 217 
3 234 255 218 
3 218 256 219 
3 219 256 257 
3 219 257 253 
3 218 255 256 
3 256 255 257 
3 257 255 254 
3 254 258 259 
3 254 259 260 
3 254 260 261 
3 254 261 251 
3 262 259 258 
3 255 258 254 
3 255 262 258 
3 234 263 255 
3 255 263 262 
3 264 262 235 
3 234 235 263 
3 251 261 265 
3 250 252 249 
3 252 251 265 
3 266 264 235 
3 229 235 233 
3 236 266 235 
3 236 237 266 
3 267 266 237 
3 102 107 103 
3 126 186 138 
3 126 125 186 
3 123 128 129 
3 128 133 129 
3 129 133 101 
3 0 2 3 
3 4 3 32 
3 235 262 263 
3 219 253 224 
3 257 254 253 
3 250 253 251 
3 155 268 269 
3 269 270 155 
3 168 271 272 
3 167 271 168 
3 167 273 271 
3 167 169 273 
3 274 273 169 
3 170 274 169 
3 170 275 274 
3 109 272 110 
3 168 108 132 
3 52 108 53 
3 51 108 52 
3 108 168 276 
3 168 272 276 
3 272 109 276 
3 276 53 108 
3 170 171 275 
3 277 275 171 
3 172 277 171 
3 172 278 277 
3 172 160 278 
3 162 278 160 
3 279 153 154 
3 145 147 149 
3 174 279 280 
3 153 279 281 
3 281 156 153 
3 174 156 281 
3 174 281 279 
3 154 155 270 
3 155 154 152 
3 280 279 154 
3 280 154 282 
3 282 154 270 
3 151 268 155 
3 149 148 166 
3 164 145 149 
3 283 284 163 
3 164 163 284 
3 284 145 164 
3 284 150 145 
3 284 151 150 
3 284 268 151 
3 284 269 268 
3 284 283 269 
3 237 285 267 
3 286 267 285 
3 238 286 285 
3 238 285 237 
3 238 287 286 
3 288 286 287 
3 239 288 287 
3 239 287 238 
3 239 178 288 
3 289 288 178 
3 290 289 178 
3 176 290 178 
3 176 116 290 
3 116 176 114 
3 116 273 290 
3 290 273 291 
3 291 292 290 
3 110 272 116 
3 271 116 272 
3 271 273 116 
3 290 292 293 
3 293 294 290 
3 290 294 289 
3 289 294 288 
3 288 294 295 
3 288 295 296 
3 288 296 286 
3 286 296 267 
3 267 296 297 
3 267 297 298 
3 264 298 299 
3 264 299 262 
3 267 298 266 
3 266 298 264 
3 1 7 8 
3 8 26 14 
3 3 25 31 
3 276 109 53 
3 88 85 91 
3 300 56 75 
3 300 75 76 
3 68 56 300 
3 68 300 76 
3 274 291 273 
3 274 275 292 
3 274 292 291 
3 275 301 292 
3 275 277 301 
3 301 277 278 
3 301 278 302 
3 301 302 294 
3 301 294 293 
3 292 301 293 
3 303 302 162 
3 302 303 294 
3 294 303 295 
3 304 303 162 
3 303 304 305 
3 295 303 305 
3 295 305 296 
3 173 304 162 
3 173 306 304 
3 307 304 306 
3 304 307 305 
3 296 305 308 
3 296 308 297 
3 305 307 309 
3 305 309 310 
3 305 310 308 
3 309 307 306 
3 311 173 174 
3 311 312 173 
3 306 173 312 
3 313 174 280 
3 313 311 174 
3 302 278 162 
3 308 310 314 
3 314 310 315 
3 314 315 316 
3 317 314 316 
3 314 317 297 
3 308 314 297 
3 298 297 317 
3 298 317 318 
3 299 298 318 
3 318 317 319 
3 146 189 148 
3 146 138 189 
3 187 189 138 
3 166 189 188 
3 299 318 262 
3 317 316 320 
3 317 320 319 
3 321 309 306 
3 322 309 321 
3 322 323 309 
3 309 323 310 
3 310 323 315 
3 324 312 311 
3 312 324 306 
3 321 306 324 
3 325 321 324 
3 326 325 324 
3 321 325 322 
3 327 311 313 
3 327 326 324 
3 327 324 311 
3 326 327 313 
3 328 326 313 
3 329 328 313 
3 330 329 313 
3 330 313 280 
3 322 325 331 
3 331 326 328 
3 331 325 326 
3 332 331 328 
3 332 333 331 
3 334 331 333 
3 334 322 331 
3 323 322 334 
3 335 323 334 
3 335 315 323 
3 336 315 335 
3 315 336 316 
3 316 336 337 
3 316 337 320 
3 320 337 319 
3 319 337 338 
3 339 335 334 
3 336 335 339 
3 339 340 336 
3 337 336 340 
3 341 337 340 
3 338 337 341 
3 339 334 333 
3 342 343 344 
3 345 342 344 
3 345 346 342 
3 259 346 345 
3 259 345 260 
3 260 345 261 
3 345 344 347 
3 347 344 343 
3 345 347 348 
3 261 348 265 
3 261 345 348 
3 319 338 349 
3 349 338 350 
3 349 350 318 
3 319 349 318 
3 262 318 351 
3 351 318 350 
3 351 350 259 
3 262 351 259 
3 259 350 346 
3 346 350 342 
3 350 338 342 
3 342 338 341 
3 342 341 343 
