ply
format ascii 1.0
element vertex 758
property float32 x
property float32 y
property float32 z
element face 1180
property list uint8 int32 vertex_indices
end_header
-4.30645 -2.54715 -0.799007 
-3.87263 -2.63818 -0.589829 
-3.88713 -2.63782 -0.556544 
-4.38267 -2.54524 -0.624082 
-4.18581 -2.57906 -0.986592 
-3.84967 -2.62928 -0.616517 
-4.03911 -2.41209 -1.02349 
-3.82176 -2.61248 -0.632545 
-3.8887 -2.29569 -1.03888 
-3.79314 -2.59033 -0.635473 
-4.85439 -2.19506 -1.09114 
-4.9669 -2.29855 -0.896882 
-4.67631 -2.12605 -1.29817 
-4.45978 -1.99571 -1.42251 
-4.23774 -1.93018 -1.50917 
-3.64665 -2.01607 -0.58242 
-3.35891 -2.96558 -0.344127 
-3.34451 -2.9583 -0.356226 
-3.62646 -2.06635 -0.765384 
-3.72287 -2.01417 -0.407494 
-3.37342 -2.96522 -0.310843 
-3.84351 -2.06092 -0.267239 
-3.39637 -2.97412 -0.284155 
-3.99021 -2.14922 -0.183006 
-3.42429 -2.99092 -0.268127 
-4.14062 -2.26562 -0.16762 
-3.45291 -3.01307 -0.265199 
-4.27186 -2.39241 -0.223422 
-3.46731 -3.02035 -0.253101 
-4.9967 -2.22433 -0.626806 
-4.40286 -2.60126 -0.505067 
-4.36395 -2.51027 -0.341918 
-4.93927 -2.09001 -0.385979 
-4.04402 -1.74304 -1.4268 
-3.75745 -2.2752 -1.04703 
-3.90809 -1.56906 -1.25189 
-3.66537 -2.15735 -0.928533 
-3.85066 -1.43474 -1.01106 
-3.88046 -1.36053 -0.740987 
-3.99297 -1.35771 -0.482778 
-4.17105 -1.42673 -0.275745 
-4.38758 -1.55707 -0.151408 
-4.60962 -1.72889 -0.128696 
-4.80335 -1.91604 -0.211067 
-5.47107 -1.71017 -0.811018 
-5.40995 -1.56723 -0.554737 
-5.43935 -1.78915 -1.09843 
-5.31962 -1.79215 -1.37321 
-5.13012 -1.7187 -1.59352 
-4.89968 -1.57999 -1.72584 
-4.6634 -1.39715 -1.75001 
-4.45724 -1.19799 -1.66235 
-4.31259 -1.01285 -1.47622 
-4.25148 -0.869915 -1.21994 
-4.28319 -0.790936 -0.932527 
-4.40292 -0.787943 -0.657747 
-4.59242 -0.86139 -0.437428 
-4.82286 -1.0001 -0.305112 
-5.05914 -1.18294 -0.280942 
-5.2653 -1.3821 -0.368599 
-5.4509 -0.628995 -1.31994 
-5.51756 -0.679315 -1.2363 
-5.54179 -0.738955 -1.13716 
-5.5199 -0.798836 -1.03763 
-5.35196 -0.595656 -1.37535 
-5.2358 -0.584373 -1.39411 
-5.12011 -0.596864 -1.37335 
-4.95783 -0.682232 -1.23145 
-5.0225 -0.631228 -1.31623 
-6.12752 -2.16318 -1.43464 
-5.35762 -0.884204 -0.895735 
-5.45523 -0.849841 -0.952853 
-6.46514 -2.04432 -1.6322 
-5.72738 -2.20638 -1.36282 
-5.24193 -0.896696 -0.874972 
-5.32562 -2.16736 -1.42769 
-5.12577 -0.885413 -0.893726 
-4.98341 -2.05205 -1.61936 
-5.02683 -0.852073 -0.949142 
-4.75285 -1.878 -1.90866 
-4.96017 -0.801753 -1.03278 
-4.66904 -1.67172 -2.25153 
-4.93594 -0.742113 -1.13192 
-4.74474 -1.4646 -2.59579 
-4.96843 -1.28819 -2.88902 
-5.30605 -1.16933 -3.08658 
-5.70619 -1.12613 -3.1584 
-6.10795 -1.16515 -3.09353 
-6.45016 -1.28047 -2.90186 
-6.68072 -1.45451 -2.61256 
-6.76452 -1.66079 -2.26969 
-6.68882 -1.86791 -1.92543 
-6.25528 -3.89357 -2.12579 
-6.6979 -3.73775 -2.38479 
-5.73067 -3.95022 -2.03164 
-4.44241 -2.97772 -3.6481 
-4.34316 -3.24925 -3.19677 
-4.73567 -2.74643 -4.03254 
-5.17829 -2.59061 -4.29154 
-5.7029 -2.53397 -4.38569 
-6.22962 -2.58513 -4.30065 
-6.98053 -2.96449 -3.67009 
-6.67826 -2.73631 -4.04937 
-6.99116 -3.50646 -2.76923 
-7.09041 -3.23493 -3.22057 
-6.15484 -4.82941 -2.96388 
-6.51491 -4.70265 -3.17458 
-5.72808 -4.87549 -2.88728 
-4.68009 -4.08437 -4.20226 
-4.59936 -4.30526 -3.83511 
-4.91865 -3.89622 -4.515 
-5.27873 -3.76946 -4.7257 
-5.70549 -3.72338 -4.80229 
-6.13397 -3.76501 -4.73311 
-6.74483 -4.07361 -4.22015 
-6.49894 -3.88799 -4.52869 
-6.75348 -4.5145 -3.48731 
-6.83421 -4.29361 -3.85447 
-5.72594 -4.66953 -4.04236 
-5.73347 -4.66687 -4.04676 
-5.71702 -4.67049 -4.04075 
-5.70806 -4.66962 -4.0422 
-5.2996 -4.83387 -2.95647 
-5.70043 -4.66705 -4.04647 
-4.93463 -4.71089 -3.16089 
-5.69529 -4.66317 -4.05293 
-4.68874 -4.52526 -3.46942 
-5.69342 -4.65857 -4.06057 
-5.69511 -4.65395 -4.06825 
-5.7001 -4.65001 -4.07479 
-5.70762 -4.64736 -4.07919 
-5.71655 -4.6464 -4.08079 
-5.72551 -4.64727 -4.07935 
-5.73314 -4.64984 -4.07507 
-5.73828 -4.65372 -4.06862 
-5.74015 -4.65832 -4.06098 
-5.73846 -4.66294 -4.0533 
-5.35622 -2.56517 -1.6583 
-5.72902 -3.0783 -1.69723 
-4.74476 -2.25626 -2.17176 
-4.5061 -2.46048 -2.72415 
-5.332 -4.56187 -2.81017 
-5.72938 -4.41285 -2.45946 
-4.70294 -4.24407 -3.33841 
-4.47126 -3.77726 -3.51594 
-4.14574 -0.636965 -0.909245 
-4.28012 -0.827242 -0.849723 
-4.33861 -0.792408 -0.843442 
-4.24443 -0.578193 -0.898648 
-4.39427 -0.767473 -0.812552 
-4.33834 -0.536121 -0.846529 
-4.43863 -0.756231 -0.761755 
-4.41318 -0.517154 -0.760823 
-4.46493 -0.760396 -0.698785 
-4.45756 -0.52418 -0.654578 
-4.46917 -0.779331 -0.633228 
-4.4647 -0.556129 -0.543969 
-4.4507 -0.810156 -0.575065 
-4.43354 -0.608138 -0.445834 
-3.97661 -0.385431 -0.915338 
-4.10457 -0.309229 -0.901598 
-4.22633 -0.25468 -0.834022 
-4.32337 -0.230088 -0.722899 
-4.3809 -0.239198 -0.585145 
-4.39017 -0.280622 -0.441733 
-4.34976 -0.348054 -0.314496 
-3.63625 0.007554 -0.394087 
-3.66181 0.022774 -0.391343 
-3.68613 0.033669 -0.377846 
-3.70551 0.03858 -0.355652 
-3.717 0.036761 -0.328139 
-3.71885 0.028487 -0.299495 
-3.71078 0.015019 -0.274082 
-4.35005 -0.795253 -0.873989 
-4.2534 -0.575427 -0.930641 
-4.35732 -0.528873 -0.87297 
-4.41471 -0.766284 -0.838103 
-4.90461 -0.588099 0.728406 
-4.73918 -0.544788 0.012511 
-4.88213 -0.529158 -0.028621 
-4.93316 -0.584978 0.720191 
-5.02653 -0.565367 -0.042993 
-4.962 -0.59221 0.717321 
-5.1504 -0.647903 -0.028417 
-4.98674 -0.608694 0.720232 
-5.23489 -0.764199 0.012889 
-5.00362 -0.631922 0.728482 
-5.26712 -0.89655 0.074635 
-5.01006 -0.658356 0.740814 
-5.24221 -1.02481 0.147421 
-5.00508 -0.683973 0.755352 
-4.71596 -0.750813 -0.208684 
-4.8262 -0.738758 -0.240408 
-4.93758 -0.766685 -0.251492 
-5.03311 -0.830342 -0.24025 
-5.09828 -0.920037 -0.208392 
-5.12314 -1.02212 -0.160769 
-5.10392 -1.12104 -0.104631 
-4.7222 -0.947318 -0.347077 
-4.78754 -0.940174 -0.36588 
-4.85355 -0.956726 -0.37245 
-4.91018 -0.994454 -0.365786 
-4.9488 -1.04762 -0.346905 
-4.96353 -1.10812 -0.318679 
-4.95214 -1.16675 -0.285407 
-3.69131 0.060405 -0.396023 
-3.71815 0.067208 -0.365281 
-3.73407 0.064688 -0.327173 
-4.10548 -0.292427 -0.931421 
-3.96622 -0.375357 -0.946374 
-4.238 -0.233062 -0.857879 
-4.3436 -0.206299 -0.736944 
-4.40621 -0.216213 -0.587028 
-4.4163 -0.261294 -0.430953 
-4.37233 -0.33468 -0.292482 
-4.1442 -0.64046 -0.942367 
-4.44013 -0.507886 -0.778134 
-4.48923 -0.51566 -0.660572 
-4.49714 -0.551013 -0.53818 
-4.46266 -0.608561 -0.429592 
-4.2821 -0.83572 -0.881286 
-4.46624 -0.753225 -0.779091 
-4.4968 -0.758062 -0.705936 
-4.50172 -0.780061 -0.629777 
-4.48026 -0.815871 -0.562207 
-4.78355 -0.922443 -0.393113 
-4.82323 -0.715751 -0.264355 
-4.70123 -0.72909 -0.229252 
-4.70764 -0.930743 -0.37127 
-4.86024 -0.941672 -0.400746 
-4.94646 -0.746653 -0.27662 
-4.92602 -0.985502 -0.393005 
-5.05218 -0.817091 -0.26418 
-4.97089 -1.04726 -0.371069 
-5.12428 -0.916341 -0.228929 
-4.98801 -1.11755 -0.338279 
-5.15179 -1.02929 -0.176233 
-4.97477 -1.18566 -0.299626 
-5.13053 -1.13875 -0.114115 
-4.88232 -0.49673 -0.039618 
-4.72676 -0.513739 0.005145 
-5.03947 -0.536136 -0.055259 
-5.17428 -0.625958 -0.039396 
-5.26623 -0.752523 0.005557 
-5.30131 -0.89656 0.072755 
-5.2742 -1.03614 0.151968 
-4.97522 -0.562342 0.715061 
-5.00949 -0.585175 0.719093 
-5.03286 -0.617347 0.73052 
-4.39192 -1.65495 -0.123328 
-4.39065 -1.66634 -0.131638 
-4.44477 -1.65856 -0.144567 
-4.44432 -1.64742 -0.135846 
-4.3952 -1.64637 -0.114423 
-4.44318 -1.63947 -0.125886 
-4.40005 -1.64013 -0.10512 
-4.44149 -1.63417 -0.11502 
-4.40652 -1.63601 -0.095237 
-4.43923 -1.6313 -0.103052 
-4.41574 -1.63438 -0.083716 
-4.43602 -1.63147 -0.08856 
-4.43078 -1.63847 -0.068983 
-4.44432 -1.67148 -0.150326 
-4.39192 -1.67902 -0.137808 
-4.44318 -1.684 -0.152675 
-4.3952 -1.6909 -0.141212 
-4.44149 -1.69609 -0.152272 
-4.40005 -1.70204 -0.142371 
-4.43923 -1.708 -0.149197 
-4.40652 -1.71271 -0.141382 
-4.43602 -1.72073 -0.142264 
-4.41574 -1.72365 -0.13742 
-4.43078 -1.73475 -0.126906 
-4.48489 -1.67883 -0.110873 
-4.48317 -1.66704 -0.103222 
-4.47875 -1.65745 -0.096012 
-4.47221 -1.64969 -0.089219 
-4.46348 -1.64356 -0.082686 
-4.45105 -1.63906 -0.075936 
-4.48317 -1.69111 -0.117703 
-4.47875 -1.70198 -0.122802 
-4.47221 -1.71161 -0.12647 
-4.46348 -1.72026 -0.128831 
-4.45105 -1.72833 -0.12964 
-4.4709 -1.70688 -0.06425 
-4.46962 -1.6942 -0.05808 
-4.46635 -1.68232 -0.054676 
-4.4615 -1.67117 -0.053517 
-4.45503 -1.66051 -0.054506 
-4.44581 -1.64957 -0.058468 
-4.46962 -1.71827 -0.072561 
-4.46635 -1.72685 -0.081465 
-4.4615 -1.73309 -0.090769 
-4.45503 -1.73721 -0.100651 
-4.44581 -1.73883 -0.112172 
-4.41678 -1.71466 -0.051322 
-4.41723 -1.70173 -0.045562 
-4.41837 -1.68921 -0.043213 
-4.42006 -1.67713 -0.043617 
-4.42232 -1.66521 -0.046692 
-4.42553 -1.65248 -0.053624 
-4.41723 -1.7258 -0.060043 
-4.41837 -1.73374 -0.070002 
-4.42006 -1.73905 -0.080868 
-4.42232 -1.74191 -0.092836 
-4.42553 -1.74175 -0.107328 
-4.37666 -1.69439 -0.085015 
-4.37838 -1.6821 -0.078186 
-4.38279 -1.67124 -0.073087 
-4.38934 -1.66161 -0.069418 
-4.39807 -1.65296 -0.067057 
-4.4105 -1.64489 -0.066248 
-4.37838 -1.70617 -0.092666 
-4.38279 -1.71577 -0.099876 
-4.38934 -1.72352 -0.10667 
-4.39807 -1.72966 -0.113202 
-4.4105 -1.73416 -0.119952 
-3.87953 -1.45626 -0.589802 
-3.87429 -1.46326 -0.570225 
-3.89456 -1.46035 -0.575069 
-3.87107 -1.46342 -0.555733 
-3.90378 -1.45872 -0.563548 
-3.86881 -1.46056 -0.543765 
-3.91025 -1.4546 -0.553665 
-3.86712 -1.45525 -0.532899 
-3.9151 -1.44836 -0.544362 
-3.86598 -1.44731 -0.522939 
-3.91838 -1.43978 -0.535457 
-3.86554 -1.43617 -0.514218 
-3.91965 -1.42839 -0.527147 
-3.89456 -1.37108 -0.521365 
-3.87429 -1.374 -0.516521 
-3.87953 -1.35998 -0.531879 
-3.90378 -1.38202 -0.517403 
-3.87107 -1.38672 -0.509588 
-3.91025 -1.39268 -0.516413 
-3.86881 -1.39864 -0.506513 
-3.9151 -1.40383 -0.517572 
-3.86712 -1.41072 -0.50611 
-3.91838 -1.41571 -0.520977 
-3.86598 -1.42324 -0.508458 
-3.85925 -1.45567 -0.582849 
-3.84682 -1.45117 -0.576098 
-3.83809 -1.44503 -0.569566 
-3.83155 -1.43728 -0.562772 
-3.82713 -1.42769 -0.555563 
-3.82541 -1.4159 -0.547912 
-3.85925 -1.3664 -0.529145 
-3.84682 -1.37447 -0.529954 
-3.83809 -1.38312 -0.532314 
-3.83155 -1.39275 -0.535983 
-3.82713 -1.40362 -0.541082 
-3.8645 -1.44516 -0.600317 
-3.85528 -1.43422 -0.604279 
-3.8488 -1.42356 -0.605268 
-3.84395 -1.41241 -0.604109 
-3.84068 -1.40053 -0.600705 
-3.8394 -1.38785 -0.594534 
-3.8645 -1.35589 -0.546613 
-3.85528 -1.35752 -0.558134 
-3.8488 -1.36164 -0.568016 
-3.84395 -1.36788 -0.577319 
-3.84068 -1.37646 -0.586224 
-3.88477 -1.44224 -0.605161 
-3.88798 -1.42952 -0.612093 
-3.89024 -1.4176 -0.615168 
-3.89193 -1.40551 -0.615572 
-3.89307 -1.393 -0.613223 
-3.89352 -1.38007 -0.607463 
-3.88477 -1.35298 -0.551457 
-3.88798 -1.35282 -0.565948 
-3.89024 -1.35568 -0.577916 
-3.89193 -1.36099 -0.588782 
-3.89307 -1.36893 -0.598742 
-3.8998 -1.44984 -0.592537 
-3.91224 -1.44177 -0.591728 
-3.92097 -1.43312 -0.589367 
-3.92751 -1.42349 -0.585698 
-3.93193 -1.41262 -0.580599 
-3.93364 -1.40034 -0.573769 
-3.8998 -1.36057 -0.538833 
-3.91224 -1.36507 -0.545583 
-3.92097 -1.3712 -0.552115 
-3.92751 -1.37896 -0.558909 
-3.93193 -1.38855 -0.566119 
-6.65216 -3.62282 -4.23952 
-7.78407 -2.7128 -5.03998 
-7.83958 -2.84193 -5.10416 
-6.63209 -3.7917 -4.23761 
-6.63301 -3.33459 -4.25173 
-7.68156 -2.59854 -5.05759 
-6.52266 -3.27884 -4.3444 
-7.57121 -2.54279 -5.15026 
-6.36325 -3.47687 -4.48212 
-7.49516 -2.56685 -5.28259 
-6.27498 -3.61129 -4.53749 
-7.48247 -2.66151 -5.40404 
-6.33049 -3.74042 -4.60167 
-7.53798 -2.79064 -5.46821 
-6.433 -3.85468 -4.58406 
-7.64049 -2.9049 -5.4506 
-6.54335 -3.91043 -4.49139 
-7.75084 -2.96065 -5.35794 
-6.6194 -3.88637 -4.35906 
-7.82689 -2.93659 -5.22561 
-8.56475 -0.435304 -5.20649 
-7.9739 0.354924 -4.02745 
-7.83284 0.18985 -4.02247 
-8.4687 -0.513007 -5.20254 
-8.67867 -0.414845 -5.16311 
-8.08782 0.375382 -3.98407 
-8.76695 -0.459445 -5.08898 
-8.1761 0.330782 -3.90994 
-8.79587 -0.552068 -5.01241 
-8.20502 0.238159 -3.83337 
-8.75439 -0.657335 -4.96264 
-8.11853 0.045521 -3.78257 
-8.62719 -0.696112 -4.89819 
-8.08195 -0.046109 -3.77445 
-8.49284 -0.693132 -4.90314 
-7.95356 -0.075243 -3.8892 
-8.40456 -0.648532 -4.97728 
-7.86528 -0.030643 -3.96333 
-8.39607 -0.579348 -5.09227 
-7.85082 0.070656 -3.96854 
-7.52405 -2.58144 -5.25833 
-7.51818 -2.67956 -5.37405 
-7.58224 -2.54837 -5.14099 
-7.67053 -2.59297 -5.06686 
-7.75518 -2.69821 -5.06424 
-7.80387 -2.82388 -5.13415 
-7.798 -2.922 -5.24987 
-7.7398 -2.95507 -5.36721 
-7.65152 -2.91047 -5.44134 
-7.56687 -2.80523 -5.44395 
-8.00279 0.340328 -4.00319 
-7.19392 -0.383919 -3.47567 
-7.19422 -0.433808 -3.5538 
-7.86855 0.171809 -3.99248 
-8.09886 0.369807 -3.97481 
-7.23466 -0.373759 -3.39301 
-8.16507 0.336357 -3.9192 
-7.30087 -0.407209 -3.33741 
-8.17613 0.252755 -3.85763 
-7.36727 -0.471492 -3.3301 
-8.08282 0.063562 -3.81256 
-7.40849 -0.542054 -3.37388 
-8.05306 -0.031513 -3.79871 
-7.40879 -0.591944 -3.45201 
-7.94253 -0.069668 -3.89847 
-7.36805 -0.602103 -3.53467 
-7.87632 -0.036218 -3.95407 
-7.30184 -0.568653 -3.59027 
-7.87971 0.05606 -3.94428 
-7.23544 -0.50437 -3.59757 
-7.22282 -0.398514 -3.45141 
-6.97559 -1.14322 -3.60503 
-6.99875 -1.1395 -3.66221 
-7.22993 -0.451849 -3.52381 
-7.2457 -0.379334 -3.38375 
-6.98856 -1.1593 -3.54678 
-7.28984 -0.401634 -3.34668 
-7.0327 -1.1816 -3.50971 
-7.33838 -0.456897 -3.35436 
-7.09116 -1.2016 -3.50799 
-7.37278 -0.524013 -3.40386 
-7.14159 -1.21166 -3.54226 
-7.3799 -0.577348 -3.47627 
-7.16475 -1.20794 -3.59944 
-7.35702 -0.596528 -3.54393 
-7.15178 -1.19185 -3.65769 
-7.31287 -0.574228 -3.581 
-7.10764 -1.16955 -3.69475 
-7.26433 -0.518966 -3.57331 
-7.04919 -1.14955 -3.69648 
-4.19753 -4.1152 -4.12419 
-4.68967 -4.14825 -4.73014 
-4.75796 -4.10551 -4.86913 
-4.46815 -3.84786 -4.36899 
-4.82625 -4.14082 -5.05506 
-4.73877 -3.58052 -4.61379 
-4.98906 -4.10527 -5.14419 
-4.99758 -3.38673 -4.72205 
-5.15188 -4.06972 -5.23332 
-5.25639 -3.19294 -4.8303 
-3.70539 -3.7169 -3.29849 
-4.02543 -3.43447 -3.59307 
-4.34547 -3.15203 -3.88764 
-4.62944 -2.89761 -3.98938 
-4.91342 -2.64319 -4.09112 
-3.79468 -2.88478 -2.90421 
-3.82168 -2.8851 -3.01992 
-3.84868 -2.88541 -3.13563 
-4.11253 -2.61346 -3.20285 
-4.37637 -2.34151 -3.27008 
-4.08553 -2.61315 -3.08714 
-4.18395 -2.64954 -3.14288 
-3.99153 -2.95757 -3.01568 
-4.70086 -2.9337 -3.92941 
-4.48831 -3.2242 -3.76769 
-4.09685 -3.47055 -3.53309 
-3.8931 -2.92118 -2.95994 
-5.069 -3.42282 -4.66207 
-4.88161 -3.65269 -4.49384 
-4.53957 -3.88394 -4.30901 
-5.06049 -4.14135 -5.08422 
-4.9691 -4.21298 -4.93511 
-4.82938 -4.14159 -4.80915 
-6.08182 -5.06713 -2.54189 
-6.57396 -5.10019 -3.14785 
-6.64225 -5.05745 -3.28683 
-6.35244 -4.7998 -2.7867 
-6.71055 -5.09276 -3.47277 
-6.62306 -4.53246 -3.0315 
-6.87335 -5.05721 -3.5619 
-6.88187 -4.33867 -3.13976 
-7.03617 -5.02166 -3.65103 
-7.14069 -4.14488 -3.24801 
-5.58968 -4.66884 -1.7162 
-5.90972 -4.38641 -2.01077 
-6.22976 -4.10397 -2.30535 
-6.51373 -3.84955 -2.40709 
-6.79771 -3.59513 -2.50883 
-5.67897 -3.83672 -1.32192 
-5.70597 -3.83704 -1.43763 
-5.73297 -3.83735 -1.55334 
-5.99682 -3.5654 -1.62056 
-6.26066 -3.29345 -1.68778 
-5.96982 -3.56508 -1.50485 
-6.06824 -3.60148 -1.56059 
-5.87582 -3.90951 -1.43339 
-6.58516 -3.88564 -2.34712 
-6.3726 -4.17614 -2.1854 
-5.98114 -4.42249 -1.9508 
-5.77739 -3.87312 -1.37765 
-6.95329 -4.37475 -3.07978 
-6.7659 -4.60463 -2.91155 
-6.42386 -4.83588 -2.72672 
-6.94478 -5.09329 -3.50192 
-6.85339 -5.16492 -3.35282 
-6.71368 -5.09353 -3.22686 
-4.57412 -4.16788 -4.60435 
-3.98685 -4.48827 -4.09774 
-4.02278 -4.46342 -4.22979 
-4.65948 -4.11446 -4.77808 
-4.0587 -4.53612 -4.42052 
-4.74485 -4.15859 -5.0105 
-3.39958 -4.80865 -3.59113 
-3.38607 -4.81238 -3.68149 
-3.37256 -4.91365 -3.83055 
-4.14858 -4.54317 -4.42759 
-4.94836 -4.11415 -5.12191 
-4.23847 -4.55021 -4.43465 
-3.34881 -4.97218 -3.73326 
-3.32506 -5.03071 -3.63598 
-3.43809 -5.01728 -3.6583 
-4.23786 -4.58827 -4.35262 
-3.55111 -5.00386 -3.68061 
-4.23726 -4.62633 -4.27058 
-5.03764 -4.15926 -5.04694 
-4.9234 -4.2488 -4.86056 
-3.47534 -4.85748 -3.60652 
-4.11205 -4.50852 -4.15482 
-4.74876 -4.15956 -4.70311 
-6.45841 -5.11982 -3.02206 
-5.87114 -5.44021 -2.51545 
-5.90707 -5.41536 -2.6475 
-6.54378 -5.0664 -3.19579 
-5.94299 -5.48806 -2.83823 
-6.62914 -5.11053 -3.4282 
-5.28387 -5.76059 -2.00884 
-5.27036 -5.76432 -2.0992 
-5.25685 -5.86559 -2.24826 
-6.03288 -5.49511 -2.84529 
-6.83265 -5.06609 -3.53962 
-6.12276 -5.50215 -2.85236 
-5.2331 -5.92412 -2.15097 
-5.20935 -5.98265 -2.05369 
-5.32238 -5.96922 -2.07601 
-6.12215 -5.54021 -2.77033 
-5.4354 -5.9558 -2.09832 
-6.12155 -5.57827 -2.68829 
-6.92193 -5.1112 -3.46465 
-6.80769 -5.20074 -3.27827 
-5.35963 -5.80942 -2.02424 
-5.99634 -5.46046 -2.57253 
-6.63305 -5.1115 -3.12082 
-4.92041 -1.55708 -2.82687 
-4.56888 -2.41734 -2.92581 
-4.46377 -2.27941 -2.88439 
-4.752 -1.47078 -2.74114 
-5.00042 -1.46759 -3.03505 
-4.51176 -2.50914 -3.07974 
-3.9829 -2.1265 -2.053 
-3.9108 -2.03078 -2.07629 
-3.90297 -2.13322 -2.1286 
-4.91228 -1.26857 -2.81035 
-4.96843 -1.26361 -2.87423 
-5.02458 -1.25865 -2.93812 
-4.77757 -1.48492 -2.94682 
-4.42604 -2.34518 -3.04575 
-3.84006 -2.05433 -2.17295 
-3.63856 -2.30148 -1.91495 
-3.6304 -2.31577 -1.91382 
-3.78299 -2.39819 -1.77682 
-3.46746 -2.23879 -2.04178 
-5.47961 -2.88263 -0.796175 
-5.2797 -3.15433 -0.519994 
-5.40751 -2.78691 -0.819461 
-4.96417 -2.99492 -0.784953 
-5.33676 -2.81047 -0.916124 
-5.13527 -3.05761 -0.658122 
-5.1271 -3.0719 -0.656996 
-5.39968 -2.88935 -0.87177 
-6.41712 -2.31322 -1.57005 
-6.06559 -3.17347 -1.66898 
-5.96048 -3.03554 -1.62756 
-6.24871 -2.22691 -1.48431 
-6.49713 -2.22372 -1.77822 
-6.00846 -3.26527 -1.82291 
-6.40899 -2.0247 -1.55352 
-6.46514 -2.01974 -1.61741 
-6.52129 -2.01479 -1.68129 
-6.27427 -2.24105 -1.69 
-5.92275 -3.10131 -1.78893 
-3.41165 -2.98709 -0.274488 
-4.18579 -3.62705 0.22586 
-4.18052 -3.63467 0.224273 
-3.40637 -2.99471 -0.276075 
-3.41737 -2.98593 -0.281859 
-4.19152 -3.62589 0.218488 
-3.41563 -2.99284 -0.288001 
-4.18978 -3.6328 0.212346 
-3.40884 -2.99826 -0.284426 
-4.18298 -3.63822 0.215922 
-4.21709 -3.39773 0.385 
-4.22095 -3.40221 0.377696 
-3.4195 -2.99732 -0.295306 
-4.22721 -3.39643 0.373721 
-3.42576 -2.99154 -0.299281 
-4.22721 -3.38837 0.378568 
-3.42576 -2.98348 -0.294433 
-4.22095 -3.38917 0.38554 
-3.4195 -2.98428 -0.287462 
-3.40637 -2.98693 -0.271392 
-4.18052 -3.12916 0.528399 
-4.18579 -3.13413 0.52241 
-3.41165 -2.9919 -0.277382 
-4.19152 -3.12816 0.517932 
-4.18978 -3.1195 0.521155 
-3.41563 -2.97727 -0.278637 
-4.18298 -3.12012 0.527624 
-3.40884 -2.97789 -0.272168 
-3.39391 -2.98063 -0.28186 
-2.61977 -2.34067 -0.782207 
-2.62504 -2.33305 -0.780621 
-3.39918 -2.97301 -0.280273 
-2.63076 -2.33189 -0.787992 
-3.40491 -2.97185 -0.287644 
-2.62902 -2.3388 -0.794134 
-3.40317 -2.97876 -0.293786 
-2.62223 -2.34422 -0.790559 
-3.39637 -2.98418 -0.290211 
-3.40491 -2.98742 -0.297009 
-2.60345 -2.58253 -0.970011 
-2.60732 -2.57397 -0.969472 
-3.40878 -2.97886 -0.29647 
-2.61358 -2.57317 -0.976443 
-3.41504 -2.97806 -0.303441 
-2.61358 -2.58123 -0.98129 
-3.41504 -2.98612 -0.308289 
-2.60732 -2.58701 -0.977315 
-3.40878 -2.9919 -0.304313 
-3.39918 -2.99339 -0.292532 
-2.62504 -2.85116 -1.09232 
-2.61977 -2.84618 -1.08633 
-3.39391 -2.98842 -0.286542 
-2.63076 -2.84519 -1.0968 
-2.62902 -2.83652 -1.09358 
-3.39637 -2.97937 -0.287317 
-2.62223 -2.83714 -1.08711 
-3.4613 -2.9697 -0.299214 
-3.46302 -2.98149 -0.306865 
-3.44903 -3.00954 -0.260243 
-3.44776 -2.99686 -0.254072 
-3.45689 -2.96011 -0.292005 
-3.44448 -2.98497 -0.250668 
-3.45035 -2.95235 -0.285211 
-3.43963 -2.97383 -0.249509 
-3.44161 -2.94621 -0.278679 
-3.43316 -2.96317 -0.250499 
-3.42918 -2.94172 -0.271929 
-3.42394 -2.95223 -0.254461 
-3.40891 -2.94113 -0.264975 
-3.44776 -3.02093 -0.268553 
-3.4613 -2.99377 -0.313695 
-3.44448 -3.0295 -0.277458 
-3.45689 -3.00463 -0.318794 
-3.43963 -3.03575 -0.286761 
-3.45035 -3.01427 -0.322463 
-3.43316 -3.03987 -0.296643 
-3.44161 -3.02291 -0.324823 
-3.42394 -3.04149 -0.308164 
-3.42918 -3.03099 -0.325632 
-3.40891 -3.03741 -0.322898 
-3.42245 -2.95007 -0.331838 
-3.4229 -2.96122 -0.340559 
-3.42131 -2.94213 -0.321878 
-3.41962 -2.93683 -0.311012 
-3.41736 -2.93396 -0.299044 
-3.41415 -2.93412 -0.284553 
-3.42245 -2.97414 -0.346319 
-3.42131 -2.98666 -0.348668 
-3.41962 -2.99875 -0.348264 
-3.41736 -3.01066 -0.345189 
-3.41415 -3.02339 -0.338256 
-3.37005 -2.9576 -0.31932 
-3.36878 -2.969 -0.32763 
-3.37333 -2.94903 -0.310415 
-3.37818 -2.94278 -0.301112 
-3.38465 -2.93866 -0.29123 
-3.39387 -2.93704 -0.279709 
-3.37005 -2.98167 -0.333801 
-3.37333 -2.99356 -0.337205 
-3.37818 -3.0047 -0.338364 
-3.38465 -3.01536 -0.337374 
-3.39387 -3.0263 -0.333412 
-3.35651 -2.98476 -0.274178 
-3.35479 -2.99705 -0.281008 
-3.36092 -2.9739 -0.269079 
-3.36747 -2.96426 -0.26541 
-3.3762 -2.95562 -0.26305 
-3.38863 -2.94755 -0.262241 
-3.35651 -3.00883 -0.288659 
-3.36092 -3.01843 -0.295868 
-3.36747 -3.02618 -0.302662 
-3.3762 -3.03232 -0.309194 
-3.38863 -3.03681 -0.315944 
-3.39536 -3.00439 -0.241554 
-3.39491 -3.01731 -0.247314 
-3.3965 -2.99187 -0.239205 
-3.39819 -2.97979 -0.239609 
-3.40045 -2.96787 -0.242684 
-3.40366 -2.95514 -0.249616 
-3.39536 -3.02846 -0.256035 
-3.3965 -3.0364 -0.265995 
-3.39819 -3.0417 -0.276861 
-3.40045 -3.04457 -0.288829 
-3.40366 -3.04441 -0.30332 
-3.84351 -2.62562 -0.606976 
-3.89323 -2.8966 -0.713144 
-3.95199 -2.6671 -0.507865 
-3.89075 -2.65005 -0.5513 
-3.7938 -2.84637 -0.796639 
-3.78227 -2.59524 -0.642394 
-3.73503 -2.5575 -0.690053 
-4.7553 -3.74787 -2.36797 
-4.86936 -2.89996 -1.99366 
3 0 1 2 
3 0 2 3 
3 4 5 1 
3 4 1 0 
3 6 7 5 
3 6 5 4 
3 8 9 7 
3 8 7 6 
3 10 0 3 
3 10 3 11 
3 12 4 0 
3 12 0 10 
3 13 6 4 
3 13 4 12 
3 14 8 6 
3 14 6 13 
3 15 16 17 
3 15 17 18 
3 19 20 16 
3 19 16 15 
3 21 22 20 
3 21 20 19 
3 23 24 22 
3 23 22 21 
3 25 26 24 
3 25 24 23 
3 27 28 26 
3 27 26 25 
3 29 30 31 
3 29 31 32 
3 11 3 30 
3 11 30 29 
3 33 34 8 
3 33 8 14 
3 35 36 34 
3 35 34 33 
3 37 18 36 
3 37 36 35 
3 38 15 18 
3 38 18 37 
3 39 19 15 
3 39 15 38 
3 40 21 19 
3 40 19 39 
3 41 23 21 
3 41 21 40 
3 42 25 23 
3 42 23 41 
3 43 27 25 
3 43 25 42 
3 32 31 27 
3 32 27 43 
3 44 29 32 
3 44 32 45 
3 46 11 29 
3 46 29 44 
3 47 10 11 
3 47 11 46 
3 48 12 10 
3 48 10 47 
3 49 13 12 
3 49 12 48 
3 50 14 13 
3 50 13 49 
3 51 33 14 
3 51 14 50 
3 52 35 33 
3 52 33 51 
3 53 37 35 
3 53 35 52 
3 54 38 37 
3 54 37 53 
3 55 39 38 
3 55 38 54 
3 56 40 39 
3 56 39 55 
3 57 41 40 
3 57 40 56 
3 58 42 41 
3 58 41 57 
3 59 43 42 
3 59 42 58 
3 45 32 43 
3 45 43 59 
3 57 56 60 
3 57 60 61 
3 58 57 61 
3 58 61 62 
3 63 59 58 
3 63 58 62 
3 56 55 64 
3 56 64 60 
3 55 54 65 
3 55 65 64 
3 54 53 66 
3 54 66 65 
3 67 68 52 
3 67 52 51 
3 27 31 28 
3 31 30 26 
3 26 30 3 
3 34 16 8 
3 36 17 34 
3 36 18 17 
3 69 70 71 
3 69 71 72 
3 73 74 70 
3 73 70 69 
3 75 76 74 
3 75 74 73 
3 77 78 76 
3 77 76 75 
3 79 80 78 
3 79 78 77 
3 81 82 80 
3 81 80 79 
3 83 67 82 
3 83 82 81 
3 84 68 67 
3 84 67 83 
3 85 66 68 
3 85 68 84 
3 86 65 66 
3 86 66 85 
3 87 64 65 
3 87 65 86 
3 88 60 64 
3 88 64 87 
3 89 61 60 
3 89 60 88 
3 90 62 61 
3 90 61 89 
3 91 63 62 
3 91 62 90 
3 72 71 63 
3 72 63 91 
3 92 69 72 
3 92 72 93 
3 94 73 69 
3 94 69 92 
3 95 83 81 
3 95 81 96 
3 97 84 83 
3 97 83 95 
3 98 85 84 
3 98 84 97 
3 99 86 85 
3 99 85 98 
3 100 87 86 
3 100 86 99 
3 101 89 88 
3 101 88 102 
3 103 91 90 
3 103 90 104 
3 93 72 91 
3 93 91 103 
3 105 92 93 
3 105 93 106 
3 107 94 92 
3 107 92 105 
3 108 95 96 
3 108 96 109 
3 110 97 95 
3 110 95 108 
3 111 98 97 
3 111 97 110 
3 112 99 98 
3 112 98 111 
3 113 100 99 
3 113 99 112 
3 114 101 102 
3 114 102 115 
3 116 103 104 
3 116 104 117 
3 106 93 103 
3 106 103 116 
3 118 105 106 
3 118 106 119 
3 120 107 105 
3 120 105 118 
3 121 122 107 
3 121 107 120 
3 123 124 122 
3 123 122 121 
3 125 126 124 
3 125 124 123 
3 127 109 126 
3 127 126 125 
3 128 108 109 
3 128 109 127 
3 129 110 108 
3 129 108 128 
3 130 111 110 
3 130 110 129 
3 131 112 111 
3 131 111 130 
3 132 113 112 
3 132 112 131 
3 133 115 113 
3 133 113 132 
3 134 114 115 
3 134 115 133 
3 135 117 114 
3 135 114 134 
3 136 116 117 
3 136 117 135 
3 119 106 116 
3 119 116 136 
3 137 75 73 
3 137 73 138 
3 75 137 77 
3 77 139 79 
3 139 140 81 
3 139 81 79 
3 122 141 142 
3 122 142 107 
3 141 122 124 
3 124 126 143 
3 126 109 144 
3 126 144 143 
3 101 104 90 
3 101 90 89 
3 104 101 114 
3 104 114 117 
3 113 115 102 
3 113 102 100 
3 88 87 100 
3 88 100 102 
3 145 146 147 
3 145 147 148 
3 148 147 149 
3 148 149 150 
3 150 149 151 
3 150 151 152 
3 152 151 153 
3 152 153 154 
3 154 153 155 
3 154 155 156 
3 156 155 157 
3 156 157 158 
3 159 145 148 
3 159 148 160 
3 160 148 150 
3 160 150 161 
3 161 150 152 
3 161 152 162 
3 162 152 154 
3 162 154 163 
3 163 154 156 
3 163 156 164 
3 164 156 158 
3 164 158 165 
3 166 159 160 
3 166 160 167 
3 167 160 161 
3 167 161 168 
3 168 161 162 
3 168 162 169 
3 169 162 163 
3 169 163 170 
3 170 163 164 
3 170 164 171 
3 171 164 165 
3 171 165 172 
3 173 174 175 
3 173 175 176 
3 177 178 179 
3 177 179 180 
3 180 179 181 
3 180 181 182 
3 182 181 183 
3 182 183 184 
3 184 183 185 
3 184 185 186 
3 186 185 187 
3 186 187 188 
3 188 187 189 
3 188 189 190 
3 178 191 192 
3 178 192 179 
3 179 192 193 
3 179 193 181 
3 181 193 194 
3 181 194 183 
3 183 194 195 
3 183 195 185 
3 185 195 196 
3 185 196 187 
3 187 196 197 
3 187 197 189 
3 191 198 199 
3 191 199 192 
3 192 199 200 
3 192 200 193 
3 193 200 201 
3 193 201 194 
3 194 201 202 
3 194 202 195 
3 195 202 203 
3 195 203 196 
3 196 203 204 
3 196 204 197 
3 167 166 205 
3 168 167 205 
3 206 169 168 
3 206 168 205 
3 207 170 169 
3 207 169 206 
3 171 170 207 
3 172 171 207 
3 208 205 209 
3 210 205 208 
3 211 206 205 
3 211 205 210 
3 212 207 206 
3 212 206 211 
3 213 207 212 
3 214 207 213 
3 174 208 209 
3 174 209 215 
3 175 210 208 
3 175 208 174 
3 216 211 210 
3 216 210 175 
3 217 212 211 
3 217 211 216 
3 218 213 212 
3 218 212 217 
3 219 214 213 
3 219 213 218 
3 173 174 215 
3 173 215 220 
3 221 216 175 
3 221 175 176 
3 222 217 216 
3 222 216 221 
3 223 218 217 
3 223 217 222 
3 224 219 218 
3 224 218 223 
3 225 226 227 
3 225 227 228 
3 229 230 226 
3 229 226 225 
3 231 232 230 
3 231 230 229 
3 233 234 232 
3 233 232 231 
3 235 236 234 
3 235 234 233 
3 237 238 236 
3 237 236 235 
3 226 239 240 
3 226 240 227 
3 230 241 239 
3 230 239 226 
3 232 242 241 
3 232 241 230 
3 234 243 242 
3 234 242 232 
3 236 244 243 
3 236 243 234 
3 238 245 244 
3 238 244 236 
3 239 246 240 
3 241 246 239 
3 242 247 246 
3 242 246 241 
3 243 248 247 
3 243 247 242 
3 244 248 243 
3 245 248 244 
3 246 180 177 
3 246 182 180 
3 247 184 182 
3 247 182 246 
3 248 186 184 
3 248 184 247 
3 248 188 186 
3 248 190 188 
3 249 250 251 
3 249 251 252 
3 253 249 252 
3 253 252 254 
3 255 253 254 
3 255 254 256 
3 257 255 256 
3 257 256 258 
3 259 257 258 
3 259 258 260 
3 261 259 260 
3 262 251 250 
3 262 250 263 
3 264 262 263 
3 264 263 265 
3 266 264 265 
3 266 265 267 
3 268 266 267 
3 268 267 269 
3 270 268 269 
3 270 269 271 
3 270 271 272 
3 252 251 273 
3 252 273 274 
3 254 252 274 
3 254 274 275 
3 256 254 275 
3 256 275 276 
3 258 256 276 
3 258 276 277 
3 260 258 277 
3 260 277 278 
3 261 260 278 
3 279 273 251 
3 279 251 262 
3 280 279 262 
3 280 262 264 
3 281 280 264 
3 281 264 266 
3 282 281 266 
3 282 266 268 
3 283 282 268 
3 283 268 270 
3 283 270 272 
3 274 273 284 
3 274 284 285 
3 275 274 285 
3 275 285 286 
3 276 275 286 
3 276 286 287 
3 277 276 287 
3 277 287 288 
3 278 277 288 
3 278 288 289 
3 261 278 289 
3 290 284 273 
3 290 273 279 
3 291 290 279 
3 291 279 280 
3 292 291 280 
3 292 280 281 
3 293 292 281 
3 293 281 282 
3 294 293 282 
3 294 282 283 
3 294 283 272 
3 285 284 295 
3 285 295 296 
3 286 285 296 
3 286 296 297 
3 287 286 297 
3 287 297 298 
3 288 287 298 
3 288 298 299 
3 289 288 299 
3 289 299 300 
3 261 289 300 
3 301 295 284 
3 301 284 290 
3 302 301 290 
3 302 290 291 
3 303 302 291 
3 303 291 292 
3 304 303 292 
3 304 292 293 
3 305 304 293 
3 305 293 294 
3 305 294 272 
3 296 295 306 
3 296 306 307 
3 297 296 307 
3 297 307 308 
3 298 297 308 
3 298 308 309 
3 299 298 309 
3 299 309 310 
3 300 299 310 
3 300 310 311 
3 261 300 311 
3 312 306 295 
3 312 295 301 
3 313 312 301 
3 313 301 302 
3 314 313 302 
3 314 302 303 
3 315 314 303 
3 315 303 304 
3 316 315 304 
3 316 304 305 
3 316 305 272 
3 307 306 250 
3 307 250 249 
3 308 307 249 
3 308 249 253 
3 309 308 253 
3 309 253 255 
3 310 309 255 
3 310 255 257 
3 311 310 257 
3 311 257 259 
3 261 311 259 
3 263 250 306 
3 263 306 312 
3 265 263 312 
3 265 312 313 
3 267 265 313 
3 267 313 314 
3 269 267 314 
3 269 314 315 
3 271 269 315 
3 271 315 316 
3 271 316 272 
3 317 318 319 
3 318 320 321 
3 318 321 319 
3 320 322 323 
3 320 323 321 
3 322 324 325 
3 322 325 323 
3 324 326 327 
3 324 327 325 
3 326 328 329 
3 326 329 327 
3 330 331 332 
3 330 333 334 
3 330 334 331 
3 333 335 336 
3 333 336 334 
3 335 337 338 
3 335 338 336 
3 337 339 340 
3 337 340 338 
3 339 329 328 
3 339 328 340 
3 317 341 318 
3 341 342 320 
3 341 320 318 
3 342 343 322 
3 342 322 320 
3 343 344 324 
3 343 324 322 
3 344 345 326 
3 344 326 324 
3 345 346 328 
3 345 328 326 
3 331 347 332 
3 331 334 348 
3 331 348 347 
3 334 336 349 
3 334 349 348 
3 336 338 350 
3 336 350 349 
3 338 340 351 
3 338 351 350 
3 340 328 346 
3 340 346 351 
3 317 352 341 
3 352 353 342 
3 352 342 341 
3 353 354 343 
3 353 343 342 
3 354 355 344 
3 354 344 343 
3 355 356 345 
3 355 345 344 
3 356 357 346 
3 356 346 345 
3 347 358 332 
3 347 348 359 
3 347 359 358 
3 348 349 360 
3 348 360 359 
3 349 350 361 
3 349 361 360 
3 350 351 362 
3 350 362 361 
3 351 346 357 
3 351 357 362 
3 317 363 352 
3 363 364 353 
3 363 353 352 
3 364 365 354 
3 364 354 353 
3 365 366 355 
3 365 355 354 
3 366 367 356 
3 366 356 355 
3 367 368 357 
3 367 357 356 
3 358 369 332 
3 358 359 370 
3 358 370 369 
3 359 360 371 
3 359 371 370 
3 360 361 372 
3 360 372 371 
3 361 362 373 
3 361 373 372 
3 362 357 368 
3 362 368 373 
3 317 374 363 
3 374 375 364 
3 374 364 363 
3 375 376 365 
3 375 365 364 
3 376 377 366 
3 376 366 365 
3 377 378 367 
3 377 367 366 
3 378 379 368 
3 378 368 367 
3 369 380 332 
3 369 370 381 
3 369 381 380 
3 370 371 382 
3 370 382 381 
3 371 372 383 
3 371 383 382 
3 372 373 384 
3 372 384 383 
3 373 368 379 
3 373 379 384 
3 317 319 374 
3 319 321 375 
3 319 375 374 
3 321 323 376 
3 321 376 375 
3 323 325 377 
3 323 377 376 
3 325 327 378 
3 325 378 377 
3 327 329 379 
3 327 379 378 
3 380 330 332 
3 380 381 333 
3 380 333 330 
3 381 382 335 
3 381 335 333 
3 382 383 337 
3 382 337 335 
3 383 384 339 
3 383 339 337 
3 384 379 329 
3 384 329 339 
3 385 386 387 
3 385 387 388 
3 386 385 389 
3 386 389 390 
3 391 392 390 
3 391 390 389 
3 392 391 393 
3 392 393 394 
3 395 396 394 
3 395 394 393 
3 396 395 397 
3 396 397 398 
3 399 400 398 
3 399 398 397 
3 400 399 401 
3 400 401 402 
3 403 404 402 
3 403 402 401 
3 404 403 388 
3 404 388 387 
3 405 406 407 
3 405 407 408 
3 406 405 409 
3 406 409 410 
3 411 412 410 
3 411 410 409 
3 412 411 413 
3 412 413 414 
3 415 416 414 
3 415 414 413 
3 416 415 417 
3 416 417 418 
3 419 420 418 
3 419 418 417 
3 420 419 421 
3 420 421 422 
3 423 424 422 
3 423 422 421 
3 424 423 408 
3 424 408 407 
3 423 425 426 
3 423 426 408 
3 425 423 421 
3 425 421 427 
3 419 428 427 
3 419 427 421 
3 428 419 417 
3 428 417 429 
3 415 430 429 
3 415 429 417 
3 430 415 413 
3 430 413 431 
3 411 432 431 
3 411 431 413 
3 432 411 409 
3 432 409 433 
3 405 434 433 
3 405 433 409 
3 434 405 408 
3 434 408 426 
3 435 436 437 
3 435 437 438 
3 436 435 439 
3 436 439 440 
3 441 442 440 
3 441 440 439 
3 442 441 443 
3 442 443 444 
3 445 446 444 
3 445 444 443 
3 446 445 447 
3 446 447 448 
3 449 450 448 
3 449 448 447 
3 450 449 451 
3 450 451 452 
3 453 454 452 
3 453 452 451 
3 454 453 438 
3 454 438 437 
3 455 456 457 
3 455 457 458 
3 456 455 459 
3 456 459 460 
3 461 462 460 
3 461 460 459 
3 462 461 463 
3 462 463 464 
3 465 466 464 
3 465 464 463 
3 466 465 467 
3 466 467 468 
3 469 470 468 
3 469 468 467 
3 470 469 471 
3 470 471 472 
3 473 474 472 
3 473 472 471 
3 474 473 458 
3 474 458 457 
3 475 476 477 
3 475 477 478 
3 478 477 479 
3 478 479 480 
3 480 479 481 
3 480 481 482 
3 482 481 483 
3 482 483 484 
3 485 475 478 
3 485 478 486 
3 486 478 480 
3 486 480 487 
3 487 480 482 
3 487 482 488 
3 488 482 484 
3 488 484 489 
3 490 485 486 
3 490 486 491 
3 491 486 487 
3 491 487 492 
3 492 487 488 
3 492 488 493 
3 493 488 489 
3 493 489 494 
3 490 492 493 
3 490 493 495 
3 493 494 495 
3 495 494 496 
3 495 496 497 
3 495 497 490 
3 494 489 498 
3 494 498 496 
3 496 498 499 
3 496 499 497 
3 497 499 500 
3 497 500 501 
3 501 500 485 
3 501 485 490 
3 489 484 502 
3 489 502 498 
3 498 502 503 
3 498 503 499 
3 499 503 504 
3 499 504 500 
3 500 504 475 
3 500 475 485 
3 484 483 505 
3 484 505 502 
3 502 505 506 
3 502 506 503 
3 503 506 507 
3 503 507 504 
3 504 507 476 
3 504 476 475 
3 508 509 510 
3 508 510 511 
3 511 510 512 
3 511 512 513 
3 513 512 514 
3 513 514 515 
3 515 514 516 
3 515 516 517 
3 518 508 511 
3 518 511 519 
3 519 511 513 
3 519 513 520 
3 520 513 515 
3 520 515 521 
3 521 515 517 
3 521 517 522 
3 523 518 519 
3 523 519 524 
3 524 519 520 
3 524 520 525 
3 525 520 521 
3 525 521 526 
3 526 521 522 
3 526 522 527 
3 523 525 526 
3 523 526 528 
3 526 527 528 
3 528 527 529 
3 528 529 530 
3 528 530 523 
3 527 522 531 
3 527 531 529 
3 529 531 532 
3 529 532 530 
3 530 532 533 
3 530 533 534 
3 534 533 518 
3 534 518 523 
3 522 517 535 
3 522 535 531 
3 531 535 536 
3 531 536 532 
3 532 536 537 
3 532 537 533 
3 533 537 508 
3 533 508 518 
3 517 516 538 
3 517 538 535 
3 535 538 539 
3 535 539 536 
3 536 539 540 
3 536 540 537 
3 537 540 509 
3 537 509 508 
3 541 542 543 
3 541 543 544 
3 544 543 545 
3 544 545 546 
3 542 547 548 
3 542 548 543 
3 543 548 549 
3 543 549 545 
3 546 545 550 
3 546 550 551 
3 551 550 552 
3 551 552 483 
3 545 549 553 
3 545 553 550 
3 550 553 554 
3 550 554 552 
3 552 554 555 
3 552 555 556 
3 556 555 557 
3 556 557 558 
3 483 552 556 
3 483 556 559 
3 559 556 558 
3 559 558 560 
3 558 557 561 
3 558 561 562 
3 562 561 547 
3 562 547 542 
3 560 558 562 
3 560 562 563 
3 563 562 542 
3 563 542 541 
3 564 565 566 
3 564 566 567 
3 567 566 568 
3 567 568 569 
3 565 570 571 
3 565 571 566 
3 566 571 572 
3 566 572 568 
3 569 568 573 
3 569 573 574 
3 574 573 575 
3 574 575 516 
3 568 572 576 
3 568 576 573 
3 573 576 577 
3 573 577 575 
3 575 577 578 
3 575 578 579 
3 579 578 580 
3 579 580 581 
3 516 575 579 
3 516 579 582 
3 582 579 581 
3 582 581 583 
3 581 580 584 
3 581 584 585 
3 585 584 570 
3 585 570 565 
3 583 581 585 
3 583 585 586 
3 586 585 565 
3 586 565 564 
3 587 588 589 
3 587 589 590 
3 591 592 588 
3 591 588 587 
3 588 593 594 
3 588 594 589 
3 592 595 593 
3 592 593 588 
3 590 596 597 
3 590 597 587 
3 598 591 587 
3 598 587 597 
3 597 599 591 
3 597 591 598 
3 599 597 596 
3 599 596 590 
3 600 601 595 
3 600 595 592 
3 589 594 601 
3 589 601 600 
3 599 600 592 
3 599 592 591 
3 590 589 600 
3 590 600 599 
3 594 602 603 
3 594 603 595 
3 593 604 594 
3 594 605 601 
3 606 607 608 
3 608 609 610 
3 608 611 612 
3 608 612 613 
3 614 615 616 
3 614 616 617 
3 618 619 615 
3 618 615 614 
3 615 606 608 
3 615 608 616 
3 619 613 606 
3 619 606 615 
3 617 620 621 
3 617 621 614 
3 622 618 614 
3 622 614 621 
3 621 623 618 
3 621 618 622 
3 623 621 620 
3 623 620 617 
3 624 610 613 
3 624 613 619 
3 616 608 610 
3 616 610 624 
3 623 624 619 
3 623 619 618 
3 617 616 624 
3 617 624 623 
3 625 626 627 
3 625 627 628 
3 626 625 629 
3 626 629 630 
3 631 632 630 
3 631 630 629 
3 632 631 633 
3 632 633 634 
3 628 627 634 
3 628 634 633 
3 631 635 636 
3 631 636 637 
3 638 639 637 
3 638 637 636 
3 639 638 640 
3 639 640 641 
3 642 643 641 
3 642 641 640 
3 643 642 635 
3 643 635 631 
3 644 645 646 
3 644 646 647 
3 648 629 647 
3 648 647 646 
3 629 648 649 
3 629 649 650 
3 651 652 650 
3 651 650 649 
3 652 651 645 
3 652 645 644 
3 653 654 655 
3 653 655 656 
3 657 658 656 
3 657 656 655 
3 658 657 659 
3 658 659 660 
3 661 662 660 
3 661 660 659 
3 662 661 654 
3 662 654 653 
3 663 664 665 
3 663 665 666 
3 667 668 666 
3 667 666 665 
3 668 667 669 
3 668 669 670 
3 671 672 670 
3 671 670 669 
3 672 671 664 
3 672 664 663 
3 673 674 675 
3 673 675 676 
3 674 673 663 
3 674 663 677 
3 660 678 677 
3 660 677 663 
3 678 660 679 
3 678 679 680 
3 676 675 680 
3 676 680 679 
3 681 682 683 
3 681 683 684 
3 685 681 684 
3 685 684 686 
3 687 685 686 
3 687 686 688 
3 689 687 688 
3 689 688 690 
3 691 689 690 
3 691 690 692 
3 691 692 693 
3 694 683 682 
3 694 682 695 
3 696 694 695 
3 696 695 697 
3 698 696 697 
3 698 697 699 
3 700 698 699 
3 700 699 701 
3 702 700 701 
3 702 701 703 
3 704 702 703 
3 705 706 682 
3 705 682 681 
3 707 705 681 
3 707 681 685 
3 708 707 685 
3 708 685 687 
3 709 708 687 
3 709 687 689 
3 710 709 689 
3 710 689 691 
3 710 691 693 
3 695 682 706 
3 695 706 711 
3 697 695 711 
3 697 711 712 
3 699 697 712 
3 699 712 713 
3 701 699 713 
3 701 713 714 
3 703 701 714 
3 703 714 715 
3 704 703 715 
3 716 717 706 
3 716 706 705 
3 718 716 705 
3 718 705 707 
3 719 718 707 
3 719 707 708 
3 720 719 708 
3 720 708 709 
3 721 720 709 
3 721 709 710 
3 721 710 693 
3 711 706 717 
3 711 717 722 
3 712 711 722 
3 712 722 723 
3 713 712 723 
3 713 723 724 
3 714 713 724 
3 714 724 725 
3 715 714 725 
3 715 725 726 
3 704 715 726 
3 727 728 717 
3 727 717 716 
3 729 727 716 
3 729 716 718 
3 730 729 718 
3 730 718 719 
3 731 730 719 
3 731 719 720 
3 732 731 720 
3 732 720 721 
3 732 721 693 
3 722 717 728 
3 722 728 733 
3 723 722 733 
3 723 733 734 
3 724 723 734 
3 724 734 735 
3 725 724 735 
3 725 735 736 
3 726 725 736 
3 726 736 737 
3 704 726 737 
3 738 739 728 
3 738 728 727 
3 740 738 727 
3 740 727 729 
3 741 740 729 
3 741 729 730 
3 742 741 730 
3 742 730 731 
3 743 742 731 
3 743 731 732 
3 743 732 693 
3 733 728 739 
3 733 739 744 
3 734 733 744 
3 734 744 745 
3 735 734 745 
3 735 745 746 
3 736 735 746 
3 736 746 747 
3 737 736 747 
3 737 747 748 
3 704 737 748 
3 684 683 739 
3 684 739 738 
3 686 684 738 
3 686 738 740 
3 688 686 740 
3 688 740 741 
3 690 688 741 
3 690 741 742 
3 692 690 742 
3 692 742 743 
3 692 743 693 
3 744 739 683 
3 744 683 694 
3 745 744 694 
3 745 694 696 
3 746 745 696 
3 746 696 698 
3 747 746 698 
3 747 698 700 
3 748 747 700 
3 748 700 702 
3 704 748 702 
3 749 750 751 
3 751 750 752 
3 752 750 749 
3 749 753 754 
3 754 753 755 
3 755 753 749 
3 756 94 142 
3 756 142 124 
3 94 756 757 
3 94 757 138 
3 77 138 757 
3 757 140 77 
3 756 96 140 
3 756 140 757 
3 96 756 124 
3 96 124 144 
