ply
format ascii 1.0
element vertex 772
property float32 x
property float32 y
property float32 z
element face 1404
property list uint8 int32 vertex_indices
end_header
-18 17 -128 
-8 17 -128 
-9 16 0 
-23 16 0 
-14 1 0 
-9 2 -128 
0 1 0 
0 2 -128 
23 16 0 
9 16 0 
8 17 -128 
18 17 -128 
9 2 -128 
14 1 0 
-21.4079 30.2379 -112 
-25.4079 30.2379 -112 
-23.3155 29.2855 -128 
-17.4866 32.6606 -128 
-23.3619 31.481 -96 
-27.3619 31.481 -96 
-25.173 32.9841 -80 
-29.173 32.9841 -80 
-26.8558 34.7799 -64 
-30.8558 34.7799 -64 
-28.403 36.8433 -48 
-32.403 36.8433 -48 
-29.8254 39.2038 -32 
-33.8254 39.2038 -32 
-31.1132 41.8372 -16 
-35.1132 41.8372 -16 
-27 46.625 0 
-36 44 0 
17.4866 32.6606 -128 
23.3155 29.2855 -128 
25.4079 30.2379 -112 
21.4079 30.2379 -112 
27.3619 31.481 -96 
23.3619 31.481 -96 
29.173 32.9841 -80 
25.173 32.9841 -80 
30.8558 34.7799 -64 
26.8558 34.7799 -64 
32.403 36.8433 -48 
28.403 36.8433 -48 
33.8254 39.2038 -32 
29.8254 39.2038 -32 
35.1132 41.8372 -16 
31.1132 41.8372 -16 
36 44 0 
27 46.625 0 
-16 28 -176 
-12 29.75 -176 
-11.6578 35.0714 -128 
-8 31 -176 
-5.82888 36.5178 -128 
-4 31.75 -176 
0 37 -128 
0 32 -176 
12 29.75 -176 
16 28 -176 
8 31 -176 
11.6578 35.0714 -128 
4 31.75 -176 
5.82888 36.5178 -128 
-9 49.625 0 
-8.83204 49.2791 16 
0 49.6445 16 
0 50 0 
-18 48.5 0 
-17.6641 48.1826 16 
-26.4961 46.3552 16 
-35.3282 43.7969 16 
-33.5622 43.3594 32 
-25.1717 45.7742 32 
-16.7811 47.499 32 
-8.39056 48.5339 32 
0 48.8789 32 
-7.63716 47.363 48 
0 47.6758 48 
-15.2743 46.4248 48 
-22.9115 44.8611 48 
-30.5487 42.6719 48 
-26.345 41.7344 64 
-19.7587 43.616 64 
-13.1725 44.96 64 
-6.58624 45.7664 64 
0 46.0352 64 
-5.2474 43.7439 80 
0 43.957 80 
-10.4948 43.1045 80 
-15.7422 42.0388 80 
-20.9896 40.5469 80 
-14.3482 39.1094 96 
-10.7611 40.1296 96 
-7.17409 40.8584 96 
-3.58704 41.2957 96 
0 41.4414 96 
-1.65316 38.4216 112 
0 38.4883 112 
-3.30632 38.2217 112 
-4.95948 37.8884 112 
-6.61264 37.4219 112 
0 36 124 
8.83204 49.2791 16 
9 49.625 0 
17.6641 48.1826 16 
18 48.5 0 
26.4961 46.3552 16 
35.3282 43.7969 16 
25.1717 45.7742 32 
33.5622 43.3594 32 
16.7811 47.499 32 
8.39056 48.5339 32 
7.63716 47.363 48 
15.2743 46.4248 48 
22.9115 44.8611 48 
30.5487 42.6719 48 
19.7587 43.616 64 
26.345 41.7344 64 
13.1725 44.96 64 
6.58624 45.7664 64 
5.2474 43.7439 80 
10.4948 43.1045 80 
15.7422 42.0388 80 
20.9896 40.5469 80 
10.7611 40.1296 96 
14.3482 39.1094 96 
7.17409 40.8584 96 
3.58704 41.2957 96 
1.65316 38.4216 112 
3.30632 38.2217 112 
4.95948 37.8884 112 
6.61264 37.4219 112 
-92 34 40 
-95.3468 34.5901 36.4 
-88.6532 33.4099 36.4 
-96.5025 34.7939 32.8 
-87.4975 33.2061 32.8 
-98.183 35.0902 25.6 
-85.817 32.9098 25.6 
-99.1161 35.2548 18.4 
-84.8839 32.7452 18.4 
-99.4444 35.3127 11.2 
-84.5556 32.6873 11.2 
-99.0552 35.244 4 
-84.9448 32.756 4 
-97.949 35.049 -3.2 
-86.051 32.951 -3.2 
-96.4104 34.7777 -10.4 
-87.5896 33.2223 -10.4 
-94.6944 34.4751 -17.6 
-89.3056 33.5249 -17.6 
-92 34 -32 
-99.6116 7.92561 -5.544 
-98.4743 7.72507 -10.316 
-98.8261 -0.336302 -2 
-99.3028 -0.252254 0 
-96.8027 25.708 35.365 
-93.5628 25.1367 38.85 
-98.0239 16.7845 32.0575 
-95.1257 16.2735 35.175 
-98.9067 7.80131 25.474 
-96.6885 7.41019 27.86 
-97.9215 25.9053 31.88 
-99.0247 16.961 28.94 
-99.6727 7.93638 23.088 
-99.5483 26.1921 24.91 
-100.48 17.2176 22.705 
-100.786 8.13277 18.316 
-100.452 26.3514 17.94 
-101.288 17.3601 16.47 
-101.405 8.24182 13.544 
-100.769 26.4074 10.97 
-101.572 17.4102 10.235 
-101.623 8.28019 8.772 
-100.393 26.341 4 
-101.235 17.3507 4 
-101.365 8.2347 4 
-99.3218 26.1522 -2.97 
-100.277 17.1818 -2.235 
-100.631 8.10543 -0.772 
-97.8323 25.8895 -9.94 
-98.9449 16.9469 -8.47 
-96.1712 25.5966 -16.91 
-97.459 16.6849 -14.705 
-93.5628 25.1367 -30.85 
-95.1257 16.2735 -27.175 
-96.6885 7.41019 -19.86 
-98.0777 -0.468273 -6 
-99.7302 -0.176893 2 
-99.0074 -0.30435 13 
-98.0777 -0.468273 14 
-99.3284 -0.24774 12 
-99.7952 -0.16543 10 
-100.054 -0.119726 8 
-100.146 -0.103649 6 
-100.037 -0.122713 4 
-96.8526 -0.684292 0 
-97.3293 -0.600245 -2 
-94.9027 7.09531 -10.316 
-93.7654 6.89477 -5.544 
-90.323 24.5655 35.365 
-92.2275 15.7624 32.0575 
-94.4703 7.01907 25.474 
-89.2041 24.3682 31.88 
-91.2266 15.5859 28.94 
-93.7043 6.884 23.088 
-87.5773 24.0813 24.91 
-89.7713 15.3293 22.705 
-92.5905 6.68761 18.316 
-86.674 23.922 17.94 
-88.9633 15.1869 16.47 
-91.9721 6.57856 13.544 
-86.3562 23.866 10.97 
-88.679 15.1367 10.235 
-91.7545 6.54019 8.772 
-86.733 23.9324 4 
-89.0161 15.1962 4 
-92.0125 6.58569 4 
-87.8038 24.1213 -2.97 
-89.974 15.3651 -2.235 
-92.7456 6.71495 -0.772 
-89.2934 24.3839 -9.94 
-91.3064 15.6 -8.47 
-90.9545 24.6768 -16.91 
-92.7924 15.862 -14.705 
-96.4252 -0.759653 2 
-97.148 -0.632198 13 
-96.827 -0.688807 12 
-96.3602 -0.771116 10 
-96.101 -0.81682 8 
-96.0098 -0.832899 6 
-96.1179 -0.813835 4 
95.3468 34.5901 36.4 
88.6532 33.4099 36.4 
92 34 40 
96.5025 34.7939 32.8 
87.4975 33.2061 32.8 
98.183 35.0902 25.6 
85.817 32.9098 25.6 
99.1161 35.2548 18.4 
84.8839 32.7452 18.4 
99.4444 35.3127 11.2 
84.5556 32.6873 11.2 
99.0552 35.244 4 
84.9448 32.756 4 
97.949 35.049 -3.2 
86.051 32.951 -3.2 
96.4103 34.7777 -10.4 
87.5896 33.2223 -10.4 
94.6944 34.4751 -17.6 
89.3056 33.5249 -17.6 
92 34 -32 
93.7654 6.89477 -5.544 
94.9027 7.09531 -10.316 
97.3292 -0.600243 -2 
96.8526 -0.684288 0 
90.323 24.5655 35.365 
93.5628 25.1367 38.85 
92.2275 15.7624 32.0575 
95.1257 16.2735 35.175 
94.4703 7.01907 25.474 
96.6885 7.41019 27.86 
89.2041 24.3682 31.88 
91.2266 15.5859 28.94 
93.7043 6.884 23.088 
87.5773 24.0813 24.91 
89.7713 15.3294 22.705 
92.5905 6.68761 18.316 
86.674 23.922 17.94 
88.9633 15.1869 16.47 
91.9721 6.57856 13.544 
86.3562 23.866 10.97 
88.679 15.1367 10.235 
91.7545 6.54019 8.772 
86.733 23.9324 4 
89.0161 15.1962 4 
92.0125 6.58569 4 
87.8038 24.1213 -2.97 
89.974 15.3651 -2.235 
92.7456 6.71496 -0.772 
89.2934 24.3839 -9.94 
91.3064 15.6 -8.47 
90.9545 24.6768 -16.91 
92.7924 15.862 -14.705 
93.5628 25.1367 -30.85 
95.1257 16.2735 -27.175 
96.6885 7.41019 -19.86 
98.0777 -0.468269 -6 
96.4252 -0.759651 2 
97.148 -0.632195 13 
98.0777 -0.468269 14 
96.827 -0.688805 12 
96.3602 -0.771118 10 
96.101 -0.816818 8 
96.0098 -0.832893 6 
96.1179 -0.813835 4 
99.3028 -0.252251 0 
98.8261 -0.336304 -2 
98.4743 7.72507 -10.316 
99.6116 7.92561 -5.544 
96.8027 25.708 35.365 
98.0239 16.7845 32.0575 
98.9067 7.80132 25.474 
97.9215 25.9053 31.88 
99.0247 16.961 28.94 
99.6727 7.93638 23.088 
99.5483 26.1921 24.91 
100.48 17.2176 22.705 
100.786 8.13277 18.316 
100.452 26.3514 17.94 
101.288 17.3601 16.47 
101.405 8.24182 13.544 
100.769 26.4074 10.97 
101.572 17.4102 10.235 
101.623 8.28019 8.772 
100.393 26.341 4 
101.235 17.3507 4 
101.365 8.2347 4 
99.3218 26.1522 -2.97 
100.277 17.1818 -2.235 
100.631 8.10543 -0.772 
97.8323 25.8895 -9.94 
98.9449 16.9469 -8.47 
96.1712 25.5967 -16.91 
97.459 16.6849 -14.705 
99.7302 -0.176895 2 
99.0073 -0.304344 13 
99.3284 -0.247742 12 
99.7952 -0.165428 10 
100.054 -0.119728 8 
100.146 -0.103645 6 
100.037 -0.122711 4 
-17.0372 23.1568 -160 
-18.6392 28.1724 -160 
-14 21.4375 -176 
-19.7851 24.7123 -144 
-21.0608 28.5835 -144 
-22.2438 26.1041 -128 
-24.4132 27.3321 -112 
-26.2934 28.3964 -96 
-27.8843 29.297 -80 
-29.186 30.0338 -64 
-30.1983 30.6069 -48 
-30.9215 31.0163 -32 
-31.3554 31.2619 -16 
-31.5 31.3438 0 
-12 15.75 -176 
-14.6033 16.5527 -160 
-10 10.9375 -176 
-12.1694 10.9646 -160 
-8 7 -176 
-9.73554 6.39256 -160 
-6 3.9375 -176 
-7.30165 2.83652 -160 
-4 1.75 -176 
-4.86777 0.296488 -160 
-2 0.4375 -176 
-2.43388 -1.22753 -160 
0 0 -176 
0 -1.73554 -160 
2.84217e-14 -3.30579 -144 
-2.82645 -2.73399 -144 
-5.65289 -1.0186 -144 
-8.47934 1.84039 -144 
-11.3058 5.84298 -144 
-14.1322 10.9892 -144 
-16.9587 17.2789 -144 
-19.0661 17.9287 -128 
-15.8884 11.0111 -128 
-12.7107 5.35124 -128 
-9.53306 0.949122 -128 
-6.35537 -2.19525 -128 
-3.17769 -4.08187 -128 
0 -4.71074 -128 
0 -5.95041 -112 
-3.4876 -5.27118 -112 
-6.97521 -3.23347 -112 
-10.4628 0.162707 -112 
-13.9504 4.91736 -112 
-17.438 11.0305 -112 
-20.9256 18.5021 -112 
-22.5372 18.999 -96 
-18.781 11.0473 -96 
-15.0248 4.54132 -96 
-11.2686 -0.518853 -96 
-7.5124 -4.13326 -96 
-3.7562 -6.30191 -96 
0 -7.02479 -96 
0 -7.93388 -80 
-3.98347 -7.17407 -80 
-7.96694 -4.89463 -80 
-11.9504 -1.09556 -80 
-15.9339 4.22314 -80 
-19.9174 11.0615 -80 
-23.9008 19.4194 -80 
-25.0165 19.7634 -64 
-20.8471 11.0731 -64 
-16.6777 3.96281 -64 
-12.5083 -1.56741 -64 
-8.33884 -5.51756 -64 
-4.16942 -7.88765 -64 
0 -8.67769 -64 
0 -9.2562 -48 
-4.31405 -8.44267 -48 
-8.6281 -6.00207 -48 
-12.9421 -1.9344 -48 
-17.2562 3.76033 -48 
-21.5702 11.0821 -48 
-25.8843 20.031 -48 
-26.5041 20.2221 -32 
-22.0868 11.0886 -32 
-17.6694 3.6157 -32 
-13.2521 -2.19654 -32 
-8.83471 -6.34814 -32 
-4.41736 -8.8391 -32 
0 -9.66942 -32 
0 -9.91736 -16 
-4.47934 -9.07696 -16 
-8.95868 -6.55579 -16 
-13.438 -2.35382 -16 
-17.9174 3.52893 -16 
-22.3967 11.0925 -16 
-26.876 20.3368 -16 
-27 20.375 0 
-22.5 11.0938 0 
-18 3.5 0 
-13.5 -2.40625 0 
-9 -6.625 0 
-4.5 -9.15625 0 
0 -10 0 
0 -9.85714 16 
-4.41602 -9.0188 16 
-8.83204 -6.50377 16 
-13.2481 -2.31205 16 
-17.6641 3.55636 16 
-22.0801 11.1015 16 
-26.4961 20.3232 16 
-30.9122 31.2217 16 
-29.367 30.9872 32 
-25.1717 20.2646 32 
-20.9764 11.1917 32 
-16.7811 3.76842 32 
-12.5858 -2.00527 32 
-8.39056 -6.12932 32 
-4.19528 -8.60376 32 
0 -9.42857 32 
0 -8.71429 48 
-3.81858 -7.91138 48 
-7.63716 -5.50265 48 
-11.4557 -1.48811 48 
-15.2743 4.13225 48 
-19.0929 11.3584 48 
-22.9115 20.1904 48 
-26.7301 30.6282 48 
-23.0519 30.1448 64 
-19.7587 20.1006 64 
-16.4656 11.6016 64 
-13.1725 4.64788 64 
-9.87937 -0.760568 64 
-6.58624 -4.62374 64 
-3.29312 -6.94165 64 
0 -7.71429 64 
0 -6.42857 80 
-2.6237 -5.69458 80 
-5.2474 -3.49261 80 
-7.8711 0.177351 80 
-10.4948 5.31529 80 
-13.1185 11.9212 80 
-15.7422 19.9951 80 
-18.3659 29.537 80 
-12.5547 28.8047 96 
-10.7611 19.874 96 
-8.96761 12.3173 96 
-7.17409 6.13449 96 
-5.38057 1.32565 96 
-3.58704 -2.10924 96 
-1.79352 -4.17017 96 
0 -4.85714 96 
0 -3 112 
-0.82658 -2.36841 112 
-1.65316 -0.473633 112 
-2.47974 2.68433 112 
-3.30632 7.10547 112 
-4.1329 12.7898 112 
-4.95948 19.7373 112 
-5.78606 27.948 112 
0 27.0472 123 
0 36.08 124 
0 19.2188 122 
0 12.5947 121 
0 7.175 120 
0 2.95969 119 
0 -0.05125 118 
0 -1.85781 117 
0 -2.46 116 
-18.625 16.875 -112 
-19.25 16.75 -96 
-19.875 16.625 -80 
-20.5 16.5 -64 
-21.125 16.375 -48 
-21.75 16.25 -32 
-22.375 16.125 -16 
18.625 16.875 -112 
19.25 16.75 -96 
19.875 16.625 -80 
20.5 16.5 -64 
21.125 16.375 -48 
21.75 16.25 -32 
22.375 16.125 -16 
-20 68 -80 
-20 68 -88 
-24.2675 32.2326 -88 
20 68 -80 
20 68 -88 
24.2675 32.2326 -88 
30.8435 27.9877 2 
31.1565 26.0123 2 
94.6244 36.0683 2 
94.3114 38.0436 2 
94.3114 38.0436 0 
94.6244 36.0683 0 
31.1565 26.0123 0 
30.8435 27.9877 0 
93.9312 38.0024 2 
94.0688 39.9976 2 
36.0688 43.9976 2 
35.9312 42.0024 2 
35.9312 42.0024 0 
36.0688 43.9976 0 
94.0688 39.9976 0 
93.9312 38.0024 0 
94.7098 35.8871 2 
96.6794 36.2344 2 
95.9848 40.1736 2 
94.0152 39.8264 2 
94.0152 39.8264 0 
95.9848 40.1736 0 
96.6794 36.2344 0 
94.7098 35.8871 0 
91.691 37.2204 34 
91.8286 39.2157 34 
33.8286 43.2157 34 
33.691 41.2204 34 
33.691 41.2204 32 
33.8286 43.2157 32 
91.8286 39.2157 32 
91.691 37.2204 32 
28.6033 27.2057 34 
28.9163 25.2304 34 
92.3842 35.2863 34 
92.0713 37.2617 34 
92.0713 37.2617 32 
92.3842 35.2863 32 
28.9163 25.2304 32 
28.6033 27.2057 32 
92.4696 35.1052 34 
94.4392 35.4525 34 
93.7446 39.3917 34 
91.775 39.0444 34 
91.775 39.0444 32 
93.7446 39.3917 32 
94.4392 35.4525 32 
92.4696 35.1052 32 
-94.4392 35.4525 34 
-92.4696 35.1052 34 
-91.775 39.0444 34 
-93.7446 39.3917 34 
-93.7446 39.3917 32 
-91.775 39.0444 32 
-92.4696 35.1052 32 
-94.4392 35.4525 32 
-28.9163 25.2304 34 
-28.6033 27.2057 34 
-92.0713 37.2617 34 
-92.3842 35.2863 34 
-92.3842 35.2863 32 
-92.0713 37.2617 32 
-28.6033 27.2057 32 
-28.9163 25.2304 32 
-91.8286 39.2157 34 
-91.691 37.2204 34 
-33.691 41.2204 34 
-33.8286 43.2157 34 
-33.8286 43.2157 32 
-33.691 41.2204 32 
-91.691 37.2204 32 
-91.8286 39.2157 32 
-96.6794 36.2344 2 
-94.7098 35.8871 2 
-94.0152 39.8264 2 
-95.9848 40.1736 2 
-95.9848 40.1736 0 
-94.0152 39.8264 0 
-94.7098 35.8871 0 
-96.6794 36.2344 0 
-94.0688 39.9976 2 
-93.9312 38.0024 2 
-35.9312 42.0024 2 
-36.0688 43.9976 2 
-36.0688 43.9976 0 
-35.9312 42.0024 0 
-93.9312 38.0024 0 
-94.0688 39.9976 0 
-31.1565 26.0123 2 
-30.8435 27.9877 2 
-94.3114 38.0436 2 
-94.6244 36.0683 2 
-94.6244 36.0683 0 
-94.3114 38.0436 0 
-30.8435 27.9877 0 
-31.1565 26.0123 0 
-9.53305 0.949122 -128 
-5.82887 36.5178 -128 
-6.35538 -2.19525 -128 
19.0661 17.9287 -128 
15.8884 11.0111 -128 
12.7107 5.35124 -128 
9.53305 0.949122 -128 
5.82887 36.5178 -128 
6.35538 -2.19525 -128 
3.17769 -4.08187 -128 
31.5 31.3438 0 
27 20.375 0 
22.5 11.0938 0 
18 3.5 0 
13.5 -2.40625 0 
9 -6.625 0 
4.5 -9.15625 0 
14 21.4375 -176 
12 15.75 -176 
10 10.9375 -176 
8 7 -176 
6 3.9375 -176 
4 1.75 -176 
2 0.4375 -176 
0 6 -180 
0 6 -196 
0 38 -184 
0 38 -180 
0 -30 -180 
0 -30 -192 
-2 0 -4 
-1 324 -3.5 
0 324 -4 
0 0 -5 
-2 0 -2 
-1 324 -2.5 
0 0 -1 
0 324 -2 
1 324 -3.5 
2 0 -4 
1 324 -2.5 
2 0 -2 
18.6392 28.1724 -160 
17.0372 23.1568 -160 
21.0608 28.5835 -144 
19.7851 24.7123 -144 
22.2438 26.1041 -128 
24.4132 27.3321 -112 
26.2934 28.3964 -96 
27.8843 29.297 -80 
29.186 30.0338 -64 
30.1983 30.6069 -48 
30.9215 31.0163 -32 
31.3554 31.2619 -16 
14.6033 16.5527 -160 
12.1694 10.9646 -160 
9.73554 6.39256 -160 
7.30165 2.83652 -160 
4.86777 0.296488 -160 
2.43388 -1.22753 -160 
2.82645 -2.73399 -144 
-2.84217e-14 -3.30579 -144 
5.65289 -1.0186 -144 
8.47934 1.84039 -144 
11.3058 5.84298 -144 
14.1322 10.9892 -144 
16.9587 17.2789 -144 
9.53306 0.949122 -128 
6.35537 -2.19525 -128 
3.4876 -5.27118 -112 
6.97521 -3.23347 -112 
10.4628 0.162707 -112 
13.9504 4.91736 -112 
17.438 11.0305 -112 
20.9256 18.5021 -112 
22.5372 18.999 -96 
18.781 11.0473 -96 
15.0248 4.54132 -96 
11.2686 -0.518853 -96 
7.5124 -4.13326 -96 
3.7562 -6.30191 -96 
3.98347 -7.17407 -80 
7.96694 -4.89463 -80 
11.9504 -1.09556 -80 
15.9339 4.22314 -80 
19.9174 11.0615 -80 
23.9008 19.4194 -80 
25.0165 19.7634 -64 
20.8471 11.0731 -64 
16.6777 3.96281 -64 
12.5083 -1.56741 -64 
8.33884 -5.51756 -64 
4.16942 -7.88765 -64 
4.31405 -8.44267 -48 
8.6281 -6.00207 -48 
12.9421 -1.9344 -48 
17.2562 3.76033 -48 
21.5702 11.0821 -48 
25.8843 20.031 -48 
26.5041 20.2221 -32 
22.0868 11.0886 -32 
17.6694 3.6157 -32 
13.2521 -2.19654 -32 
8.83471 -6.34814 -32 
4.41736 -8.8391 -32 
4.47934 -9.07696 -16 
8.95868 -6.55579 -16 
13.438 -2.35382 -16 
17.9174 3.52893 -16 
22.3967 11.0925 -16 
26.876 20.3368 -16 
4.41602 -9.0188 16 
8.83204 -6.50377 16 
13.2481 -2.31205 16 
17.6641 3.55636 16 
22.0801 11.1015 16 
26.4961 20.3232 16 
30.9122 31.2217 16 
29.367 30.9872 32 
25.1717 20.2646 32 
20.9764 11.1917 32 
16.7811 3.76842 32 
12.5858 -2.00527 32 
8.39056 -6.12932 32 
4.19528 -8.60376 32 
3.81858 -7.91138 48 
7.63716 -5.50265 48 
11.4557 -1.48811 48 
15.2743 4.13225 48 
19.0929 11.3584 48 
22.9115 20.1904 48 
26.7301 30.6282 48 
23.0519 30.1448 64 
19.7587 20.1006 64 
16.4656 11.6016 64 
13.1725 4.64788 64 
9.87937 -0.760568 64 
6.58624 -4.62374 64 
3.29312 -6.94165 64 
2.6237 -5.69458 80 
5.2474 -3.49261 80 
7.8711 0.177351 80 
10.4948 5.31529 80 
13.1185 11.9212 80 
15.7422 19.9951 80 
18.3659 29.537 80 
12.5547 28.8047 96 
10.7611 19.874 96 
8.96761 12.3173 96 
7.17409 6.13449 96 
5.38057 1.32565 96 
3.58704 -2.10924 96 
1.79352 -4.17017 96 
0.82658 -2.36841 112 
1.65316 -0.473633 112 
2.47974 2.68433 112 
3.30632 7.10547 112 
4.1329 12.7898 112 
4.95948 19.7373 112 
5.78606 27.948 112 
3 0 1 2 
3 0 2 3 
3 4 2 1 
3 4 1 5 
3 6 4 5 
3 6 5 7 
3 8 9 10 
3 8 10 11 
3 12 10 9 
3 12 9 13 
3 7 12 13 
3 7 13 6 
3 14 15 16 
3 14 16 17 
3 18 19 15 
3 18 15 14 
3 19 18 20 
3 19 20 21 
3 22 23 21 
3 22 21 20 
3 23 22 24 
3 23 24 25 
3 25 24 26 
3 25 26 27 
3 28 29 27 
3 28 27 26 
3 29 28 30 
3 29 30 31 
3 32 33 34 
3 32 34 35 
3 35 34 36 
3 35 36 37 
3 38 39 37 
3 38 37 36 
3 39 38 40 
3 39 40 41 
3 42 43 41 
3 42 41 40 
3 44 45 43 
3 44 43 42 
3 45 44 46 
3 45 46 47 
3 48 49 47 
3 48 47 46 
3 50 16 17 
3 50 17 51 
3 51 17 52 
3 51 52 53 
3 54 55 53 
3 54 53 52 
3 55 54 56 
3 55 56 57 
3 58 32 33 
3 58 33 59 
3 60 61 32 
3 60 32 58 
3 61 60 62 
3 61 62 63 
3 57 56 63 
3 57 63 62 
3 64 65 66 
3 64 66 67 
3 65 64 68 
3 65 68 69 
3 30 70 69 
3 30 69 68 
3 70 30 31 
3 70 31 71 
3 71 72 73 
3 71 73 70 
3 74 69 70 
3 74 70 73 
3 69 74 75 
3 69 75 65 
3 76 66 65 
3 76 65 75 
3 75 77 78 
3 75 78 76 
3 77 75 74 
3 77 74 79 
3 73 80 79 
3 73 79 74 
3 80 73 72 
3 80 72 81 
3 81 82 83 
3 81 83 80 
3 84 79 80 
3 84 80 83 
3 79 84 85 
3 79 85 77 
3 86 78 77 
3 86 77 85 
3 85 87 88 
3 85 88 86 
3 87 85 84 
3 87 84 89 
3 83 90 89 
3 83 89 84 
3 90 83 82 
3 90 82 91 
3 91 92 93 
3 91 93 90 
3 94 89 90 
3 94 90 93 
3 89 94 95 
3 89 95 87 
3 96 88 87 
3 96 87 95 
3 95 97 98 
3 95 98 96 
3 97 95 94 
3 97 94 99 
3 93 100 99 
3 93 99 94 
3 100 93 92 
3 100 92 101 
3 102 100 101 
3 102 99 100 
3 102 98 97 
3 67 66 103 
3 67 103 104 
3 105 106 104 
3 105 104 103 
3 106 105 107 
3 106 107 49 
3 108 48 49 
3 108 49 107 
3 107 109 110 
3 107 110 108 
3 109 107 105 
3 109 105 111 
3 103 112 111 
3 103 111 105 
3 112 103 66 
3 112 66 76 
3 76 78 113 
3 76 113 112 
3 114 111 112 
3 114 112 113 
3 111 114 115 
3 111 115 109 
3 116 110 109 
3 116 109 115 
3 115 117 118 
3 115 118 116 
3 117 115 114 
3 117 114 119 
3 113 120 119 
3 113 119 114 
3 120 113 78 
3 120 78 86 
3 86 88 121 
3 86 121 120 
3 122 119 120 
3 122 120 121 
3 119 122 123 
3 119 123 117 
3 124 118 117 
3 124 117 123 
3 123 125 126 
3 123 126 124 
3 125 123 122 
3 125 122 127 
3 121 128 127 
3 121 127 122 
3 128 121 88 
3 128 88 96 
3 96 98 129 
3 96 129 128 
3 130 127 128 
3 130 128 129 
3 127 130 131 
3 127 131 125 
3 132 126 125 
3 132 125 131 
3 132 131 102 
3 131 130 102 
3 129 98 102 
3 133 134 135 
3 136 137 135 
3 136 135 134 
3 137 136 138 
3 137 138 139 
3 140 141 139 
3 140 139 138 
3 141 140 142 
3 141 142 143 
3 144 145 143 
3 144 143 142 
3 146 147 145 
3 146 145 144 
3 147 146 148 
3 147 148 149 
3 150 151 149 
3 150 149 148 
3 151 150 152 
3 153 154 155 
3 153 155 156 
3 133 134 157 
3 133 157 158 
3 158 157 159 
3 158 159 160 
3 161 162 160 
3 161 160 159 
3 134 136 163 
3 134 163 157 
3 164 159 157 
3 164 157 163 
3 159 164 165 
3 159 165 161 
3 136 138 166 
3 136 166 163 
3 167 164 163 
3 167 163 166 
3 164 167 168 
3 164 168 165 
3 138 140 169 
3 138 169 166 
3 170 167 166 
3 170 166 169 
3 167 170 171 
3 167 171 168 
3 140 142 172 
3 140 172 169 
3 173 170 169 
3 173 169 172 
3 170 173 174 
3 170 174 171 
3 142 144 175 
3 142 175 172 
3 172 175 176 
3 172 176 173 
3 177 174 173 
3 177 173 176 
3 144 146 178 
3 144 178 175 
3 179 176 175 
3 179 175 178 
3 176 179 180 
3 176 180 177 
3 146 148 181 
3 146 181 178 
3 182 179 178 
3 182 178 181 
3 179 182 153 
3 179 153 180 
3 148 150 183 
3 148 183 181 
3 184 182 181 
3 184 181 183 
3 182 184 154 
3 182 154 153 
3 185 183 150 
3 185 150 152 
3 183 185 186 
3 183 186 184 
3 187 154 184 
3 187 184 186 
3 154 187 188 
3 154 188 155 
3 189 180 153 
3 189 153 156 
3 161 190 191 
3 161 191 162 
3 190 161 165 
3 190 165 192 
3 168 193 192 
3 168 192 165 
3 193 168 171 
3 193 171 194 
3 174 195 194 
3 174 194 171 
3 195 174 177 
3 195 177 196 
3 180 189 196 
3 180 196 177 
3 197 198 199 
3 197 199 200 
3 158 201 135 
3 158 135 133 
3 160 202 201 
3 160 201 158 
3 202 160 162 
3 202 162 203 
3 201 204 137 
3 201 137 135 
3 204 201 202 
3 204 202 205 
3 203 206 205 
3 203 205 202 
3 204 207 139 
3 204 139 137 
3 207 204 205 
3 207 205 208 
3 206 209 208 
3 206 208 205 
3 207 210 141 
3 207 141 139 
3 210 207 208 
3 210 208 211 
3 209 212 211 
3 209 211 208 
3 210 213 143 
3 210 143 141 
3 213 210 211 
3 213 211 214 
3 212 215 214 
3 212 214 211 
3 213 216 145 
3 213 145 143 
3 214 217 216 
3 214 216 213 
3 217 214 215 
3 217 215 218 
3 216 219 147 
3 216 147 145 
3 219 216 217 
3 219 217 220 
3 218 221 220 
3 218 220 217 
3 219 222 149 
3 219 149 147 
3 222 219 220 
3 222 220 223 
3 221 200 223 
3 221 223 220 
3 222 224 151 
3 222 151 149 
3 224 222 223 
3 224 223 225 
3 200 199 225 
3 200 225 223 
3 152 151 224 
3 152 224 185 
3 225 186 185 
3 225 185 224 
3 186 225 199 
3 186 199 187 
3 198 188 187 
3 198 187 199 
3 197 200 221 
3 197 221 226 
3 162 191 227 
3 162 227 203 
3 228 206 203 
3 228 203 227 
3 206 228 229 
3 206 229 209 
3 230 212 209 
3 230 209 229 
3 212 230 231 
3 212 231 215 
3 232 218 215 
3 232 215 231 
3 218 232 226 
3 218 226 221 
3 233 234 235 
3 234 233 236 
3 234 236 237 
3 238 239 237 
3 238 237 236 
3 239 238 240 
3 239 240 241 
3 242 243 241 
3 242 241 240 
3 243 242 244 
3 243 244 245 
3 245 244 246 
3 245 246 247 
3 248 249 247 
3 248 247 246 
3 249 248 250 
3 249 250 251 
3 252 251 250 
3 253 254 255 
3 253 255 256 
3 235 234 257 
3 235 257 258 
3 258 257 259 
3 258 259 260 
3 261 262 260 
3 261 260 259 
3 234 237 263 
3 234 263 257 
3 264 259 257 
3 264 257 263 
3 259 264 265 
3 259 265 261 
3 237 239 266 
3 237 266 263 
3 267 264 263 
3 267 263 266 
3 264 267 268 
3 264 268 265 
3 239 241 269 
3 239 269 266 
3 270 267 266 
3 270 266 269 
3 267 270 271 
3 267 271 268 
3 241 243 272 
3 241 272 269 
3 273 270 269 
3 273 269 272 
3 270 273 274 
3 270 274 271 
3 243 245 275 
3 243 275 272 
3 272 275 276 
3 272 276 273 
3 277 274 273 
3 277 273 276 
3 245 247 278 
3 245 278 275 
3 279 276 275 
3 279 275 278 
3 276 279 280 
3 276 280 277 
3 247 249 281 
3 247 281 278 
3 282 279 278 
3 282 278 281 
3 279 282 253 
3 279 253 280 
3 249 251 283 
3 249 283 281 
3 284 282 281 
3 284 281 283 
3 282 284 254 
3 282 254 253 
3 285 283 251 
3 285 251 252 
3 283 285 286 
3 283 286 284 
3 287 254 284 
3 287 284 286 
3 254 287 288 
3 254 288 255 
3 289 280 253 
3 289 253 256 
3 261 290 291 
3 261 291 262 
3 290 261 265 
3 290 265 292 
3 268 293 292 
3 268 292 265 
3 293 268 271 
3 293 271 294 
3 274 295 294 
3 274 294 271 
3 295 274 277 
3 295 277 296 
3 280 289 296 
3 280 296 277 
3 297 298 299 
3 297 299 300 
3 258 301 233 
3 258 233 235 
3 260 302 301 
3 260 301 258 
3 302 260 262 
3 302 262 303 
3 301 304 236 
3 301 236 233 
3 304 301 302 
3 304 302 305 
3 303 306 305 
3 303 305 302 
3 304 307 238 
3 304 238 236 
3 307 304 305 
3 307 305 308 
3 306 309 308 
3 306 308 305 
3 307 310 240 
3 307 240 238 
3 310 307 308 
3 310 308 311 
3 309 312 311 
3 309 311 308 
3 310 313 242 
3 310 242 240 
3 313 310 311 
3 313 311 314 
3 312 315 314 
3 312 314 311 
3 313 316 244 
3 313 244 242 
3 314 317 316 
3 314 316 313 
3 317 314 315 
3 317 315 318 
3 316 319 246 
3 316 246 244 
3 319 316 317 
3 319 317 320 
3 318 321 320 
3 318 320 317 
3 319 322 248 
3 319 248 246 
3 322 319 320 
3 322 320 323 
3 321 300 323 
3 321 323 320 
3 322 324 250 
3 322 250 248 
3 324 322 323 
3 324 323 325 
3 300 299 325 
3 300 325 323 
3 252 250 324 
3 252 324 285 
3 325 286 285 
3 325 285 324 
3 286 325 299 
3 286 299 287 
3 298 288 287 
3 298 287 299 
3 297 300 321 
3 297 321 326 
3 262 291 327 
3 262 327 303 
3 328 306 303 
3 328 303 327 
3 306 328 329 
3 306 329 309 
3 330 312 309 
3 330 309 329 
3 312 330 331 
3 312 331 315 
3 332 318 315 
3 332 315 331 
3 318 332 326 
3 318 326 321 
3 333 334 50 
3 333 50 335 
3 334 333 336 
3 334 336 337 
3 338 16 337 
3 338 337 336 
3 16 338 339 
3 16 339 15 
3 340 19 15 
3 340 15 339 
3 19 340 341 
3 19 341 21 
3 21 341 342 
3 21 342 23 
3 343 25 23 
3 343 23 342 
3 25 343 344 
3 25 344 27 
3 345 29 27 
3 345 27 344 
3 29 345 346 
3 29 346 31 
3 333 335 347 
3 333 347 348 
3 349 350 348 
3 349 348 347 
3 350 349 351 
3 350 351 352 
3 353 354 352 
3 353 352 351 
3 354 353 355 
3 354 355 356 
3 357 358 356 
3 357 356 355 
3 358 357 359 
3 358 359 360 
3 360 361 362 
3 360 362 358 
3 363 356 358 
3 363 358 362 
3 356 363 364 
3 356 364 354 
3 365 352 354 
3 365 354 364 
3 352 365 366 
3 352 366 350 
3 367 348 350 
3 367 350 366 
3 348 367 336 
3 348 336 333 
3 338 336 367 
3 338 367 368 
3 366 369 368 
3 366 368 367 
3 369 366 365 
3 369 365 370 
3 364 371 370 
3 364 370 365 
3 371 364 363 
3 371 363 372 
3 362 373 372 
3 362 372 363 
3 373 362 361 
3 373 361 374 
3 374 375 376 
3 374 376 373 
3 377 372 373 
3 377 373 376 
3 372 377 378 
3 372 378 371 
3 379 370 371 
3 379 371 378 
3 370 379 380 
3 370 380 369 
3 381 368 369 
3 381 369 380 
3 368 381 339 
3 368 339 338 
3 340 339 381 
3 340 381 382 
3 380 383 382 
3 380 382 381 
3 383 380 379 
3 383 379 384 
3 378 385 384 
3 378 384 379 
3 385 378 377 
3 385 377 386 
3 376 387 386 
3 376 386 377 
3 387 376 375 
3 387 375 388 
3 388 389 390 
3 388 390 387 
3 391 386 387 
3 391 387 390 
3 386 391 392 
3 386 392 385 
3 393 384 385 
3 393 385 392 
3 384 393 394 
3 384 394 383 
3 395 382 383 
3 395 383 394 
3 382 395 341 
3 382 341 340 
3 342 341 395 
3 342 395 396 
3 394 397 396 
3 394 396 395 
3 397 394 393 
3 397 393 398 
3 392 399 398 
3 392 398 393 
3 399 392 391 
3 399 391 400 
3 390 401 400 
3 390 400 391 
3 401 390 389 
3 401 389 402 
3 402 403 404 
3 402 404 401 
3 405 400 401 
3 405 401 404 
3 400 405 406 
3 400 406 399 
3 407 398 399 
3 407 399 406 
3 398 407 408 
3 398 408 397 
3 409 396 397 
3 409 397 408 
3 396 409 343 
3 396 343 342 
3 344 343 409 
3 344 409 410 
3 408 411 410 
3 408 410 409 
3 411 408 407 
3 411 407 412 
3 406 413 412 
3 406 412 407 
3 413 406 405 
3 413 405 414 
3 404 415 414 
3 404 414 405 
3 415 404 403 
3 415 403 416 
3 416 417 418 
3 416 418 415 
3 419 414 415 
3 419 415 418 
3 414 419 420 
3 414 420 413 
3 421 412 413 
3 421 413 420 
3 412 421 422 
3 412 422 411 
3 423 410 411 
3 423 411 422 
3 410 423 345 
3 410 345 344 
3 346 345 423 
3 346 423 424 
3 422 425 424 
3 422 424 423 
3 425 422 421 
3 425 421 426 
3 420 427 426 
3 420 426 421 
3 427 420 419 
3 427 419 428 
3 418 429 428 
3 418 428 419 
3 429 418 417 
3 429 417 430 
3 430 431 432 
3 430 432 429 
3 433 428 429 
3 433 429 432 
3 428 433 434 
3 428 434 427 
3 435 426 427 
3 435 427 434 
3 426 435 436 
3 426 436 425 
3 437 424 425 
3 437 425 436 
3 424 437 438 
3 424 438 346 
3 71 31 346 
3 71 346 438 
3 438 439 72 
3 438 72 71 
3 439 438 437 
3 439 437 440 
3 436 441 440 
3 436 440 437 
3 441 436 435 
3 441 435 442 
3 434 443 442 
3 434 442 435 
3 443 434 433 
3 443 433 444 
3 432 445 444 
3 432 444 433 
3 445 432 431 
3 445 431 446 
3 446 447 448 
3 446 448 445 
3 449 444 445 
3 449 445 448 
3 444 449 450 
3 444 450 443 
3 451 442 443 
3 451 443 450 
3 442 451 452 
3 442 452 441 
3 453 440 441 
3 453 441 452 
3 440 453 454 
3 440 454 439 
3 81 72 439 
3 81 439 454 
3 454 455 82 
3 454 82 81 
3 455 454 453 
3 455 453 456 
3 452 457 456 
3 452 456 453 
3 457 452 451 
3 457 451 458 
3 450 459 458 
3 450 458 451 
3 459 450 449 
3 459 449 460 
3 448 461 460 
3 448 460 449 
3 461 448 447 
3 461 447 462 
3 462 463 464 
3 462 464 461 
3 465 460 461 
3 465 461 464 
3 460 465 466 
3 460 466 459 
3 467 458 459 
3 467 459 466 
3 458 467 468 
3 458 468 457 
3 469 456 457 
3 469 457 468 
3 456 469 470 
3 456 470 455 
3 91 82 455 
3 91 455 470 
3 470 471 92 
3 470 92 91 
3 469 472 471 
3 469 471 470 
3 472 469 468 
3 472 468 473 
3 467 474 473 
3 467 473 468 
3 474 467 466 
3 474 466 475 
3 465 476 475 
3 465 475 466 
3 476 465 464 
3 476 464 477 
3 463 478 477 
3 463 477 464 
3 478 479 480 
3 478 480 477 
3 477 480 481 
3 477 481 476 
3 482 475 476 
3 482 476 481 
3 475 482 483 
3 475 483 474 
3 484 473 474 
3 484 474 483 
3 473 484 485 
3 473 485 472 
3 486 471 472 
3 486 472 485 
3 471 486 101 
3 471 101 92 
3 486 487 488 
3 486 488 101 
3 487 486 485 
3 487 485 489 
3 484 490 489 
3 484 489 485 
3 490 484 483 
3 490 483 491 
3 482 492 491 
3 482 491 483 
3 492 482 481 
3 492 481 493 
3 480 494 493 
3 480 493 481 
3 494 480 479 
3 494 479 495 
3 496 14 17 
3 496 17 0 
3 14 496 497 
3 14 497 18 
3 498 20 18 
3 498 18 497 
3 20 498 499 
3 20 499 22 
3 500 24 22 
3 500 22 499 
3 24 500 501 
3 24 501 26 
3 502 28 26 
3 502 26 501 
3 28 502 3 
3 28 3 30 
3 11 32 35 
3 11 35 503 
3 37 504 503 
3 37 503 35 
3 504 37 39 
3 504 39 505 
3 41 506 505 
3 41 505 39 
3 506 41 43 
3 506 43 507 
3 45 508 507 
3 45 507 43 
3 508 45 47 
3 508 47 509 
3 49 8 509 
3 49 509 47 
3 510 511 512 
3 510 512 20 
3 511 510 513 
3 511 513 514 
3 39 515 514 
3 39 514 513 
3 516 517 518 
3 516 518 519 
3 520 521 522 
3 520 522 523 
3 522 521 518 
3 522 518 517 
3 516 519 520 
3 516 520 523 
3 523 522 517 
3 523 517 516 
3 521 520 519 
3 521 519 518 
3 524 525 526 
3 524 526 527 
3 528 529 530 
3 528 530 531 
3 530 529 526 
3 530 526 525 
3 524 527 528 
3 524 528 531 
3 531 530 525 
3 531 525 524 
3 529 528 527 
3 529 527 526 
3 532 533 534 
3 532 534 535 
3 536 537 538 
3 536 538 539 
3 538 537 534 
3 538 534 533 
3 532 535 536 
3 532 536 539 
3 539 538 533 
3 539 533 532 
3 537 536 535 
3 537 535 534 
3 540 541 542 
3 540 542 543 
3 544 545 546 
3 544 546 547 
3 546 545 542 
3 546 542 541 
3 540 543 544 
3 540 544 547 
3 547 546 541 
3 547 541 540 
3 545 544 543 
3 545 543 542 
3 548 549 550 
3 548 550 551 
3 552 553 554 
3 552 554 555 
3 554 553 550 
3 554 550 549 
3 548 551 552 
3 548 552 555 
3 555 554 549 
3 555 549 548 
3 553 552 551 
3 553 551 550 
3 556 557 558 
3 556 558 559 
3 560 561 562 
3 560 562 563 
3 562 561 558 
3 562 558 557 
3 556 559 560 
3 556 560 563 
3 563 562 557 
3 563 557 556 
3 561 560 559 
3 561 559 558 
3 564 565 566 
3 564 566 567 
3 568 569 570 
3 568 570 571 
3 570 569 566 
3 570 566 565 
3 564 567 568 
3 564 568 571 
3 571 570 565 
3 571 565 564 
3 569 568 567 
3 569 567 566 
3 572 573 574 
3 572 574 575 
3 576 577 578 
3 576 578 579 
3 578 577 574 
3 578 574 573 
3 572 575 576 
3 572 576 579 
3 579 578 573 
3 579 573 572 
3 577 576 575 
3 577 575 574 
3 580 581 582 
3 580 582 583 
3 584 585 586 
3 584 586 587 
3 586 585 582 
3 586 582 581 
3 580 583 584 
3 580 584 587 
3 587 586 581 
3 587 581 580 
3 585 584 583 
3 585 583 582 
3 588 589 590 
3 588 590 591 
3 592 593 594 
3 592 594 595 
3 594 593 590 
3 594 590 589 
3 588 591 592 
3 588 592 595 
3 595 594 589 
3 595 589 588 
3 593 592 591 
3 593 591 590 
3 596 597 598 
3 596 598 599 
3 600 601 602 
3 600 602 603 
3 602 601 598 
3 602 598 597 
3 596 599 600 
3 596 600 603 
3 603 602 597 
3 603 597 596 
3 601 600 599 
3 601 599 598 
3 604 605 606 
3 604 606 607 
3 608 609 610 
3 608 610 611 
3 610 609 606 
3 610 606 605 
3 604 607 608 
3 604 608 611 
3 611 610 605 
3 611 605 604 
3 609 608 607 
3 609 607 606 
3 368 16 17 
3 17 369 368 
3 369 17 52 
3 369 52 370 
3 52 612 370 
3 612 52 613 
3 612 613 614 
3 613 373 614 
3 373 613 56 
3 373 56 374 
3 615 33 32 
3 32 616 615 
3 616 32 61 
3 616 61 617 
3 61 618 617 
3 618 61 619 
3 618 619 620 
3 619 621 620 
3 621 619 56 
3 621 56 374 
3 346 30 31 
3 346 424 30 
3 425 68 30 
3 425 30 424 
3 425 426 68 
3 426 427 68 
3 428 64 68 
3 428 68 427 
3 428 429 64 
3 430 67 64 
3 430 64 429 
3 622 49 48 
3 622 623 49 
3 624 106 49 
3 624 49 623 
3 624 625 106 
3 625 626 106 
3 627 104 106 
3 627 106 626 
3 627 628 104 
3 430 67 104 
3 430 104 628 
3 51 335 50 
3 335 51 53 
3 335 53 347 
3 53 349 347 
3 349 53 55 
3 349 55 351 
3 55 353 351 
3 353 55 57 
3 353 57 355 
3 357 355 57 
3 357 57 359 
3 58 629 59 
3 629 58 60 
3 629 60 630 
3 60 631 630 
3 631 60 62 
3 631 62 632 
3 62 633 632 
3 633 62 57 
3 633 57 634 
3 635 634 57 
3 635 57 359 
3 636 637 638 
3 636 638 639 
3 640 641 637 
3 640 637 636 
3 642 643 644 
3 642 644 645 
3 646 647 643 
3 646 643 642 
3 648 649 647 
3 648 647 646 
3 645 644 650 
3 645 650 651 
3 651 650 652 
3 651 652 653 
3 653 652 649 
3 653 649 648 
3 629 59 654 
3 629 654 655 
3 656 657 655 
3 656 655 654 
3 657 656 33 
3 657 33 658 
3 34 659 658 
3 34 658 33 
3 659 34 36 
3 659 36 660 
3 38 661 660 
3 38 660 36 
3 40 662 661 
3 40 661 38 
3 662 40 42 
3 662 42 663 
3 44 664 663 
3 44 663 42 
3 664 44 46 
3 664 46 665 
3 48 622 665 
3 48 665 46 
3 666 630 629 
3 666 629 655 
3 630 666 667 
3 630 667 631 
3 668 632 631 
3 668 631 667 
3 632 668 669 
3 632 669 633 
3 670 634 633 
3 670 633 669 
3 634 670 671 
3 634 671 635 
3 360 359 635 
3 360 635 671 
3 671 672 673 
3 671 673 360 
3 672 671 670 
3 672 670 674 
3 669 675 674 
3 669 674 670 
3 675 669 668 
3 675 668 676 
3 667 677 676 
3 667 676 668 
3 677 667 666 
3 677 666 678 
3 655 657 678 
3 655 678 666 
3 615 678 657 
3 615 657 658 
3 678 615 616 
3 678 616 677 
3 617 676 677 
3 617 677 616 
3 676 617 679 
3 676 679 675 
3 680 674 675 
3 680 675 679 
3 674 680 621 
3 674 621 672 
3 374 673 672 
3 374 672 621 
3 621 681 375 
3 621 375 374 
3 681 621 680 
3 681 680 682 
3 679 683 682 
3 679 682 680 
3 683 679 617 
3 683 617 684 
3 616 685 684 
3 616 684 617 
3 685 616 615 
3 685 615 686 
3 658 659 686 
3 658 686 615 
3 687 686 659 
3 687 659 660 
3 686 687 688 
3 686 688 685 
3 689 684 685 
3 689 685 688 
3 684 689 690 
3 684 690 683 
3 691 682 683 
3 691 683 690 
3 682 691 692 
3 682 692 681 
3 388 375 681 
3 388 681 692 
3 692 693 389 
3 692 389 388 
3 693 692 691 
3 693 691 694 
3 690 695 694 
3 690 694 691 
3 695 690 689 
3 695 689 696 
3 688 697 696 
3 688 696 689 
3 697 688 687 
3 697 687 698 
3 660 661 698 
3 660 698 687 
3 699 698 661 
3 699 661 662 
3 698 699 700 
3 698 700 697 
3 701 696 697 
3 701 697 700 
3 696 701 702 
3 696 702 695 
3 703 694 695 
3 703 695 702 
3 694 703 704 
3 694 704 693 
3 402 389 693 
3 402 693 704 
3 704 705 403 
3 704 403 402 
3 705 704 703 
3 705 703 706 
3 702 707 706 
3 702 706 703 
3 707 702 701 
3 707 701 708 
3 700 709 708 
3 700 708 701 
3 709 700 699 
3 709 699 710 
3 662 663 710 
3 662 710 699 
3 711 710 663 
3 711 663 664 
3 710 711 712 
3 710 712 709 
3 713 708 709 
3 713 709 712 
3 708 713 714 
3 708 714 707 
3 715 706 707 
3 715 707 714 
3 706 715 716 
3 706 716 705 
3 416 403 705 
3 416 705 716 
3 716 717 417 
3 716 417 416 
3 717 716 715 
3 717 715 718 
3 714 719 718 
3 714 718 715 
3 719 714 713 
3 719 713 720 
3 712 721 720 
3 712 720 713 
3 721 712 711 
3 721 711 722 
3 664 665 722 
3 664 722 711 
3 623 722 665 
3 623 665 622 
3 722 623 624 
3 722 624 721 
3 625 720 721 
3 625 721 624 
3 720 625 626 
3 720 626 719 
3 627 718 719 
3 627 719 626 
3 718 627 628 
3 718 628 717 
3 430 417 717 
3 430 717 628 
3 628 723 431 
3 628 431 430 
3 723 628 627 
3 723 627 724 
3 626 725 724 
3 626 724 627 
3 725 626 625 
3 725 625 726 
3 624 727 726 
3 624 726 625 
3 727 624 623 
3 727 623 728 
3 622 729 728 
3 622 728 623 
3 729 622 48 
3 729 48 108 
3 108 110 730 
3 108 730 729 
3 731 728 729 
3 731 729 730 
3 728 731 732 
3 728 732 727 
3 733 726 727 
3 733 727 732 
3 726 733 734 
3 726 734 725 
3 735 724 725 
3 735 725 734 
3 724 735 736 
3 724 736 723 
3 446 431 723 
3 446 723 736 
3 736 737 447 
3 736 447 446 
3 737 736 735 
3 737 735 738 
3 734 739 738 
3 734 738 735 
3 739 734 733 
3 739 733 740 
3 732 741 740 
3 732 740 733 
3 741 732 731 
3 741 731 742 
3 730 743 742 
3 730 742 731 
3 743 730 110 
3 743 110 116 
3 116 118 744 
3 116 744 743 
3 745 742 743 
3 745 743 744 
3 742 745 746 
3 742 746 741 
3 747 740 741 
3 747 741 746 
3 740 747 748 
3 740 748 739 
3 749 738 739 
3 749 739 748 
3 738 749 750 
3 738 750 737 
3 462 447 737 
3 462 737 750 
3 750 751 463 
3 750 463 462 
3 751 750 749 
3 751 749 752 
3 748 753 752 
3 748 752 749 
3 753 748 747 
3 753 747 754 
3 746 755 754 
3 746 754 747 
3 755 746 745 
3 755 745 756 
3 744 757 756 
3 744 756 745 
3 757 744 118 
3 757 118 124 
3 124 126 758 
3 124 758 757 
3 757 758 759 
3 757 759 756 
3 760 755 756 
3 760 756 759 
3 755 760 761 
3 755 761 754 
3 762 753 754 
3 762 754 761 
3 753 762 763 
3 753 763 752 
3 764 751 752 
3 764 752 763 
3 751 764 478 
3 751 478 463 
3 764 765 479 
3 764 479 478 
3 763 766 765 
3 763 765 764 
3 766 763 762 
3 766 762 767 
3 761 768 767 
3 761 767 762 
3 768 761 760 
3 768 760 769 
3 759 770 769 
3 759 769 760 
3 770 759 758 
3 770 758 771 
3 126 132 771 
3 126 771 758 
3 132 488 487 
3 132 487 771 
3 489 770 771 
3 489 771 487 
3 770 489 490 
3 770 490 769 
3 491 768 769 
3 491 769 490 
3 768 491 492 
3 768 492 767 
3 493 766 767 
3 493 767 492 
3 766 493 494 
3 766 494 765 
3 495 479 765 
3 495 765 494 
