ply
format ascii 1.0
element vertex 857
property float32 x
property float32 y
property float32 z
element face 1508
property list uint8 int32 vertex_indices
end_header
630.197 56.357 387.568 
628.939 88.165 381.788 
615.379 88.808 381.786 
598.807 89.454 381.785 
582.878 56.354 389.045 
582.138 95.687 381.786 
570.413 102.988 379.06 
551.226 109.837 379.514 
540.693 56.357 386.268 
533.004 112.123 379.785 
511.909 110.976 379.779 
490.817 98.341 379.783 
484.792 81.311 381.07 
461.846 114.857 375.909 
454.388 84.288 377.842 
469.645 127.178 375.912 
497.686 141.323 375.909 
522.195 142.693 375.914 
541.714 139.499 375.911 
556.633 124.896 372.846 
706.706 93.017 379.597 
675.586 106.64 372.843 
679.004 91.195 379.142 
655.349 99.343 372.848 
681.982 116.221 375.038 
694.375 116.969 375.038 
716.485 120.864 376.86 
736.856 91.646 379.596 
740.582 123.444 376.402 
754.96 74.323 379.595 
761.668 115.697 376.402 
782.75 100.199 376.404 
480.43 56.355 382.398 
451.807 56.357 380.2 
689.536 56.355 385.365 
752.007 56.344 382.089 
785.459 56.353 377.538 
596.399 137.671 372.847 
586.224 121.969 373.21 
592.275 119.385 373.206 
581.36 117.329 374.63 
581.364 108.923 376.453 
590.429 100.862 376.455 
603.274 97.309 376.453 
615.65 97.308 376.453 
630.202 99.014 376.454 
641.26 97.062 376.452 
638.303 85.889 376.454 
645.382 92.432 376.452 
644.387 87.177 376.45 
591.516 114.537 373.206 
596.469 104.096 373.21 
585.144 112.801 373.21 
585.149 108.6 373.208 
648.616 88.173 375.924 
646.382 97.341 373.207 
645.076 81.031 381.23 
640.069 80.338 378.775 
602.115 134.966 372.843 
607.191 142.89 372.846 
604.296 123.818 372.846 
607.047 102.803 373.205 
621.545 114.833 372.847 
621.689 103.774 373.208 
637.5 102.148 373.208 
643.969 113.358 372.846 
665.173 114.835 372.845 
672.067 119.26 372.843 
678.781 127.628 372.841 
672.069 127.504 372.844 
428.281 56.145 372.85 
427.44 88.954 372.844 
440.005 123.698 372.843 
455.322 146.633 372.848 
478.266 161.956 372.846 
505.316 167.337 372.846 
532.365 161.956 372.848 
551.713 152.781 372.849 
564.948 142.635 372.846 
579.336 139.557 372.846 
591.926 141.094 372.848 
600.918 145.717 372.846 
670.686 132.091 372.842 
675.58 135.082 372.843 
683.321 130.439 372.848 
696.482 129.948 372.843 
714.275 136.167 372.843 
736.558 140.728 372.838 
768.317 130.492 372.838 
792.484 107.487 372.843 
804.29 84.019 372.843 
806.768 55.833 372.845 
804.289 26.655 372.842 
645.074 30.039 381.23 
640.068 28.798 378.776 
648.614 22.505 375.924 
637.5 8.533 373.208 
621.544 -4.157 372.847 
643.969 -2.679 372.846 
646.382 13.334 373.206 
621.693 6.909 373.208 
607.048 7.879 373.205 
604.294 -13.139 372.847 
596.469 6.583 373.21 
585.143 -2.123 373.21 
585.151 2.081 373.208 
581.364 -6.651 374.631 
564.948 -31.957 372.846 
579.337 -28.877 372.846 
638.302 24.788 376.455 
645.381 18.242 376.452 
644.386 23.5 376.451 
586.224 -11.292 373.21 
591.926 -30.415 372.848 
591.514 -3.858 373.205 
592.273 -8.705 373.206 
782.749 10.477 376.405 
792.488 3.19 372.843 
768.317 -19.812 372.838 
761.665 -5.018 376.402 
740.581 -12.763 376.402 
736.561 -30.048 372.838 
716.485 -10.184 376.86 
714.276 -25.483 372.841 
696.48 -19.269 372.843 
694.378 -6.293 375.038 
678.784 -16.95 372.843 
683.321 -19.762 372.846 
675.58 -24.405 372.843 
670.689 -21.414 372.842 
672.07 -16.823 372.843 
672.07 -8.583 372.843 
681.982 -5.543 375.039 
675.587 4.038 372.843 
665.174 -4.155 372.845 
655.349 11.339 372.848 
596.397 -26.992 372.846 
600.92 -35.037 372.846 
602.117 -24.288 372.843 
607.19 -32.209 372.846 
556.633 -14.216 372.846 
541.712 -28.818 375.91 
551.712 -42.102 372.848 
522.194 -32.013 375.913 
532.365 -51.277 372.848 
505.315 -56.657 372.846 
497.689 -30.643 375.911 
478.264 -51.279 372.846 
469.643 -16.5 375.912 
455.323 -35.954 372.848 
461.847 -4.18 375.909 
440.005 -13.019 372.843 
454.388 26.394 377.843 
427.44 21.725 372.845 
490.819 12.34 379.784 
484.792 29.368 381.071 
511.91 -0.291 379.779 
533.004 -1.445 379.784 
551.23 0.844 379.516 
570.411 7.691 379.06 
581.362 1.755 376.454 
582.136 14.988 381.787 
590.429 9.815 376.455 
598.807 21.228 381.786 
615.649 13.367 376.453 
603.276 13.373 376.457 
615.38 21.876 381.786 
630.197 11.666 376.454 
628.939 22.52 381.788 
641.262 13.613 376.452 
679.006 19.484 379.142 
706.711 17.66 379.598 
736.859 19.033 379.597 
754.961 36.357 379.595 
600.936 -34.494 332.774 
602.129 -23.742 332.771 
607.21 -31.669 332.773 
591.946 -29.874 332.773 
675.599 -23.862 332.774 
672.082 -16.283 332.773 
670.707 -20.872 332.775 
683.337 -19.216 332.775 
672.087 -8.043 332.773 
670.705 132.634 332.775 
683.336 130.982 332.775 
675.595 135.626 332.776 
672.083 128.045 332.773 
672.084 119.801 332.773 
602.129 135.507 332.772 
591.944 141.638 332.773 
600.934 146.255 332.775 
607.209 143.429 332.773 
653.244 27.509 321.419 
665.188 -3.614 332.772 
643.987 -2.139 332.773 
676.261 18.543 321.421 
697.996 9.588 321.422 
696.498 -18.728 332.773 
721.009 3.614 321.424 
714.293 -24.945 332.775 
750.408 6.603 321.429 
736.581 -29.507 332.776 
768.328 -19.27 332.781 
769.57 24.525 321.429 
792.496 3.734 332.778 
804.301 27.2 332.775 
775.959 51.4 321.429 
806.785 56.371 332.775 
804.304 84.563 332.775 
768.297 81.265 321.428 
792.5 108.029 332.778 
750.408 99.188 321.429 
768.325 131.035 332.78 
736.579 141.27 332.776 
724.843 105.163 321.425 
714.293 136.705 332.775 
692.881 99.191 321.421 
696.498 130.491 332.773 
665.187 115.373 332.772 
663.474 90.233 321.421 
643.987 113.899 332.773 
632.782 87.247 321.423 
621.559 115.376 332.773 
607.829 89.001 321.419 
604.311 124.36 332.775 
558.617 105.17 321.422 
579.356 140.099 332.772 
564.965 143.18 332.773 
551.727 153.323 332.775 
520.254 114.135 321.418 
532.386 162.5 332.775 
505.332 167.878 332.773 
497.236 114.135 321.421 
478.276 162.501 332.775 
474.22 105.173 321.418 
455.346 147.175 332.773 
440.018 124.239 332.77 
457.596 81.274 321.419 
427.453 89.496 332.773 
457.597 57.376 321.418 
428.294 56.69 332.774 
458.872 21.531 321.421 
440.019 -12.478 332.77 
427.452 22.266 332.772 
472.939 0.621 321.421 
455.343 -35.412 332.773 
478.279 -50.736 332.775 
499.794 -17.303 321.421 
521.529 -17.304 321.423 
505.331 -56.114 332.772 
532.384 -50.734 332.773 
547.106 -8.34 321.419 
551.729 -41.559 332.775 
564.965 -31.415 332.773 
579.075 3.608 321.419 
604.313 -12.598 332.774 
579.355 -28.336 332.771 
608.488 21.533 321.419 
621.56 -3.615 332.773 
631.506 27.506 321.421 
507.141 52.986 313.906 
570.877 52.487 316.016 
806.123 75.507 352.648 
829.951 72.721 358.542 
823.47 72.721 351.134 
835.871 62.49 355.781 
829.97 62.488 350.567 
835.868 51.325 355.78 
829.968 51.331 350.567 
829.948 41.095 358.542 
823.471 41.097 351.134 
837.776 41.094 364.038 
840.539 51.33 358.13 
840.54 62.489 358.13 
837.776 72.721 364.038 
844.92 62.488 362.055 
846.324 72.077 369.852 
844.92 51.328 362.055 
846.321 40.454 369.852 
839.843 38.308 378.908 
802.186 67.777 332.251 
815.881 66.382 332.25 
819.799 60.241 332.25 
819.799 53.546 332.25 
815.88 47.408 332.25 
806.123 38.308 352.648 
802.184 45.454 332.251 
1026.81 43.4 362.98 
1027.22 45.493 356.998 
1026.17 53.65 351.149 
1026.17 62.02 351.149 
839.844 75.51 378.909 
1027.22 69.208 356.997 
1026.8 71.3 362.98 
807.482 77.153 369.274 
806.574 36.859 365.559 
807.32 36.862 373.852 
807.321 76.954 373.852 
808.678 36.862 381.756 
807.999 75.617 381.818 
1071.45 39.164 324.475 
1043.3 39.163 339.303 
1044.21 39.16 324.475 
1071.9 75.168 324.476 
1083.25 39.162 320.237 
1083.7 75.169 320.241 
1044.67 75.169 324.474 
1043.76 75.171 339.306 
1033.32 39.162 345.655 
1033.77 75.169 345.658 
1034.74 71.472 363.224 
1034.39 74.877 355.186 
1034.07 39.054 355.186 
1034.98 43.201 362.688 
1033.1 57.827 345.677 
1047.22 39.052 360.913 
1063.34 39.055 358.848 
1084.22 39.054 353.31 
1062.89 75.169 359.664 
1084.22 75.172 353.31 
1046.54 75.102 361.786 
1097.32 39.406 318.12 
1112.75 75.172 318.121 
1097.32 75.17 318.12 
1112.76 39.404 318.12 
1129.1 39.404 324.475 
1129.1 75.172 324.475 
1142.72 39.406 335.066 
1142.71 75.169 335.066 
1150.89 39.401 349.891 
1147.25 75.165 366.837 
1150.89 75.167 349.891 
1147.25 39.409 366.838 
1139.11 75.878 377.429 
1139.11 38.698 377.429 
1119.22 36.972 383.784 
1119.22 77.603 383.784 
1103.13 34.132 379.547 
1103.13 80.441 379.547 
1095.08 30.158 366.84 
1095.08 84.415 366.84 
1094.18 27.799 354.13 
1099.62 87.834 343.542 
1094.18 86.777 354.129 
1099.62 26.737 343.542 
1113.24 87.835 339.306 
1113.24 26.739 339.306 
1122.99 26.08 343.579 
1123.22 88.033 343.579 
1116.29 68.627 358.828 
1116.39 46.666 358.594 
1093.04 39.406 349.387 
1092.81 75.172 349.386 
1084.45 68.917 353.312 
1093.04 68.916 349.388 
1063.11 68.914 359.665 
1046.77 68.851 361.784 
1034.97 65.218 363.222 
1092.82 44.75 349.386 
1084.22 44.572 353.31 
1063.34 44.573 358.848 
1047.22 44.573 360.914 
1034.98 48.716 362.687 
1035.4 57.416 352.093 
1096.78 80.018 329.849 
1094.89 87.83 333.946 
1104.88 80.022 339.494 
1100.51 87.83 340.648 
1094.86 97.636 333.916 
1096.64 105.377 329.683 
1100.53 97.633 340.679 
1100.34 107.486 323.82 
1105.01 105.376 339.661 
1106.76 105.376 321.19 
1111.42 107.487 337.03 
1111.24 97.634 320.175 
1115.13 105.377 331.168 
1116.91 97.635 326.935 
1111.26 87.833 320.202 
1106.89 80.021 321.357 
1114.99 80.019 331 
1116.88 87.83 326.907 
1100.49 77.914 323.99 
1111.28 77.913 336.865 
1097.7 92.32 337.296 
1109.99 83.051 331.751 
1106.71 83.052 327.848 
1106.71 42.407 327.848 
1106.22 83.052 334.912 
1109.99 42.408 331.75 
1102.53 83.051 331.359 
1106.22 42.409 334.912 
1102.53 42.408 331.36 
1085.71 31.428 332.668 
1089.89 72.027 336.18 
1085.72 72.026 332.669 
1082.44 31.428 336.571 
1082.44 72.025 336.571 
1086.2 31.432 339.733 
1086.2 72.026 339.733 
1089.89 31.432 336.181 
1085.67 9.104 326.011 
1095.78 9.104 334.504 
1092.07 6.996 328.64 
1081.19 16.849 324.996 
1097.55 16.844 338.737 
1081.17 26.648 325.023 
1097.52 26.65 338.767 
1085.53 34.46 326.177 
1095.63 34.455 334.671 
1091.93 36.568 328.811 
1087.41 9.104 344.483 
1077.3 9.104 335.989 
1081.01 6.99 341.851 
1075.52 16.844 331.755 
1091.88 16.847 345.5 
1075.55 26.647 331.728 
1091.91 26.651 345.469 
1077.45 34.458 335.821 
1087.55 34.46 344.315 
1081.15 36.565 341.686 
1094.72 22.16 342.117 
1042.91 34.455 346.026 
1041.01 26.65 350.122 
1050.99 34.46 355.671 
1046.63 26.651 356.825 
1040.98 16.844 350.092 
1042.75 9.104 345.86 
1046.65 16.848 356.854 
1046.46 6.996 339.996 
1051.13 9.105 355.837 
1052.87 9.104 337.367 
1057.53 6.99 353.206 
1057.34 16.849 336.352 
1061.24 9.104 347.345 
1063.01 16.844 343.111 
1057.36 26.648 336.379 
1053 34.46 337.534 
1061.09 34.458 347.177 
1062.98 26.647 343.084 
1046.61 36.568 340.167 
1057.39 36.565 353.041 
1043.82 22.161 353.471 
1056.09 31.428 347.926 
1052.82 31.428 344.024 
1052.82 72.025 344.024 
1052.33 31.431 351.087 
1056.09 72.025 347.926 
1048.64 31.432 347.536 
1052.33 72.026 351.088 
1048.64 72.027 347.536 
1067.08 83.052 339.031 
1071.26 42.408 342.542 
1067.08 42.408 339.031 
1063.8 83.051 342.933 
1063.8 42.408 342.934 
1067.56 83.052 346.095 
1067.56 42.41 346.095 
1071.26 83.051 342.543 
1067.03 105.376 332.372 
1077.15 105.377 340.867 
1073.44 107.486 335.002 
1062.55 97.634 331.358 
1078.93 97.636 345.1 
1062.53 87.832 331.385 
1078.9 87.83 345.129 
1066.9 80.021 332.539 
1077.01 80.017 341.032 
1073.3 77.912 335.173 
1068.78 105.377 350.843 
1058.66 105.377 342.352 
1062.37 107.487 348.213 
1056.88 97.634 338.118 
1073.26 97.633 351.86 
1056.9 87.83 338.091 
1073.28 87.83 351.83 
1058.8 80.019 342.184 
1068.91 80.022 350.676 
1062.5 77.912 348.047 
1076.09 92.32 348.477 
1027.36 71.302 369.321 
1027.36 43.399 369.321 
840.401 38.306 385.252 
840.403 75.514 385.253 
1035.45 43.401 368.571 
1035.45 71.304 368.573 
1035.55 47.141 372.846 
841.296 45.117 390.061 
1035.72 57.617 374.779 
1035.55 66.435 372.846 
841.466 58.852 391.996 
841.294 70.412 390.061 
672.336 31.282 397.266 
671.569 31.284 388.526 
671.459 80.834 397.346 
670.694 80.832 388.607 
808.594 75.619 388.654 
809.277 36.861 388.593 
809.329 71.46 393.626 
672.631 59.588 406.36 
672.395 75.517 403.695 
809.509 59.002 395.712 
672.397 40.664 403.695 
809.327 44.199 393.626 
672.395 37.373 389.095 
670.695 59.612 400.743 
670.694 75.043 389.096 
671.546 42.367 397.035 
670.695 71.864 397.567 
520.037 62.662 398.098 
430.392 68.09 374.844 
520.037 78.052 391.756 
520.041 47.269 398.098 
430.394 60.221 381.185 
520.039 32.784 391.755 
430.394 52.356 381.184 
430.391 44.953 374.844 
420.032 53.096 374.663 
423.38 47.011 370.67 
420.031 59.564 374.663 
423.379 66.032 370.67 
423.941 66.031 364.335 
418.747 59.564 363.882 
418.748 53.096 363.881 
423.94 47.009 364.335 
1036.87 47.064 377.97 
1037.13 46.293 376.256 
577.838 35.747 418.77 
1037.51 47.845 375.206 
578.094 34.97 417.051 
1037.44 49.261 376.336 
578.476 36.524 416.003 
1037.05 48.672 377.993 
578.408 37.941 417.134 
578.014 37.354 418.786 
570.334 37.354 418.851 
571.683 37.941 417.3 
572.412 36.526 416.213 
571.426 34.974 417.18 
570.176 35.746 418.812 
523.781 40.403 402.325 
525.15 39.607 400.812 
526.243 41.139 399.931 
525.447 42.569 400.952 
523.959 42.006 402.376 
524.477 50.85 403.206 
569.274 49.058 421.274 
524.297 49.563 403.16 
570.523 48.436 419.967 
525.644 48.919 401.968 
571.508 49.681 419.186 
526.715 50.15 401.279 
570.778 50.82 420.057 
525.933 51.299 402.083 
569.431 50.35 421.306 
577.107 50.348 421.254 
577.499 50.82 419.927 
577.571 49.681 419.018 
577.186 48.436 419.861 
576.928 49.056 421.238 
1036.55 52.325 381.441 
1036.81 51.711 380.062 
1037.19 52.954 379.22 
1037.12 54.09 380.13 
1036.73 53.62 381.456 
1035.46 60.373 379.617 
1035.58 61.063 378.07 
576.931 63.149 421.06 
1035.88 59.675 377.102 
577.186 63.838 419.531 
1035.9 58.415 378.115 
577.568 62.452 418.595 
1035.64 58.939 379.62 
577.497 61.191 419.606 
577.108 61.717 421.079 
569.433 61.715 421.137 
570.779 61.189 419.749 
571.508 62.45 418.782 
570.523 63.841 419.647 
569.272 63.149 421.101 
523.593 61.572 400.366 
524.957 62.281 399.025 
526.03 60.914 398.248 
525.246 59.639 399.152 
523.772 60.139 400.411 
523.834 68.91 399.066 
569.27 74.28 419.731 
523.584 70.706 399.008 
570.522 75.148 417.898 
524.946 71.642 397.29 
571.507 73.402 416.805 
526.147 71.016 396.289 
570.779 71.811 418.025 
525.363 68.328 397.444 
569.432 72.471 419.772 
577.108 72.472 419.705 
577.501 71.811 417.844 
577.567 73.4 416.569 
577.187 75.152 417.752 
576.929 74.28 419.68 
1035.68 66.331 378.784 
1036.1 67.198 376.884 
1036.59 65.452 375.739 
1036.41 63.86 377.002 
1035.85 64.516 378.821 
736.979 -33.641 337.02 
713.993 -29.177 337.015 
696.087 -21.946 337.015 
683.898 -21.948 332.775 
675.836 -26.881 337.015 
668.813 -23.16 332.776 
669.452 -15.71 337.017 
669.766 -9.01 332.774 
664.025 -6.033 337.017 
643.271 -5.287 332.773 
621.936 -6.782 337.016 
606.288 -14.971 332.775 
604.694 -23.161 337.015 
609.484 -32.1 332.773 
601.179 -36.566 337.015 
591.341 -32.844 337.015 
579.845 -31.356 337.015 
566.229 -34.331 337.016 
552.818 -43.272 337.017 
533.663 -53.698 337.017 
505.301 -59.18 337.016 
477.261 -53.227 337.015 
453.37 -38.331 337.014 
437.085 -13.759 337.014 
423.732 22.263 337.015 
424.374 56.791 337.017 
423.417 88.339 337.016 
437.464 125.848 337.015 
453.108 149.952 337.015 
477.372 164.846 337.017 
504.514 170.333 337.015 
532.821 165.121 337.015 
552.554 156.93 337.017 
565.648 145.754 337.015 
579.056 142.777 337.015 
590.553 145.013 337.015 
600.394 148.733 337.016 
608.375 145.01 337.013 
604.542 135.327 337.017 
606.142 126.392 337.017 
622.427 118.198 337.015 
643.766 116.711 337.017 
663.498 118.199 337.015 
668.927 121.923 337.015 
669.247 128.623 337.019 
667.968 133.092 337.015 
674.358 137.561 337.017 
684.196 133.834 337.015 
696.325 134.581 337.017 
712.869 139.792 337.019 
736.18 145.005 337.018 
769.936 134.578 337.019 
794.783 110.75 337.016 
807.811 85.158 337.017 
810.36 56.866 337.018 
808.129 25.795 337.017 
795.042 0.946 337.017 
769.822 -22.134 337.019 
810.901 55.904 370.093 
808.42 84.095 370.091 
796.614 107.563 370.095 
769.43 133.789 370.086 
737.674 144.025 370.088 
715.393 139.462 370.09 
697.592 133.248 370.091 
684.667 133.008 370.095 
675.721 138.079 370.091 
668.878 131.536 370.091 
670.382 126.698 370.096 
670.383 119.606 370.096 
665.113 117.029 370.256 
643.273 114.772 370.091 
622.177 116.706 370.096 
606.145 125.094 370.095 
604.635 134.762 370.095 
610.662 144.436 370.094 
602.378 147.983 370.095 
591.074 143.148 370.096 
578.809 141.858 370.093 
566.753 144.761 370.096 
553.733 154.432 370.095 
534.149 164.106 370.097 
506.061 169.588 370.096 
477.225 165.075 370.093 
452.9 148.309 370.098 
435.36 124.129 370.093 
423.308 89.052 370.094 
422.552 55.52 370.095 
808.418 26.584 370.091 
796.615 3.115 370.095 
769.429 -23.112 370.085 
737.675 -33.347 370.09 
715.394 -28.785 370.091 
697.595 -22.569 370.096 
684.668 -22.331 370.095 
675.721 -27.395 370.091 
668.88 -20.857 370.09 
602.378 -37.305 370.093 
591.074 -32.469 370.097 
610.662 -33.756 370.094 
578.811 -31.181 370.093 
566.756 -34.082 370.096 
553.736 -43.756 370.094 
534.148 -53.428 370.096 
506.061 -58.91 370.096 
477.222 -54.394 370.093 
452.902 -37.629 370.098 
435.356 -13.445 370.093 
423.309 21.626 370.094 
670.386 -16.022 370.096 
670.385 -8.93 370.096 
665.114 -6.35 370.257 
643.271 -4.092 370.092 
622.176 -6.029 370.096 
606.143 -14.411 370.095 
604.634 -24.086 370.095 
569.558 76.35 406.689 
570.468 69.948 417.106 
570.081 82.753 412.641 
568.257 73.148 391.811 
567.477 79.551 382.885 
567.475 66.109 382.885 
568.26 65.469 391.811 
569.43 59.709 405.203 
570.597 56.859 418.593 
568.387 45.629 393.298 
569.429 53.307 405.203 
570.469 41.789 417.105 
568.258 39.864 391.811 
567.477 32.188 382.884 
567.475 43.71 382.885 
569.558 36.667 406.689 
570.081 28.986 412.642 
577.298 36.664 406.688 
578.6 39.865 391.811 
577.426 53.308 405.204 
577.426 59.711 405.204 
578.6 73.149 391.811 
577.296 76.353 406.688 
579.379 43.708 382.885 
578.468 45.626 393.298 
578.599 65.467 391.811 
579.376 66.107 382.884 
576.386 41.789 417.105 
576.777 28.989 412.642 
579.376 32.183 382.884 
579.377 79.552 382.884 
576.779 82.752 412.642 
576.384 69.948 417.105 
576.256 56.859 418.593 
691.016 29.809 443.208 
688.101 469.246 608.828 
691.183 471.071 603.813 
687.934 27.982 448.221 
697.344 471.071 603.813 
697.177 29.809 443.208 
700.426 469.246 608.828 
700.259 27.982 448.221 
697.344 467.421 613.844 
697.177 26.156 453.235 
691.183 467.421 613.844 
691.016 26.156 453.235 
688.101 479.282 605.249 
691.183 484.119 607.502 
697.344 484.119 607.502 
700.426 479.282 605.249 
697.344 474.45 602.988 
691.183 474.45 602.988 
685.431 491.421 589.607 
689.849 484.493 586.368 
698.679 484.493 586.368 
703.096 491.421 589.607 
698.679 498.754 591.73 
690.731 498.754 591.73 
691.016 -55.324 423.582 
687.934 -76.238 410.292 
691.016 -78.063 415.307 
687.934 -53.5 418.567 
697.177 -55.324 423.582 
697.177 -78.063 415.307 
700.259 -53.5 418.567 
700.259 -76.238 410.292 
697.177 -51.674 413.553 
697.177 -74.413 405.277 
691.016 -51.674 413.553 
691.016 -74.413 405.277 
1105.88 47.063 332.684 
1106.05 48.672 332.708 
1106.45 49.261 331.052 
1106.52 47.846 329.92 
1106.13 46.294 330.97 
1085.54 51.711 337.264 
1085.28 52.326 338.643 
1085.92 52.953 336.422 
1085.85 54.091 337.332 
1085.46 53.621 338.658 
1068.18 60.373 342.29 
1068.36 58.939 342.292 
1068.62 58.414 340.787 
1068.61 59.675 339.774 
1068.31 61.063 340.742 
1051.99 67.198 348.421 
1052.74 66.33 350.22 
1051.73 65.452 347.208 
1052.31 63.86 348.343 
1052.9 64.516 350.151 
504.662 43.649 394.906 
506.08 44.24 393.472 
507.04 42.825 392.468 
506.136 41.27 393.364 
504.674 42.039 394.87 
506.036 51.827 395.483 
504.649 51.354 396.609 
506.987 50.692 394.694 
506.099 49.444 395.402 
504.662 50.065 396.587 
504.05 59.354 395.225 
505.45 58.823 393.953 
506.407 60.085 393.069 
505.512 61.474 393.862 
504.063 60.786 395.192 
505.691 66.702 391.35 
504.236 67.326 392.979 
506.61 68.325 390.211 
505.627 70.046 391.233 
504.176 69.132 392.939 
691.016 34.359 424.807 
697.177 34.215 420.11 
691.016 34.215 420.11 
697.177 34.359 424.807 
691.016 -47.122 395.149 
697.177 -47.266 390.453 
691.016 -47.266 390.453 
697.177 -47.122 395.149 
691.016 228.801 491.09 
697.177 228.801 491.09 
691.016 228.944 495.785 
697.177 228.944 495.785 
691.016 495.904 594.538 
697.177 495.76 589.841 
691.016 495.76 589.841 
697.177 495.904 594.538 
687.934 -110.347 397.878 
691.016 -108.521 392.863 
697.177 -108.521 392.863 
700.259 -110.347 397.878 
697.177 -112.171 402.892 
691.016 -112.171 402.892 
571.357 118.958 363.1 
668.08 2.933 363.099 
565.934 -7.62 363.102 
669.883 99.971 363.099 
3 0 1 2 
3 0 3 4 
3 0 2 3 
3 4 3 5 
3 4 5 6 
3 4 7 8 
3 4 6 7 
3 7 8 9 
3 10 8 9 
3 11 8 10 
3 12 8 11 
3 12 13 11 
3 12 14 13 
3 11 15 13 
3 10 16 11 
3 11 16 15 
3 9 17 10 
3 10 17 16 
3 7 18 9 
3 9 18 17 
3 6 19 7 
3 7 19 18 
3 20 21 22 
3 22 21 23 
3 20 24 21 
3 20 25 24 
3 20 26 25 
3 27 28 20 
3 20 28 26 
3 29 27 30 
3 27 30 28 
3 29 31 30 
3 32 8 12 
3 12 32 14 
3 14 32 33 
3 20 34 22 
3 27 35 29 
3 20 35 27 
3 20 35 34 
3 29 36 31 
3 29 35 36 
3 37 38 39 
3 6 40 19 
3 5 41 6 
3 6 41 40 
3 3 5 42 
3 5 42 41 
3 3 43 42 
3 2 44 3 
3 3 44 43 
3 1 45 2 
3 2 45 44 
3 1 46 45 
3 1 47 48 
3 47 48 49 
3 1 48 46 
3 50 51 52 
3 52 51 53 
3 22 54 23 
3 22 34 54 
3 23 54 55 
3 34 56 0 
3 34 54 56 
3 57 1 0 
3 57 1 47 
3 0 56 57 
3 37 58 59 
3 37 39 60 
3 39 60 50 
3 50 60 51 
3 51 60 61 
3 37 60 58 
3 61 62 63 
3 63 62 64 
3 61 60 62 
3 55 65 23 
3 64 65 55 
3 64 62 65 
3 23 66 21 
3 23 65 66 
3 21 67 24 
3 24 67 68 
3 21 66 67 
3 68 67 69 
3 33 70 14 
3 14 70 71 
3 14 72 13 
3 14 71 72 
3 13 73 15 
3 13 72 73 
3 15 74 16 
3 15 73 74 
3 16 75 17 
3 16 74 75 
3 17 75 76 
3 17 77 18 
3 17 76 77 
3 18 19 78 
3 19 78 40 
3 18 78 77 
3 40 79 38 
3 40 78 79 
3 38 80 37 
3 38 79 80 
3 37 81 59 
3 37 80 81 
3 68 69 82 
3 68 83 82 
3 24 84 68 
3 68 84 83 
3 24 25 85 
3 25 85 26 
3 24 85 84 
3 26 85 86 
3 26 87 28 
3 26 86 87 
3 28 88 30 
3 31 88 30 
3 28 87 88 
3 31 88 89 
3 31 36 90 
3 31 90 89 
3 36 91 90 
3 36 92 91 
3 34 93 0 
3 0 93 94 
3 34 95 93 
3 96 97 98 
3 96 98 99 
3 100 97 96 
3 101 102 97 
3 101 97 100 
3 103 102 101 
3 104 103 105 
3 106 107 108 
3 109 110 111 
3 112 108 113 
3 106 108 112 
3 114 102 103 
3 114 103 104 
3 115 102 114 
3 116 36 92 
3 116 92 117 
3 116 118 117 
3 116 118 119 
3 120 121 118 
3 120 118 119 
3 122 123 121 
3 122 124 123 
3 122 121 120 
3 125 124 122 
3 126 127 128 
3 126 128 129 
3 126 130 129 
3 126 131 130 
3 132 124 127 
3 132 125 124 
3 132 127 126 
3 132 131 126 
3 133 134 131 
3 133 131 132 
3 135 98 134 
3 99 98 135 
3 135 95 99 
3 135 134 133 
3 136 113 137 
3 136 102 138 
3 136 137 139 
3 136 138 139 
3 112 113 136 
3 136 115 102 
3 136 112 115 
3 140 107 106 
3 141 107 142 
3 141 140 107 
3 143 144 142 
3 143 145 144 
3 143 142 141 
3 146 147 145 
3 146 145 143 
3 148 149 147 
3 148 147 146 
3 150 151 149 
3 150 149 148 
3 152 32 33 
3 152 33 70 
3 152 70 153 
3 152 153 151 
3 152 151 150 
3 154 146 148 
3 154 148 150 
3 155 8 32 
3 155 32 152 
3 155 152 150 
3 155 8 154 
3 155 150 154 
3 156 143 146 
3 154 8 156 
3 156 146 154 
3 157 141 143 
3 156 8 157 
3 157 143 156 
3 4 158 8 
3 158 140 141 
3 158 8 157 
3 158 141 157 
3 159 160 106 
3 159 106 140 
3 4 159 158 
3 159 140 158 
3 161 162 160 
3 4 161 159 
3 161 160 159 
3 0 163 4 
3 163 164 165 
3 163 165 162 
3 4 163 161 
3 163 161 162 
3 166 167 164 
3 0 166 163 
3 166 164 163 
3 168 94 0 
3 168 110 169 
3 168 169 167 
3 168 94 109 
3 168 109 110 
3 0 168 166 
3 168 167 166 
3 170 34 95 
3 170 95 135 
3 170 133 135 
3 171 35 34 
3 171 120 122 
3 171 122 125 
3 171 125 132 
3 171 132 133 
3 171 34 170 
3 171 133 170 
3 172 119 120 
3 171 35 172 
3 172 120 171 
3 173 35 36 
3 173 36 116 
3 173 116 119 
3 172 35 173 
3 173 172 119 
3 174 175 176 
3 174 175 177 
3 178 179 180 
3 181 182 179 
3 181 179 178 
3 183 184 185 
3 186 184 183 
3 187 184 186 
3 188 189 190 
3 188 190 191 
3 192 193 194 
3 195 182 193 
3 195 193 192 
3 196 181 182 
3 196 197 181 
3 196 182 195 
3 198 199 197 
3 198 197 196 
3 200 201 199 
3 200 202 201 
3 200 199 198 
3 203 204 202 
3 203 205 204 
3 203 202 200 
3 206 207 205 
3 206 208 207 
3 206 205 203 
3 209 210 208 
3 209 203 200 
3 209 208 206 
3 209 203 206 
3 211 212 210 
3 211 213 212 
3 211 210 209 
3 209 200 211 
3 214 215 213 
3 214 198 196 
3 214 200 198 
3 214 213 211 
3 211 200 214 
3 216 217 215 
3 216 184 217 
3 216 187 184 
3 216 218 187 
3 216 196 195 
3 216 215 214 
3 214 196 216 
3 219 220 218 
3 219 195 192 
3 219 218 216 
3 216 195 219 
3 221 222 220 
3 221 220 219 
3 219 192 221 
3 223 224 222 
3 223 222 221 
3 225 226 189 
3 225 227 226 
3 225 228 227 
3 225 189 188 
3 225 188 224 
3 225 224 223 
3 229 230 228 
3 229 231 230 
3 229 228 225 
3 232 233 231 
3 232 231 229 
3 234 235 233 
3 234 236 235 
3 234 233 232 
3 237 238 236 
3 237 236 234 
3 239 240 238 
3 239 238 237 
3 239 234 237 
3 241 242 243 
3 241 243 240 
3 241 240 239 
3 244 242 245 
3 244 245 246 
3 244 242 241 
3 244 239 241 
3 247 246 244 
3 248 249 246 
3 248 250 249 
3 248 246 247 
3 251 252 250 
3 251 253 252 
3 251 250 248 
3 254 255 175 
3 254 256 253 
3 177 175 254 
3 254 177 256 
3 254 253 251 
3 257 258 255 
3 257 255 254 
3 259 194 258 
3 192 194 259 
3 221 192 259 
3 259 221 223 
3 259 258 257 
3 259 223 257 
3 260 225 229 
3 260 229 232 
3 260 232 234 
3 260 234 239 
3 260 244 239 
3 260 247 244 
3 260 248 247 
3 260 251 248 
3 261 223 225 
3 261 254 251 
3 257 223 261 
3 261 257 254 
3 261 225 260 
3 261 251 260 
3 58 191 59 
3 60 188 58 
3 58 191 188 
3 62 224 60 
3 60 188 224 
3 65 222 62 
3 62 224 222 
3 66 220 65 
3 65 222 220 
3 67 218 66 
3 66 220 218 
3 69 187 67 
3 67 218 187 
3 69 187 186 
3 70 238 71 
3 70 238 240 
3 71 236 72 
3 71 236 238 
3 72 235 73 
3 72 235 236 
3 73 233 74 
3 73 233 235 
3 74 231 75 
3 74 231 233 
3 75 230 76 
3 75 230 231 
3 76 228 77 
3 76 228 230 
3 79 227 78 
3 77 227 78 
3 77 227 228 
3 80 226 79 
3 79 227 226 
3 81 189 80 
3 80 226 189 
3 59 190 81 
3 59 190 191 
3 81 189 190 
3 69 183 82 
3 69 183 186 
3 82 185 83 
3 82 185 183 
3 83 184 84 
3 83 184 185 
3 84 217 85 
3 84 217 184 
3 85 215 86 
3 85 215 217 
3 86 213 87 
3 86 213 215 
3 87 212 88 
3 87 212 213 
3 88 210 89 
3 88 210 212 
3 89 208 90 
3 89 208 210 
3 90 207 91 
3 90 207 208 
3 240 243 70 
3 176 174 139 
3 175 176 138 
3 138 139 176 
3 255 175 102 
3 102 138 175 
3 258 255 97 
3 97 102 255 
3 194 258 98 
3 98 97 258 
3 193 194 134 
3 134 98 194 
3 182 193 131 
3 131 134 193 
3 179 180 130 
3 179 182 130 
3 130 131 182 
3 70 153 243 
3 243 242 153 
3 242 245 151 
3 153 151 242 
3 245 246 149 
3 151 149 245 
3 246 249 147 
3 149 147 246 
3 249 250 145 
3 147 145 249 
3 250 252 144 
3 145 144 250 
3 252 253 142 
3 144 142 252 
3 142 107 253 
3 256 253 108 
3 108 107 253 
3 177 256 113 
3 113 108 256 
3 174 177 137 
3 139 137 174 
3 137 113 177 
3 180 178 129 
3 130 129 180 
3 178 181 128 
3 129 128 178 
3 181 197 127 
3 128 127 181 
3 197 199 124 
3 127 124 197 
3 199 201 123 
3 124 123 199 
3 201 202 121 
3 123 121 201 
3 202 204 118 
3 121 118 202 
3 204 205 117 
3 118 117 204 
3 92 91 207 
3 205 207 92 
3 117 92 205 
3 262 263 264 
3 264 265 266 
3 264 265 263 
3 266 267 268 
3 266 267 265 
3 268 269 270 
3 268 269 267 
3 267 271 269 
3 265 272 267 
3 267 271 272 
3 263 273 265 
3 265 272 273 
3 263 273 274 
3 274 275 273 
3 274 275 276 
3 273 277 272 
3 273 277 275 
3 272 278 271 
3 272 278 277 
3 271 279 278 
3 280 264 262 
3 281 266 264 
3 280 264 281 
3 282 268 266 
3 281 266 282 
3 283 270 268 
3 282 268 283 
3 284 285 270 
3 284 282 281 
3 283 270 284 
3 284 282 283 
3 286 280 281 
3 284 285 286 
3 284 281 286 
3 278 287 279 
3 277 288 278 
3 278 287 288 
3 275 289 277 
3 277 288 289 
3 276 290 275 
3 275 289 290 
3 291 292 276 
3 276 290 292 
3 291 292 293 
3 262 263 294 
3 294 274 263 
3 270 295 285 
3 270 295 269 
3 269 296 271 
3 271 279 296 
3 269 296 295 
3 297 276 274 
3 297 276 291 
3 294 274 297 
3 298 296 279 
3 299 297 291 
3 300 301 302 
3 303 302 300 
3 303 304 300 
3 305 304 303 
3 306 302 301 
3 303 302 306 
3 307 308 301 
3 306 301 307 
3 307 303 306 
3 309 308 307 
3 310 292 293 
3 311 290 292 
3 309 290 311 
3 311 292 310 
3 312 288 287 
3 312 289 288 
3 308 289 312 
3 313 287 312 
3 314 289 290 
3 314 308 289 
3 314 309 290 
3 309 308 314 
3 315 301 308 
3 315 308 312 
3 315 313 312 
3 300 301 316 
3 316 301 315 
3 317 304 300 
3 317 300 316 
3 318 303 307 
3 319 305 303 
3 319 303 318 
3 320 307 309 
3 320 309 311 
3 320 310 311 
3 318 307 320 
3 321 322 323 
3 321 305 304 
3 321 323 305 
3 324 322 321 
3 325 326 322 
3 325 322 324 
3 327 328 326 
3 327 326 325 
3 329 330 331 
3 329 331 328 
3 329 328 327 
3 332 333 330 
3 332 330 329 
3 334 333 332 
3 335 336 333 
3 335 333 334 
3 337 338 336 
3 337 336 335 
3 339 340 338 
3 339 338 337 
3 341 342 343 
3 341 343 340 
3 341 340 339 
3 344 345 342 
3 344 342 341 
3 346 345 344 
3 347 345 346 
3 348 347 345 
3 349 323 322 
3 349 322 326 
3 349 326 328 
3 349 328 331 
3 349 331 330 
3 349 330 333 
3 349 333 336 
3 349 336 338 
3 349 338 340 
3 349 340 343 
3 349 343 342 
3 349 348 345 
3 349 342 345 
3 350 347 346 
3 350 344 346 
3 350 341 344 
3 350 339 341 
3 350 337 339 
3 350 335 337 
3 350 334 335 
3 350 332 334 
3 350 329 332 
3 350 327 329 
3 350 325 327 
3 350 324 325 
3 350 321 324 
3 351 317 304 
3 321 304 351 
3 351 321 350 
3 352 319 305 
3 323 305 352 
3 352 323 349 
3 352 353 319 
3 352 353 354 
3 319 355 318 
3 320 355 318 
3 320 355 356 
3 319 355 353 
3 320 357 310 
3 320 357 356 
3 358 351 317 
3 358 317 359 
3 317 360 316 
3 317 360 359 
3 316 361 315 
3 316 361 360 
3 315 362 313 
3 315 362 361 
3 362 357 363 
3 364 365 366 
3 366 367 365 
3 368 369 370 
3 369 371 372 
3 370 372 369 
3 371 373 374 
3 372 374 371 
3 373 375 376 
3 374 376 373 
3 376 377 375 
3 378 379 380 
3 381 380 378 
3 379 382 383 
3 364 382 383 
3 366 383 364 
3 380 383 379 
3 376 377 372 
3 374 376 372 
3 377 381 370 
3 370 372 377 
3 381 380 367 
3 367 370 381 
3 380 383 366 
3 366 367 380 
3 368 369 373 
3 369 371 373 
3 373 375 368 
3 365 368 378 
3 375 378 368 
3 364 365 379 
3 378 379 365 
3 364 382 379 
3 365 368 384 
3 384 365 367 
3 384 368 370 
3 367 370 384 
3 385 386 387 
3 388 385 389 
3 389 387 385 
3 390 388 391 
3 391 389 388 
3 386 390 392 
3 387 392 386 
3 392 391 390 
3 393 394 395 
3 396 395 397 
3 396 395 393 
3 398 397 399 
3 398 397 396 
3 400 399 394 
3 393 394 400 
3 400 399 398 
3 401 402 403 
3 404 405 406 
3 401 405 404 
3 401 402 405 
3 406 407 408 
3 406 405 407 
3 408 409 410 
3 408 407 409 
3 411 412 413 
3 411 414 415 
3 411 412 414 
3 415 416 417 
3 415 414 416 
3 417 418 419 
3 417 416 418 
3 419 418 420 
3 421 415 417 
3 419 409 420 
3 417 407 421 
3 419 407 417 
3 419 407 409 
3 415 405 421 
3 421 405 407 
3 411 402 415 
3 415 402 405 
3 413 403 411 
3 411 403 402 
3 412 401 413 
3 413 401 403 
3 414 404 412 
3 412 404 401 
3 416 406 418 
3 418 408 420 
3 418 406 408 
3 420 409 410 
3 420 408 410 
3 422 423 424 
3 424 425 423 
3 426 427 428 
3 427 429 430 
3 428 430 427 
3 429 431 432 
3 430 432 429 
3 431 433 434 
3 432 434 431 
3 434 435 433 
3 436 437 438 
3 439 438 436 
3 437 440 441 
3 422 440 441 
3 424 441 422 
3 438 441 437 
3 434 435 430 
3 432 434 430 
3 435 439 428 
3 428 430 435 
3 439 438 425 
3 425 428 439 
3 438 441 424 
3 424 425 438 
3 426 427 431 
3 427 429 431 
3 431 433 426 
3 423 426 436 
3 433 436 426 
3 422 423 437 
3 436 437 423 
3 422 440 437 
3 423 426 442 
3 442 423 425 
3 442 426 428 
3 425 428 442 
3 443 444 445 
3 446 443 447 
3 447 445 443 
3 448 446 449 
3 449 447 446 
3 444 448 450 
3 445 450 444 
3 450 449 448 
3 451 452 453 
3 454 453 455 
3 454 453 451 
3 456 455 457 
3 456 455 454 
3 458 457 452 
3 451 452 458 
3 458 457 456 
3 459 460 461 
3 462 463 464 
3 459 463 462 
3 459 460 463 
3 464 465 466 
3 464 463 465 
3 466 467 468 
3 466 465 467 
3 469 470 471 
3 469 472 473 
3 469 470 472 
3 473 474 475 
3 473 472 474 
3 475 476 477 
3 475 474 476 
3 477 476 478 
3 479 473 475 
3 477 467 478 
3 475 465 479 
3 477 465 475 
3 477 465 467 
3 473 463 479 
3 479 463 465 
3 469 460 473 
3 473 460 463 
3 471 461 469 
3 469 461 460 
3 470 459 471 
3 471 459 461 
3 472 462 470 
3 470 462 459 
3 474 464 476 
3 476 466 478 
3 476 464 466 
3 478 467 468 
3 478 466 468 
3 291 480 293 
3 279 481 287 
3 279 481 482 
3 291 480 483 
3 484 287 481 
3 485 480 293 
3 486 484 482 
3 486 482 487 
3 488 487 486 
3 489 490 488 
3 488 487 490 
3 491 485 483 
3 489 485 491 
3 489 490 491 
3 298 482 279 
3 298 492 493 
3 299 483 291 
3 299 494 495 
3 299 483 496 
3 299 494 496 
3 298 482 497 
3 298 492 497 
3 491 483 496 
3 498 499 500 
3 498 494 500 
3 498 496 491 
3 498 494 496 
3 491 501 490 
3 501 502 499 
3 491 501 498 
3 498 499 501 
3 487 482 503 
3 490 503 487 
3 503 492 502 
3 503 497 482 
3 503 492 497 
3 490 503 501 
3 501 502 503 
3 493 504 492 
3 502 504 492 
3 500 505 499 
3 499 505 502 
3 495 506 494 
3 494 506 500 
3 502 507 504 
3 502 505 507 
3 500 508 505 
3 500 506 508 
3 485 293 310 
3 313 484 287 
3 509 510 511 
3 512 513 509 
3 509 510 513 
3 514 515 512 
3 512 513 515 
3 514 515 516 
3 516 517 515 
3 516 517 518 
3 515 519 513 
3 515 519 517 
3 513 520 510 
3 513 520 519 
3 519 521 520 
3 517 522 519 
3 519 521 522 
3 518 523 517 
3 517 522 523 
3 518 523 524 
3 525 526 527 
3 526 528 529 
3 527 529 526 
3 528 530 531 
3 529 531 528 
3 530 532 533 
3 531 533 530 
3 532 525 534 
3 534 527 525 
3 533 534 532 
3 534 527 535 
3 533 534 536 
3 536 535 534 
3 531 533 537 
3 537 536 533 
3 529 531 538 
3 538 537 531 
3 527 529 539 
3 535 539 527 
3 539 538 529 
3 539 538 540 
3 538 537 541 
3 540 541 538 
3 537 536 542 
3 541 542 537 
3 536 535 543 
3 542 543 536 
3 535 539 544 
3 544 540 539 
3 543 544 535 
3 545 546 547 
3 547 548 549 
3 547 548 546 
3 549 550 551 
3 549 550 548 
3 551 552 553 
3 551 552 550 
3 553 554 545 
3 545 546 554 
3 553 554 552 
3 552 555 554 
3 550 556 552 
3 552 555 556 
3 548 557 550 
3 550 556 557 
3 546 558 548 
3 548 557 558 
3 554 559 546 
3 554 559 555 
3 546 558 559 
3 555 560 559 
3 559 561 558 
3 559 561 560 
3 558 562 557 
3 558 562 561 
3 557 563 556 
3 557 563 562 
3 556 564 555 
3 555 560 564 
3 556 564 563 
3 565 566 567 
3 566 568 569 
3 567 569 566 
3 568 570 571 
3 569 571 568 
3 570 572 573 
3 571 573 570 
3 572 565 574 
3 574 567 565 
3 573 574 572 
3 574 567 575 
3 573 574 576 
3 576 575 574 
3 571 573 577 
3 577 576 573 
3 569 571 578 
3 578 577 571 
3 567 569 579 
3 575 579 567 
3 579 578 569 
3 579 578 580 
3 578 577 581 
3 580 581 578 
3 577 576 582 
3 581 582 577 
3 576 575 583 
3 582 583 576 
3 575 579 584 
3 584 580 579 
3 583 584 575 
3 585 586 587 
3 587 588 589 
3 587 588 586 
3 589 590 591 
3 589 590 588 
3 591 592 593 
3 591 592 590 
3 593 594 585 
3 585 586 594 
3 593 594 592 
3 592 595 594 
3 590 596 592 
3 592 595 596 
3 588 597 590 
3 590 596 597 
3 586 598 588 
3 588 597 598 
3 594 599 586 
3 594 599 595 
3 586 598 599 
3 595 600 599 
3 599 601 598 
3 599 601 600 
3 598 602 597 
3 598 602 601 
3 597 603 596 
3 597 603 602 
3 596 604 595 
3 595 600 604 
3 596 604 603 
3 605 199 201 
3 605 202 201 
3 606 197 199 
3 606 199 605 
3 607 181 197 
3 607 197 606 
3 608 181 607 
3 609 178 181 
3 609 181 608 
3 610 180 178 
3 610 178 609 
3 611 179 180 
3 611 180 610 
3 612 182 179 
3 612 179 611 
3 613 193 182 
3 613 182 612 
3 614 194 193 
3 614 193 613 
3 615 258 194 
3 615 194 614 
3 616 255 258 
3 616 258 615 
3 617 175 255 
3 617 255 616 
3 618 176 175 
3 618 175 617 
3 619 174 176 
3 619 177 174 
3 619 176 618 
3 620 177 619 
3 621 256 177 
3 621 177 620 
3 622 253 256 
3 622 256 621 
3 623 252 253 
3 623 253 622 
3 624 250 252 
3 624 252 623 
3 625 246 249 
3 625 249 250 
3 625 250 624 
3 626 246 625 
3 627 245 246 
3 627 246 626 
3 628 242 245 
3 628 245 627 
3 629 243 242 
3 629 240 243 
3 629 242 628 
3 630 629 240 
3 631 238 240 
3 631 240 630 
3 632 236 238 
3 632 238 631 
3 633 235 236 
3 633 236 632 
3 634 233 235 
3 634 235 633 
3 635 231 233 
3 635 233 634 
3 636 230 231 
3 636 231 635 
3 637 228 230 
3 637 230 636 
3 638 227 228 
3 638 228 637 
3 639 226 227 
3 639 227 638 
3 640 189 226 
3 640 226 639 
3 641 190 189 
3 641 189 640 
3 642 191 190 
3 642 190 641 
3 643 188 191 
3 643 191 642 
3 644 224 188 
3 644 188 643 
3 645 222 224 
3 645 224 644 
3 646 220 222 
3 646 222 645 
3 647 218 220 
3 647 220 646 
3 648 187 218 
3 648 218 647 
3 649 186 187 
3 649 187 648 
3 650 183 186 
3 650 186 649 
3 651 185 183 
3 651 183 650 
3 652 184 185 
3 652 185 651 
3 653 217 184 
3 653 184 652 
3 654 215 217 
3 654 217 653 
3 655 213 215 
3 655 215 654 
3 656 212 213 
3 656 213 655 
3 657 210 212 
3 657 212 656 
3 658 208 210 
3 658 210 657 
3 659 207 208 
3 659 208 658 
3 660 205 207 
3 660 207 659 
3 661 204 205 
3 661 205 660 
3 662 202 204 
3 605 202 662 
3 662 204 661 
3 90 663 91 
3 89 664 90 
3 90 663 664 
3 88 665 89 
3 89 664 665 
3 87 666 88 
3 88 665 666 
3 86 667 87 
3 87 666 667 
3 85 668 86 
3 86 667 668 
3 85 668 669 
3 670 83 84 
3 670 84 85 
3 670 85 669 
3 671 83 670 
3 672 69 82 
3 672 82 83 
3 672 83 671 
3 673 67 69 
3 673 69 672 
3 674 66 67 
3 674 67 673 
3 675 66 674 
3 676 65 66 
3 676 66 675 
3 677 62 65 
3 677 65 676 
3 678 58 60 
3 678 60 62 
3 678 62 677 
3 679 58 678 
3 680 59 58 
3 680 81 59 
3 680 58 679 
3 681 81 680 
3 682 80 81 
3 682 81 681 
3 683 79 80 
3 683 80 682 
3 684 78 79 
3 684 79 683 
3 685 77 78 
3 685 78 684 
3 686 76 77 
3 686 77 685 
3 687 75 76 
3 687 76 686 
3 688 74 75 
3 688 75 687 
3 689 73 74 
3 689 74 688 
3 690 71 72 
3 690 72 73 
3 690 73 689 
3 691 71 690 
3 692 70 71 
3 692 71 691 
3 92 91 663 
3 693 663 92 
3 694 693 117 
3 117 92 693 
3 695 694 118 
3 118 117 694 
3 696 695 121 
3 121 118 695 
3 697 696 123 
3 123 121 696 
3 124 698 699 
3 698 697 124 
3 124 123 697 
3 127 124 699 
3 700 128 701 
3 699 128 700 
3 128 127 699 
3 129 128 701 
3 702 137 703 
3 704 137 702 
3 703 113 705 
3 137 113 703 
3 705 108 706 
3 113 108 705 
3 706 107 707 
3 108 107 706 
3 707 142 708 
3 142 107 707 
3 708 144 709 
3 144 142 708 
3 709 145 710 
3 145 144 709 
3 710 147 711 
3 147 145 710 
3 711 149 712 
3 149 147 711 
3 151 149 712 
3 70 153 692 
3 713 153 692 
3 712 153 713 
3 153 151 712 
3 701 130 714 
3 130 129 701 
3 714 131 715 
3 130 131 714 
3 716 134 717 
3 715 134 716 
3 131 134 715 
3 717 98 718 
3 134 98 717 
3 718 97 719 
3 98 97 718 
3 97 102 719 
3 720 138 704 
3 719 138 720 
3 102 138 719 
3 139 137 704 
3 138 139 704 
3 721 722 723 
3 724 725 723 
3 724 726 725 
3 724 727 726 
3 724 723 721 
3 728 722 729 
3 728 730 727 
3 728 722 721 
3 728 727 724 
3 728 721 724 
3 731 729 732 
3 728 729 731 
3 731 730 728 
3 733 734 735 
3 733 735 730 
3 733 730 731 
3 736 737 734 
3 736 732 737 
3 731 732 736 
3 736 734 733 
3 736 733 731 
3 731 738 736 
3 736 739 733 
3 736 739 738 
3 733 740 731 
3 731 738 740 
3 733 740 739 
3 740 738 739 
3 724 741 728 
3 721 742 724 
3 724 741 742 
3 728 743 721 
3 728 743 741 
3 721 742 743 
3 743 742 741 
3 730 744 735 
3 727 745 730 
3 745 739 740 
3 741 740 745 
3 730 744 745 
3 744 739 745 
3 726 746 727 
3 746 741 742 
3 727 745 746 
3 745 741 746 
3 726 746 747 
3 746 742 747 
3 737 748 732 
3 748 740 738 
3 734 749 737 
3 737 748 749 
3 748 738 749 
3 750 738 739 
3 750 739 744 
3 734 749 750 
3 749 738 750 
3 747 742 751 
3 725 752 723 
3 752 742 743 
3 725 752 751 
3 751 742 752 
3 723 753 722 
3 753 741 743 
3 723 753 752 
3 752 743 753 
3 722 754 729 
3 732 754 729 
3 754 741 740 
3 732 754 748 
3 754 740 748 
3 722 754 753 
3 753 741 754 
3 755 756 757 
3 755 756 758 
3 755 759 757 
3 755 759 760 
3 760 761 759 
3 760 761 762 
3 762 763 761 
3 762 763 764 
3 764 765 763 
3 764 765 766 
3 766 756 765 
3 766 756 758 
3 765 767 768 
3 765 767 756 
3 763 768 769 
3 763 768 765 
3 761 769 770 
3 761 769 763 
3 759 770 771 
3 759 770 761 
3 757 771 772 
3 757 771 759 
3 757 767 772 
3 757 767 756 
3 772 773 774 
3 772 773 767 
3 772 775 774 
3 772 775 771 
3 771 776 775 
3 771 776 770 
3 770 777 776 
3 770 777 769 
3 769 778 777 
3 769 778 768 
3 768 773 778 
3 768 773 767 
3 779 780 781 
3 779 780 782 
3 783 781 784 
3 783 781 779 
3 785 784 786 
3 785 784 783 
3 787 786 788 
3 787 786 785 
3 789 788 790 
3 789 788 787 
3 789 780 790 
3 789 780 782 
3 532 791 792 
3 530 792 793 
3 530 792 532 
3 528 793 794 
3 528 793 530 
3 526 794 795 
3 526 794 528 
3 525 795 791 
3 532 791 525 
3 525 795 526 
3 560 796 797 
3 561 798 796 
3 560 796 561 
3 562 799 798 
3 561 798 562 
3 563 800 799 
3 562 799 563 
3 564 797 800 
3 564 797 560 
3 563 800 564 
3 572 801 802 
3 570 802 803 
3 570 802 572 
3 568 803 804 
3 568 803 570 
3 566 804 805 
3 566 804 568 
3 565 805 801 
3 572 801 565 
3 565 805 566 
3 600 806 807 
3 601 808 806 
3 600 806 601 
3 602 809 808 
3 601 808 602 
3 603 810 809 
3 602 809 603 
3 604 807 810 
3 604 807 600 
3 603 810 604 
3 544 540 811 
3 543 544 812 
3 812 811 544 
3 542 543 813 
3 813 812 543 
3 541 542 814 
3 814 813 542 
3 540 541 815 
3 811 815 540 
3 815 814 541 
3 816 545 817 
3 818 553 816 
3 816 545 553 
3 819 551 818 
3 818 553 551 
3 820 549 819 
3 819 551 549 
3 817 547 820 
3 817 547 545 
3 820 549 547 
3 584 580 821 
3 583 584 822 
3 822 821 584 
3 582 583 823 
3 823 822 583 
3 581 582 824 
3 824 823 582 
3 580 581 825 
3 821 825 580 
3 825 824 581 
3 826 585 827 
3 828 593 826 
3 826 585 593 
3 829 591 828 
3 828 593 591 
3 830 589 829 
3 829 591 589 
3 827 587 830 
3 827 587 585 
3 830 589 587 
3 831 832 833 
3 831 832 834 
3 835 836 837 
3 835 836 838 
3 831 837 833 
3 831 837 835 
3 834 836 832 
3 834 836 838 
3 839 840 841 
3 841 842 840 
3 834 840 842 
3 834 840 832 
3 831 839 841 
3 831 839 833 
3 833 840 839 
3 833 840 832 
3 831 842 841 
3 831 842 834 
3 843 844 845 
3 843 844 846 
3 841 846 843 
3 841 846 842 
3 839 844 845 
3 839 844 840 
3 841 845 843 
3 841 845 839 
3 842 844 846 
3 842 844 840 
3 755 782 789 
3 755 782 758 
3 760 785 787 
3 760 785 762 
3 762 783 785 
3 762 783 764 
3 764 779 783 
3 764 779 766 
3 766 782 779 
3 766 782 758 
3 760 838 834 
3 760 838 787 
3 755 835 831 
3 755 835 789 
3 789 838 835 
3 789 838 787 
3 755 834 831 
3 755 834 760 
3 790 847 848 
3 790 847 780 
3 790 849 848 
3 790 849 788 
3 788 850 849 
3 788 850 786 
3 786 851 850 
3 786 851 784 
3 784 852 851 
3 784 852 781 
3 781 847 852 
3 781 847 780 
3 851 847 852 
3 849 847 790 
3 849 847 848 
3 847 850 849 
3 847 850 851 
3 853 854 855 
3 856 854 853 
