ply
format ascii 1.0
element vertex 961
property float32 x
property float32 y
property float32 z
element face 1712
property list uint8 int32 vertex_indices
end_header
1.21 1.22 2.08 
1.12 1.41 1.94 
1.13 1.31 1.78 
1.25 1.2 1.97 
1.23 1.13 1.86 
1.35 1.07 1.68 
1.24 1.19 1.61 
1.39 1.16 1.51 
1.54 1.11 1.61 
1.35 1.1 1.84 
1.37 1.16 2 
1.11 1.44 2.12 
1.36 1.21 2.16 
1.54 1.2 1.96 
1.26 1.42 2.35 
1.23 1.55 2.33 
1.14 1.49 2.26 
1.18 1.41 2.3 
1.37 1.3 2.26 
1.59 1.61 2.37 
1.43 1.76 2.37 
1.64 1.68 2.44 
1.6 1.96 2.39 
1.83 1.64 2.39 
1.64 1.46 2.35 
1.43 1.41 2.36 
1.54 1.35 2.19 
1.71 1.24 1.94 
1.79 1.83 2.41 
1.89 1.91 2.42 
1.99 2.06 2.33 
1.71 2.12 2.42 
1.87 1.58 2.29 
1.85 1.45 2.18 
1.72 1.39 2.23 
1.8 1.4 1.9 
1.86 1.3 1.61 
1.73 1.16 1.68 
1.9 1.41 1.5 
1.88 1.46 1.73 
1.84 1.47 1.95 
2.02 1.59 2.05 
2 1.62 2.11 
2.01 1.67 2.21 
2.01 1.77 2.34 
2.13 1.98 2.23 
2.21 1.91 2.15 
2.24 1.82 1.93 
2.13 1.66 1.94 
2.22 1.77 1.77 
2.13 1.63 1.82 
2.09 1.51 1.61 
1.52 1.2 1.45 
1.72 1.15 1.53 
1.69 1.29 1.37 
1.79 1.4 1.34 
1.92 1.38 1.37 
1.98 1.47 1.17 
2.05 1.41 1.42 
2.18 1.55 1.47 
2.1 1.48 1.35 
2.19 1.65 1.17 
2.14 1.5 1.28 
2.31 1.81 1.4 
2.28 1.76 1.17 
2.14 1.8 1 
2.08 1.65 1.08 
2.27 1.78 1.62 
2.32 2 1.77 
2.29 1.98 2.01 
2.37 2.18 1.74 
2.33 2.18 2.12 
2.33 1.99 1.35 
2.45 2.29 1.71 
2.51 2.4 1.34 
2.27 2.16 1.28 
2.14 2.1 1.04 
2.3 1.91 1.17 
2.56 2.67 0.93 
2.16 2.19 2.45 
2.44 2.51 2.18 
2.38 2.51 2.37 
2.29 2.52 2.5 
2.14 2.48 2.59 
1.9 2.28 2.54 
2.63 2.62 1.55 
2.77 2.84 1.26 
2.78 2.98 1.15 
2.38 2.58 0.7 
2.37 2.81 0.54 
2.75 3.23 0.85 
2.52 2.89 2.22 
2.57 2.74 1.92 
2.88 3.09 1.68 
2.91 3.17 1.38 
2.74 2.87 1.96 
2.85 2.9 2.07 
3.03 3.04 1.78 
2.91 2.9 1.85 
2.98 2.84 1.94 
2.65 3.02 2.25 
2.82 3.01 2.2 
2.99 3.02 2.18 
3.14 2.99 2.11 
2.99 3.22 2.2 
3.01 2.85 2.01 
3.2 3.17 2.02 
2.99 3.39 1.92 
3.14 3.19 1.85 
3.16 3.18 1.75 
3.25 3.33 1.64 
3.07 3.56 1.68 
3.18 3.35 1.48 
2.99 3.58 1.39 
2.93 3.38 1.33 
3.03 3.21 1.43 
2.99 3.11 1.54 
3.04 3.09 1.68 
3.07 3.13 1.78 
3.17 3.08 1.74 
3.13 2.99 1.74 
3.24 3.14 1.81 
3.3 3.12 1.98 
3.08 2.79 1.9 
3.11 2.8 1.97 
3.24 2.94 2.07 
3.11 3.13 1.39 
3.26 3.27 1.44 
3.07 3.03 1.5 
3.12 3.01 1.64 
3.24 3.1 1.71 
3.33 3.25 1.6 
2.84 3.32 1.1 
2.73 3.59 0.84 
2.89 3.71 1.3 
2.51 3.65 2.32 
2.34 3.46 2.38 
1.64 3.59 2.57 
2.14 3.43 2.43 
1.99 3.96 2.44 
2.67 3.79 2.1 
2.8 3.94 1.8 
2.17 4.19 2.24 
1.64 3.95 2.62 
1.23 3.93 2.67 
1.63 4.33 2.57 
1.79 4.59 2.31 
1.16 4.68 2.6 
0.89 4.29 2.71 
0.47 4.7 2.75 
0.27 4.8 2.81 
0.15 5.15 2.76 
0.02 5.04 2.85 
-0.22 5.18 2.81 
-0.07 5.31 2.76 
0.03 5.4 2.51 
0.27 5.28 2.45 
0.63 4.92 2.51 
0.51 4.84 2.68 
1.37 4.88 2.34 
0.65 5.13 2.24 
0.27 5.28 2.24 
0 5.38 2.23 
-0.03 5.34 2.28 
0.36 5.44 2.1 
0.14 5.56 1.97 
0.76 5.26 1.99 
1.5 4.97 2.07 
1.9 4.7 2 
2.31 4.4 1.93 
2.79 3.96 1.54 
0.4 5.51 1.89 
0.75 5.29 1.83 
0.43 5.42 1.71 
1.24 5.14 1.92 
1.6 4.96 1.8 
1.91 4.75 1.77 
2.32 4.44 1.69 
2.56 3.1 0.61 
2.31 3.39 0.33 
2.02 3.55 0.21 
2.37 3.94 0.54 
2.22 4.4 0.84 
2.7 3.9 1.12 
1.98 3.37 0.17 
1.56 3.65 0.16 
1.73 3.86 0.23 
1.94 4.13 0.36 
2.28 4.44 1.2 
2.09 4.31 0.58 
1.7 4.89 1.3 
1.63 4.89 1.02 
1.52 4.79 0.74 
1.35 4.65 0.57 
1.41 4.22 0.34 
0.89 4 0.37 
0.89 4.51 0.58 
0.95 5.07 1.02 
1.05 5.24 1.67 
1.37 5.08 1.34 
0.87 5.21 1.39 
0.71 5.14 1.2 
0.64 4.93 0.93 
0.44 5.25 1.51 
0.81 5.26 1.59 
0.32 5.07 1.39 
-0.07 5.22 1.42 
-0.05 5.25 1.7 
-0.14 5.27 1.02 
0.43 5.05 0.94 
0.53 5.06 0.55 
0.74 4.67 0.27 
0.64 4.26 -0.01 
0.39 5.16 0.15 
0.62 4.95 0.18 
0.6 4.81 -0.13 
0.61 4.61 -0.1 
0.42 4.53 -0.37 
0.31 3.86 -0.17 
0.31 4.4 -0.45 
0.69 3.86 0.15 
-0.08 4.49 -0.43 
0.13 3.88 -0.26 
-0.17 5.29 0.58 
-0.21 5.3 0.19 
-0.54 5.27 0.85 
-0.51 5.3 1.23 
-0.44 5.32 1.46 
-0.17 5.17 2.02 
-0.59 5.2 2.16 
-0.25 5.12 2.22 
-0.74 5.04 2.57 
0.04 5.45 1.76 
-0.08 5.22 2.18 
-0.07 5.29 2.27 
-0.07 5.28 2.18 
-0.34 5.04 2.47 
-0.32 4.99 2.76 
-0.21 5.11 2.82 
-0.62 4.88 2.95 
-0.48 4.78 3.41 
-0.98 4.82 3.09 
-1.07 5 2.77 
-0.41 5.67 2.75 
-0.31 5.76 2.5 
-0.56 5.54 2.8 
-0.37 5.7 2.27 
-0.41 5.65 2.26 
-0.59 5.49 2.23 
-0.68 5.4 2.46 
-0.1 5.73 1.97 
-0.24 5.55 2.23 
-0.2 5.62 1.76 
-0.29 5.42 1.7 
-0.41 5.34 2.02 
-0.31 5.45 2.18 
-0.86 4.58 3.53 
-0.83 4.5 3.74 
-1.06 4.14 3.92 
-1.15 4.12 3.78 
-1.27 4.15 3.62 
-1.1 4.66 3.33 
-1.34 4.64 3.17 
-1.58 4.34 3.16 
-1.73 4.58 2.67 
-1.47 4.82 2.7 
-1.29 4.89 2.9 
-1.12 5.15 2.39 
-1.58 4.99 2.16 
-1.34 5.18 1.91 
-0.86 5.32 1.49 
-0.85 5.25 2.13 
-0.64 5.17 0.5 
-0.75 5.02 0.27 
-0.41 4.84 -0.19 
-0.95 4.48 0.11 
-1.11 4.78 0.4 
-0.86 5.14 0.7 
-1.15 5.1 0.93 
-1.34 4.69 0.45 
-1.48 4.8 0.7 
-1.59 4.96 1.4 
-1.29 5.17 1.47 
-1.77 4.82 1.65 
-1.94 4.56 1.19 
-1.76 4.67 0.92 
-0.43 4.46 -0.26 
-0.24 3.95 -0.24 
-0.83 4.08 -0.23 
-0.75 3.86 -0.31 
-1.19 4.14 -0.22 
-1.59 4.11 -0.08 
-1.4 4.44 0.15 
-1.44 3.83 -0.29 
-1.89 3.97 0.16 
-1.76 3.66 0.05 
-1.87 4.27 0.42 
-2.11 3.75 0.41 
-1.91 3.46 0.28 
-2.09 3.19 0.62 
-2.43 3.4 0.93 
-2.2 2.75 1.06 
-2.34 3.8 0.98 
-2.11 4.06 0.68 
-1.81 4.68 2.35 
-1.89 4.69 1.9 
-2.15 4.22 2.18 
-2.23 4.22 1.59 
-2.46 3.57 1.24 
-2.38 3.55 1.74 
-2.38 3.29 1.52 
-2.4 3.06 1.7 
-2.38 3.01 1.25 
-2.49 3.22 1.09 
-2.28 3.86 2.04 
-2.13 3.74 2.46 
-2.34 3.37 2.02 
-2.33 3.09 2.01 
-2.06 4.21 2.39 
-1.99 4.15 2.57 
-1.8 3.71 2.97 
-1.75 3.98 3.05 
-2.17 3.19 2.38 
-1.87 3.33 2.79 
-1.98 3.03 2.63 
-2.14 2.51 2.25 
-1.87 2.27 2.41 
-1.91 2.47 2.52 
-1.8 2.04 2.26 
-2.17 2.24 1.84 
-2.3 2.67 1.92 
-1.29 3.72 3.74 
-1.36 3.73 3.62 
-1.51 4.09 3.42 
-1.12 3.68 4.11 
-1.05 3.42 3.95 
-1.16 3.3 3.78 
-1.26 3.04 3.47 
-1.46 3.39 3.37 
-1.63 3.73 3.2 
-1.45 3.17 3.23 
-1.48 2.9 3.1 
-0.9 3.29 4.04 
-0.65 3.01 3.62 
-0.45 3.33 3.85 
-1.07 3.18 3.75 
-0.97 2.66 3.41 
-0.69 2.83 3.48 
-0.84 2.85 3.57 
-0.66 2.58 3.19 
-0.55 2.33 2.7 
-0.93 2.14 2.92 
-1.21 2.38 3.09 
-1.38 2.54 3.08 
-1.36 2.8 3.25 
-1.67 2.54 2.83 
-0.55 1.94 2.5 
-0.7 1.99 2.75 
-0.81 1.78 2.76 
-0.76 1.65 2.6 
-0.92 1.64 2.55 
-1.07 1.99 2.77 
-1.38 2.26 2.82 
-1.57 2.16 2.51 
-0.61 1.8 2.33 
-0.77 1.7 2.14 
-1.09 1.66 2.25 
-1.33 1.76 2.3 
-1.33 2.12 2.62 
-1.91 2.01 2 
-1.65 1.85 2.09 
-1.45 1.84 1.85 
-1.26 1.69 1.9 
-2.01 2.03 1.73 
-2.08 2.19 1.62 
-1.9 2.25 1.35 
-1.62 1.96 1.64 
-2.37 2.88 1.59 
-2.33 2.77 1.49 
-2.19 2.63 1.4 
-2.21 2.84 1.2 
2.47 2.54 3.09 
2.4 2.53 3.19 
2.48 2.46 3.23 
2.55 2.47 3.13 
2.42 2.39 2.94 
2.5 2.32 2.98 
-0.06 3 5.19 
0.03 2.83 5.18 
0.02 2.79 5.09 
0.15 2.72 4.95 
0.81 2.82 3.18 
0.98 2.84 3.28 
0.65 3.08 3.36 
0.56 2.9 3.03 
1.09 3.1 3.53 
0.6 3.23 3.42 
1.3 3.03 3.36 
1.24 3.14 3.52 
1.21 3.26 3.49 
1.06 3.17 3.56 
0.6 3.71 3.42 
1.63 3.37 3.16 
0.38 3.45 3.46 
0.25 3.64 3.43 
0.11 3.84 3.42 
0.52 4 3.37 
0.44 4.39 3.3 
0.14 4.26 3.43 
0.13 4.52 3.46 
0.24 4.66 3.35 
0.13 4.81 3.38 
-0.19 5.14 3.42 
-0.17 4.84 3.51 
-0.33 4.88 3.48 
-0.33 4.85 3.48 
-0.35 4.94 3.49 
-0.43 4.73 3.76 
-0.17 5.24 3.26 
0.08 5.03 3.06 
-0.18 5.24 3.1 
-0.12 5.16 2.85 
0.01 5.05 2.85 
-0.13 5.16 2.85 
0.94 4.21 2.93 
0.86 4.24 2.73 
0.26 4.81 2.81 
1.72 3.56 2.77 
1.35 3.77 3.08 
1.65 3.56 2.59 
2.21 3.37 2.41 
2.32 3.41 2.73 
2.13 3.27 3.02 
1.76 2.93 3.25 
2.65 3.29 2.49 
3.04 3.14 2.59 
2.94 2.99 2.31 
3.05 3.07 2.82 
2.52 3.23 2.97 
2.51 2.8 3.12 
2.2 2.8 3.19 
2.53 2.63 3.08 
2.96 2.84 3 
2.86 2.66 3.01 
1.47 2.75 3.26 
2.03 2.51 3.19 
1.71 2.43 3.19 
1.28 2.64 3.24 
1.61 2.36 3.19 
1.64 2.09 3.02 
1.86 2.26 3.05 
2.26 2.39 3.23 
2.29 2.6 3.19 
2.57 2.53 2.92 
2.5 2.5 2.98 
2.12 2.47 2.59 
2.31 2.28 2.95 
2.02 2.27 2.78 
1.94 2.23 2.93 
2.18 2.23 3.09 
2.18 2.28 3.19 
1.95 2.37 3.16 
2.38 2.5 2.69 
2.71 2.44 2.73 
2.29 2.52 2.51 
2.76 2.62 2.42 
2.52 2.93 2.25 
2.86 2.84 2.27 
2.77 2.53 2.92 
1.63 2 2.8 
1.84 2.19 2.7 
1.88 2.26 2.53 
1.73 2.13 2.43 
1.59 1.98 2.4 
1.33 1.88 2.86 
0.95 1.53 2.53 
1.26 2.02 3.09 
0.9 1.71 2.92 
0.78 2.47 3.05 
1.11 2.35 3.18 
0.83 2 3.06 
0.59 1.76 2.91 
0.39 1.23 2.3 
0.06 1.26 2.39 
0.01 1.05 2.13 
0.63 1.44 2.66 
0.51 0.89 1.75 
0.41 1.15 2.17 
0.71 1.23 2.19 
0.8 1.13 1.8 
1.09 1.42 1.93 
1.11 1.31 1.76 
1.02 1.41 2.13 
1.13 1.5 2.26 
1.21 1.57 2.33 
1.09 1.45 2.1 
1.4 1.75 2.36 
0.08 3.78 4.01 
0.03 4.13 4.14 
0.11 4.42 3.68 
0.01 4.68 3.52 
0.08 4.87 3.76 
-0.22 4.93 3.83 
-0.13 4.94 3.7 
-0.13 4.69 3.92 
0.04 4.85 3.88 
-0.1 4.87 3.94 
-0.22 4.58 4 
-0.11 4.46 4.03 
-0.38 4.66 3.91 
-0.17 4.9 3.9 
-0.76 4.37 4.11 
-0.25 4.01 5.05 
-0.21 4.14 4.75 
-0.11 3.79 4.89 
-0.25 4.44 4.18 
-0.45 4.33 4.48 
-0.58 4.03 5.18 
-0.01 4.9 3.72 
0.02 5.01 3.74 
-0.1 5.05 3.72 
0.11 4.98 3.78 
0.07 4.96 3.9 
-0.07 4.98 3.96 
-0.14 5.01 3.92 
-0.19 5.04 3.85 
-0.76 4.07 4.83 
-0.9 3.95 4.63 
-0.97 4.06 4.22 
-0.32 3.86 5.59 
-0.6 3.91 5.57 
-0.78 3.86 5.56 
-0.87 3.84 5.16 
-0.86 3.75 5.55 
-0.9 3.46 5.53 
-0.91 3.55 4.95 
-1.01 3.63 4.43 
-0.8 3.33 4.28 
-0.73 3.29 4.64 
-0.86 3.37 5.17 
-0.64 3.15 5.53 
-0.74 3.15 5.1 
-0.47 3.04 5.19 
-0.36 3.1 5.55 
-0.18 3.19 5.57 
-0.61 3.32 4.25 
-0.7 3.28 4.41 
-0.56 3.12 4.49 
-0.22 3.3 4.18 
-0.29 2.73 4.55 
-0.03 2.66 4.52 
-0.19 3.05 4.36 
-0.45 2.98 4.52 
-0.61 2.86 4.78 
-0.59 2.9 4.97 
-0.36 2.88 5.11 
1.3 2.93 5.12 
1.49 2.79 4.88 
1.61 2.88 5.09 
1.31 2.77 4.97 
1.19 2.97 5.47 
1.16 2.76 5.13 
1.17 3.02 5.27 
1.19 2.79 5.62 
1.09 3.06 5.67 
1.02 3.18 5.32 
1.19 3.15 5.08 
0.85 3.12 5.69 
0.77 3.16 5.23 
1.01 3.34 4.72 
1.61 2.85 4.94 
1.75 3.03 5.01 
1.62 2.8 4.58 
1.04 2.71 5.37 
1.06 2.71 5.61 
1.05 2.69 5.11 
0.92 2.65 5.08 
0.92 2.71 5.62 
1.23 2.63 4.83 
1.29 2.62 4.51 
0.84 2.52 4.72 
0.79 2.88 5.66 
0.74 2.77 5.05 
0.66 2.66 4.92 
0.62 2.91 4.99 
0.57 3.31 4.76 
1.34 3.24 5.18 
1.54 3.43 5.1 
1.6 3.34 5.27 
1.41 3.19 5.46 
1.68 3.32 5.6 
1.49 3.17 5.69 
1.49 2.93 5.68 
1.88 3.05 4.59 
1.82 3.42 4.8 
1.64 3.32 5.17 
1.81 2.97 5.53 
1.77 3.83 4.69 
1.74 3.27 5.57 
1.45 3.68 4.77 
1.32 3.77 4.54 
1.61 4.19 4.28 
1.25 3.77 4.31 
1.61 4.2 4.27 
0.47 3.09 5.01 
0.87 3.56 4.27 
0.31 3.21 5.79 
0.48 2.84 5.08 
0.33 3.27 5.19 
0.3 2.92 5.76 
0.22 2.83 5.73 
0.35 2.77 5.05 
0.39 2.65 4.86 
-0.02 2.84 5.69 
-0.14 3.14 5.69 
0.14 3.36 5.3 
0.13 3.33 5.77 
-0.01 3.34 5.74 
-0.09 3.34 5.58 
-0.2 3.19 5.59 
-0.08 3.34 5.59 
0.25 3.56 4.46 
-0.09 3.41 4.91 
0.27 3.65 4.09 
0.6 3.58 4.19 
0.27 3.64 3.79 
0.83 3.45 4.01 
1.09 3.64 4.29 
1.13 3.65 4.07 
1.39 4.04 4.06 
0.96 2.97 3.76 
0.65 3.08 3.37 
1.06 3.26 3.83 
1.24 3.31 3.77 
1.51 3.53 3.57 
0.73 2.7 3.67 
0.46 2.73 3.1 
0.61 2.75 3.44 
0.71 2.54 3.92 
0.39 2.47 3.62 
1.66 3.1 3.94 
1.61 2.83 4.25 
1.51 2.92 4.05 
1.85 3.1 4.08 
1.06 2.64 4.08 
0.91 2.57 4.04 
1.07 2.81 3.89 
1.18 2.7 4.1 
1.34 2.78 4.1 
1.12 3.13 3.79 
1.26 3.13 3.82 
0.61 3.23 3.43 
1.11 3.12 3.79 
2.05 3.25 4.32 
2.19 3.65 3.91 
2 3.55 3.75 
1.81 3.51 3.64 
1.3 3.84 3.84 
0.69 3.17 4.15 
0.33 2.61 4.41 
1.97 4.16 4.36 
2.15 4.05 4.3 
2.09 3.44 4.52 
2.25 3.82 4.1 
0.5 2.5 4.59 
0.61 2.44 4.27 
0.3 2.42 4.12 
0.17 2.68 4.78 
0.17 2.71 4.77 
0.27 2.52 4.48 
-0.05 2.58 4.3 
-0.1 2.45 3.91 
0.14 2.4 3.78 
-0.16 2.39 3.45 
-0.51 2.53 3.63 
-0.4 2.69 4.01 
0.17 2.45 3.26 
0.07 2.4 2.83 
0.49 2.62 2.7 
0.35 2.48 2.59 
0.21 2.37 2.53 
0.48 2.63 2.71 
-0.34 2.15 2.59 
-0.31 2.01 2.41 
-0.32 2.28 2.77 
-0.24 2.34 3.12 
-0.48 2.44 3.33 
-0.68 2.61 3.23 
-0.63 2.79 3.68 
-0.57 2.35 2.73 
-0.44 2.29 2.76 
-0.53 1.99 2.44 
-0.51 1.91 2.42 
-0.51 1.74 2.35 
-0.63 1.78 2.33 
-0.81 1.65 2.16 
-0.35 2.84 4.18 
-0.47 2.94 3.98 
-0.64 3.03 3.66 
-0.71 2.83 3.5 
0.93 2.5 4.4 
0.11 2.65 4.61 
0.19 3.43 4.86 
0.4 3.35 4.82 
-0.08 2.43 4.57 
0.06 2.42 4.66 
0.12 2.45 4.83 
0.1 2.49 5 
-0.03 2.56 5.14 
-0.41 2.65 5.16 
-0.64 2.67 5.02 
-0.66 2.63 4.83 
-0.34 2.5 4.6 
0.45 2.34 2.79 
0.54 2.25 2.91 
-0.12 1.97 2.58 
0.23 2.09 2.72 
-0.3 1.76 2.5 
-0.25 1.4 2.41 
-0.1 1.62 2.64 
0.25 1.85 2.82 
0.32 1.51 2.69 
2.34 2.32 3.27 
2.26 2.21 3.23 
2.26 2.16 3.13 
2.39 2.21 2.99 
2.46 2.33 3.04 
2.38 2.26 3.04 
2.29 2.21 3.13 
2.29 2.24 3.21 
2.35 2.32 3.23 
2.46 2.42 3.2 
2.5 2.41 3.13 
-0.12 2.47 4.65 
-0.33 2.54 4.7 
-0.54 2.62 4.86 
-0.53 2.65 4.99 
-0.37 2.62 5.07 
-0.06 2.55 5.05 
0.01 2.52 4.98 
0.04 2.48 4.85 
-0.01 2.45 4.71 
2.87 2.85 2.34 
2.79 2.67 2.48 
2.76 2.55 2.74 
2.81 2.61 2.86 
2.93 2.96 2.38 
3 2.99 2.77 
3 3.04 2.6 
2.85 2.69 2.92 
2.93 2.83 2.9 
1.68 2.85 5.43 
1.71 2.87 5.58 
0.81 4.03 3.31 
0.62 4.38 3.18 
0.31 4.81 3.01 
-0.17 3.64 5.59 
1.09 3.78 0.01 
0.7 3.81 0.16 
0.89 3.96 0.39 
0.72 3.73 -0.16 
0.31 3.8 -0.16 
0.68 3.38 -0.49 
0.35 3.44 -0.48 
1.13 3.63 -0.21 
1.31 3.72 -0.11 
1.54 3.6 0.16 
1.53 3.57 -0.18 
1.96 3.28 -0.11 
2.05 3.28 0.2 
2.33 3.04 0 
2.37 2.75 -0.43 
2.44 2.7 -0.21 
2.37 2.74 0.54 
2.43 2.69 0.21 
2.44 2.23 0.37 
2.33 2.5 0.73 
2.54 2.42 -0.29 
2.56 2.35 0.08 
2 3.08 -0.42 
1.97 2.79 -0.81 
1.64 2.81 -0.88 
1.67 2.15 -1.37 
2.09 2.45 -1.01 
2.4 2.5 -0.6 
1.5 3.49 -0.29 
1.53 3.24 -0.48 
1.13 3 -0.73 
1.35 2.78 -0.87 
1.24 2.26 -1.3 
0.52 3.07 -0.79 
0.72 2.67 -0.97 
0.85 2.03 -1.64 
0.8 2.33 -1.28 
0.49 2.51 -1.29 
0.29 2.79 -1.1 
-0.09 2.75 -1.42 
-0.29 3.09 -1.2 
0.19 3.11 -0.94 
-0.5 3.43 -0.81 
0.08 3.46 -0.61 
0.06 3.81 -0.26 
-0.32 3.87 -0.24 
-0.78 3.83 -0.31 
-1.22 3.51 -0.65 
-1.47 3.8 -0.29 
-1.67 3.34 -0.42 
-1.12 3.26 -0.91 
-1.52 3.04 -0.89 
-0.97 2.88 -1.34 
-0.27 2.37 -1.77 
-0.74 2.52 -1.66 
0.03 2.29 -1.77 
0.52 2.12 -1.68 
1.15 1.79 -1.75 
1.5 1.71 -1.74 
1.75 1.52 -1.67 
2.06 1.81 -1.33 
2.24 2.25 -1.05 
2.32 2 -1.04 
0.7 1.56 -2.2 
1.14 1.07 -2.29 
1.46 1.34 -1.94 
0.25 1.57 -2.2 
0.03 1.58 -2.22 
-0.38 2.04 -1.99 
0.54 0.97 -2.51 
0.72 0.52 -2.44 
0.38 1.22 -2.45 
-0.51 1.43 -2.12 
0.05 0.9 -2.35 
1.2 0.5 -2.19 
1.73 1.1 -1.68 
1.99 1.03 -1.29 
0.87 0.33 -2.28 
0.43 0.28 -2.23 
1 0.01 -1.87 
1.48 0.62 -1.84 
1.79 0.54 -1.22 
1.63 0.62 -1.58 
1.31 0.06 -1.43 
-0.02 0.38 -2.05 
-0.26 0.46 -1.89 
-0.04 0.08 -1.68 
0.28 -0.07 -1.76 
0.56 -0.13 -1.78 
0.85 -0.14 -1.7 
0.28 -0.24 -1.33 
0.95 -0.26 -1.13 
-0.52 0.34 -1.42 
-0.12 0 -1.33 
-0.47 0.13 -1.02 
-0.14 -0.08 -0.91 
0.36 -0.27 -0.73 
0.67 -0.33 -0.97 
-0.64 0.55 -1.54 
-0.98 0.62 -1.11 
-0.89 1.2 -1.7 
-1.41 0.92 -0.76 
-1.19 1.01 -1.22 
-0.96 0.35 -0.65 
-0.44 1.01 -2.05 
-0.71 1.67 -1.97 
-1.07 2.19 -1.62 
-1.32 1.71 -1.41 
-1.37 1.46 -1.22 
-1.58 2.16 -1.07 
-1.3 2.66 -1.29 
-1.78 3.63 0.04 
-1.86 2.62 -0.7 
-1.96 3.05 -0.16 
-1.95 3.44 0.29 
-2.15 2.68 0.11 
-2.12 3.15 0.62 
-2.03 2.16 -0.37 
-2.03 1.67 0.01 
-2.15 2.13 0.58 
-2.23 2.72 1.05 
-2.19 2.7 0.55 
-1.72 1.75 -0.88 
-1.73 1.25 -0.38 
-1.96 1.37 0.41 
-1.66 0.94 -0.03 
-1.31 0.59 -0.36 
2.17 1.05 -0.87 
1.89 0.4 -0.81 
2.06 0.58 -0.61 
2.25 0.83 -0.23 
2.31 1.16 -0.47 
2.39 1.63 -0.83 
2.49 2.15 -0.76 
2.56 2.02 -0.1 
2.33 1.74 0.59 
2.42 1.47 0.13 
2.45 1.52 -0.33 
2.17 2.08 1.03 
2.13 1.78 0.99 
2.26 1.55 0.66 
2.09 1.62 1.05 
2.14 1.21 0.88 
1.96 1.44 1.18 
1.79 1.02 1.11 
1.78 1.39 1.36 
1.66 1.26 1.38 
1.41 0.91 1.3 
1.5 1.17 1.44 
1.38 1.15 1.51 
1.01 0.89 1.44 
1.25 1.18 1.62 
1.03 1.07 1.59 
0.82 1.01 1.68 
0.98 0.55 1.12 
0.36 0.59 1.29 
0.88 0.16 0.64 
1.22 0.51 1.07 
1.75 0.6 0.86 
2.22 0.91 0.49 
2.32 1.15 0.22 
-0.15 0.99 2.04 
-0.17 0.55 1.47 
0.14 0.59 1.35 
-0.65 0.84 1.78 
-0.19 0.27 0.88 
0.21 0.26 0.73 
1.62 0.21 0.45 
2.08 0.55 0.04 
-1.01 1.35 1.94 
-1.28 1.65 1.91 
-1.64 1.92 1.64 
-1.57 1.38 1.57 
-1.92 1.66 1.14 
-1.92 2.23 1.36 
-2.08 1.89 0.8 
-0.97 0.8 1.57 
-0.87 0.42 1.03 
-1.5 0.86 1.11 
-1.66 1 0.9 
-1.82 1.12 0.73 
-1.25 0.52 0.62 
-1.47 0.64 0.37 
-0.86 0.33 0.73 
-0.85 0.25 0.29 
-1.11 0.33 0 
-0.66 0.17 0.12 
-0.23 0.11 0.25 
-0.84 0.2 -0.21 
-0.41 0.04 -0.6 
-0.31 0.04 -0.19 
-0.26 0.06 0.04 
-0.09 -0.05 -0.4 
0.01 -0.01 0 
0.13 0.09 0.39 
0.55 -0.16 -0.11 
0.69 -0.06 0.24 
1.39 -0.06 0.02 
1.22 -0.18 -0.27 
0.93 -0.33 -0.65 
1.42 -0.06 -0.87 
1.65 0.24 -1.09 
1.65 0.07 -0.61 
1.9 0.24 -0.31 
3 0 1 2 
3 2 3 0 
3 4 3 2 
3 2 5 4 
3 6 5 2 
3 7 5 6 
3 8 5 7 
3 9 5 8 
3 4 5 9 
3 9 10 4 
3 3 4 10 
3 10 0 3 
3 0 11 1 
3 10 12 0 
3 13 12 10 
3 10 8 13 
3 9 8 10 
3 14 15 16 
3 16 17 14 
3 11 17 16 
3 18 17 11 
3 11 12 18 
3 0 12 11 
3 19 15 14 
3 20 15 19 
3 21 22 20 
3 19 23 21 
3 21 20 19 
3 19 24 23 
3 25 24 19 
3 19 14 25 
3 18 25 14 
3 24 25 18 
3 18 26 24 
3 12 26 18 
3 13 26 12 
3 27 26 13 
3 13 8 27 
3 21 28 22 
3 23 28 21 
3 29 30 31 
3 31 22 29 
3 22 28 29 
3 24 32 23 
3 33 32 24 
3 24 34 33 
3 26 34 24 
3 27 34 26 
3 33 34 27 
3 27 35 33 
3 36 35 27 
3 27 37 36 
3 8 37 27 
3 36 38 39 
3 35 36 39 
3 39 40 35 
3 41 40 39 
3 33 40 41 
3 35 40 33 
3 18 14 17 
3 33 41 42 
3 42 32 33 
3 23 43 44 
3 28 23 44 
3 29 28 44 
3 45 29 44 
3 46 45 44 
3 47 46 44 
3 43 47 44 
3 23 32 43 
3 32 42 43 
3 48 43 42 
3 47 43 48 
3 48 49 47 
3 42 41 48 
3 39 48 41 
3 50 48 39 
3 39 51 50 
3 38 51 39 
3 52 8 7 
3 53 8 52 
3 52 54 53 
3 55 53 54 
3 38 53 55 
3 36 53 38 
3 37 53 36 
3 8 53 37 
3 55 56 38 
3 57 56 55 
3 58 56 57 
3 38 56 58 
3 58 51 38 
3 59 51 58 
3 58 60 59 
3 57 60 58 
3 57 61 62 
3 60 57 62 
3 62 59 60 
3 61 59 62 
3 63 59 61 
3 61 64 63 
3 65 64 61 
3 61 66 65 
3 57 66 61 
3 50 49 48 
3 51 49 50 
3 59 49 51 
3 67 49 59 
3 63 68 67 
3 67 59 63 
3 68 49 67 
3 47 49 68 
3 68 69 47 
3 70 71 68 
3 69 68 71 
3 71 45 69 
3 46 69 45 
3 47 69 46 
3 72 68 63 
3 70 68 72 
3 73 71 70 
3 70 74 73 
3 75 74 70 
3 70 72 75 
3 76 75 72 
3 72 77 76 
3 63 77 72 
3 64 77 63 
3 65 77 64 
3 77 65 76 
3 74 75 76 
3 76 78 74 
3 29 45 30 
3 45 79 30 
3 71 79 45 
3 80 79 71 
3 81 79 80 
3 82 79 81 
3 83 79 82 
3 84 79 83 
3 31 79 84 
3 30 79 31 
3 71 85 80 
3 73 85 71 
3 74 85 73 
3 78 85 74 
3 86 85 78 
3 78 87 86 
3 76 88 78 
3 89 78 88 
3 90 78 89 
3 87 78 90 
3 91 82 81 
3 81 80 91 
3 80 92 91 
3 85 92 80 
3 93 92 85 
3 86 93 85 
3 94 93 86 
3 86 87 94 
3 95 96 91 
3 97 98 93 
3 98 99 96 
3 95 91 92 
3 95 92 93 
3 98 96 95 
3 98 95 93 
3 100 91 96 
3 96 101 100 
3 102 103 104 
3 96 103 102 
3 105 103 96 
3 96 99 105 
3 102 104 101 
3 102 101 96 
3 98 97 99 
3 104 103 106 
3 106 107 104 
3 106 108 107 
3 108 109 107 
3 109 110 107 
3 111 107 110 
3 110 112 111 
3 112 113 111 
3 112 114 113 
3 94 114 112 
3 112 115 94 
3 116 94 115 
3 93 94 116 
3 116 117 93 
3 118 109 108 
3 93 118 97 
3 109 118 93 
3 117 109 93 
3 119 120 97 
3 119 97 118 
3 119 118 108 
3 119 108 121 
3 108 106 122 
3 108 122 121 
3 123 99 97 
3 123 97 120 
3 99 123 105 
3 105 123 124 
3 124 125 103 
3 124 103 105 
3 122 103 125 
3 103 122 106 
3 112 126 115 
3 126 112 127 
3 115 126 116 
3 116 126 128 
3 128 129 117 
3 128 117 116 
3 109 117 129 
3 109 129 130 
3 109 130 110 
3 110 130 131 
3 127 110 131 
3 110 127 112 
3 87 132 94 
3 132 113 114 
3 133 134 132 
3 132 90 133 
3 87 90 132 
3 114 94 132 
3 135 104 107 
3 136 104 135 
3 101 104 136 
3 137 138 136 
3 136 139 137 
3 135 139 136 
3 140 139 135 
3 135 107 140 
3 111 140 107 
3 141 140 111 
3 142 140 141 
3 139 140 142 
3 100 101 136 
3 100 136 138 
3 143 137 139 
3 144 137 143 
3 143 145 144 
3 139 145 143 
3 142 145 139 
3 146 145 142 
3 147 145 146 
3 148 145 147 
3 144 145 148 
3 147 149 148 
3 150 148 149 
3 151 152 150 
3 153 152 151 
3 151 154 153 
3 155 154 151 
3 151 156 155 
3 157 156 151 
3 151 158 157 
3 149 158 151 
3 147 158 149 
3 157 158 147 
3 147 159 157 
3 159 160 157 
3 147 146 159 
3 151 150 149 
3 160 156 157 
3 161 156 160 
3 162 156 161 
3 155 156 162 
3 163 155 162 
3 164 165 162 
3 162 161 164 
3 160 164 161 
3 166 164 160 
3 159 167 166 
3 168 167 159 
3 159 146 168 
3 169 168 146 
3 146 142 169 
3 141 169 142 
3 170 169 141 
3 166 160 159 
3 171 165 164 
3 164 172 171 
3 172 173 171 
3 173 165 171 
3 166 172 164 
3 174 166 167 
3 167 175 174 
3 176 175 167 
3 167 168 176 
3 177 176 168 
3 113 141 111 
3 170 141 113 
3 113 134 170 
3 132 134 113 
3 89 178 90 
3 179 178 89 
3 89 180 179 
3 181 178 179 
3 133 178 181 
3 90 178 133 
3 182 183 133 
3 133 181 182 
3 89 184 180 
3 185 180 184 
3 186 180 185 
3 187 180 186 
3 179 180 187 
3 134 133 183 
3 183 170 134 
3 177 170 183 
3 183 188 177 
3 182 188 183 
3 181 189 182 
3 187 189 181 
3 181 179 187 
3 170 177 169 
3 169 177 168 
3 188 176 177 
3 190 176 188 
3 188 191 190 
3 182 191 188 
3 192 191 182 
3 182 189 192 
3 187 192 189 
3 193 192 187 
3 187 194 193 
3 186 194 187 
3 185 194 186 
3 195 194 185 
3 193 194 195 
3 196 197 193 
3 193 195 196 
3 174 172 166 
3 198 172 174 
3 175 199 198 
3 190 199 175 
3 175 176 190 
3 199 200 198 
3 191 192 199 
3 192 197 199 
3 198 174 175 
3 191 199 190 
3 193 197 192 
3 197 201 200 
3 202 201 197 
3 197 196 202 
3 172 203 173 
3 204 203 172 
3 172 198 204 
3 198 200 204 
3 200 203 204 
3 205 203 200 
3 201 202 205 
3 197 201 200 
3 205 206 207 
3 208 206 205 
3 205 209 208 
3 202 209 205 
3 210 209 202 
3 202 211 210 
3 196 211 202 
3 195 211 196 
3 212 211 195 
3 210 208 209 
3 213 208 210 
3 210 214 213 
3 211 214 210 
3 215 214 211 
3 211 216 215 
3 212 216 211 
3 214 215 213 
3 216 217 215 
3 218 219 217 
3 217 212 218 
3 216 212 217 
3 197 200 199 
3 200 201 205 
3 220 212 195 
3 218 212 220 
3 221 219 222 
3 222 219 218 
3 213 223 208 
3 213 224 223 
3 223 224 225 
3 223 208 225 
3 225 208 226 
3 227 208 226 
3 206 208 227 
3 227 207 206 
3 228 207 227 
3 229 230 228 
3 228 227 229 
3 229 231 230 
3 203 232 173 
3 207 232 203 
3 203 205 207 
3 173 232 165 
3 233 228 230 
3 234 233 230 
3 235 228 233 
3 162 235 233 
3 162 233 234 
3 162 234 163 
3 230 231 236 
3 236 237 231 
3 237 236 238 
3 153 236 238 
3 153 238 152 
3 237 239 231 
3 239 237 240 
3 240 241 239 
3 239 241 231 
3 231 241 242 
3 155 243 154 
3 243 155 244 
3 243 245 153 
3 243 153 154 
3 163 244 155 
3 244 163 246 
3 234 247 246 
3 234 246 163 
3 230 248 247 
3 248 230 236 
3 248 236 249 
3 249 153 245 
3 153 249 236 
3 250 251 162 
3 250 162 165 
3 252 250 165 
3 252 165 232 
3 232 253 252 
3 253 232 207 
3 228 254 253 
3 228 253 207 
3 230 247 234 
3 255 254 228 
3 255 228 235 
3 255 235 162 
3 255 162 251 
3 240 256 241 
3 256 240 257 
3 257 258 259 
3 259 260 257 
3 257 260 256 
3 256 260 261 
3 241 261 262 
3 262 261 260 
3 262 263 260 
3 264 263 262 
3 264 265 262 
3 262 265 266 
3 256 261 241 
3 262 266 241 
3 241 266 242 
3 266 265 267 
3 267 242 266 
3 242 267 231 
3 265 268 267 
3 267 268 269 
3 269 270 267 
3 231 267 271 
3 271 267 270 
3 229 271 231 
3 227 271 229 
3 227 270 271 
3 226 270 225 
3 227 226 270 
3 224 272 225 
3 273 272 224 
3 224 274 273 
3 274 275 273 
3 276 273 275 
3 277 273 276 
3 272 273 277 
3 272 225 277 
3 277 225 270 
3 270 278 277 
3 277 278 276 
3 276 278 279 
3 279 278 280 
3 280 278 281 
3 281 278 282 
3 282 278 270 
3 270 269 282 
3 282 269 281 
3 281 268 283 
3 283 284 281 
3 281 284 285 
3 285 280 281 
3 269 268 281 
3 274 286 275 
3 286 287 275 
3 274 221 286 
3 221 287 286 
3 222 287 221 
3 287 288 275 
3 289 288 287 
3 290 288 289 
3 291 292 290 
3 288 290 292 
3 288 275 292 
3 292 275 279 
3 279 275 276 
3 293 291 290 
3 290 289 293 
3 294 291 295 
3 291 293 295 
3 294 296 291 
3 297 296 294 
3 294 295 297 
3 298 297 295 
3 299 297 298 
3 300 297 299 
3 299 301 300 
3 302 297 300 
3 303 297 302 
3 296 297 303 
3 296 284 303 
3 303 284 302 
3 284 296 285 
3 285 296 280 
3 280 296 292 
3 291 296 292 
3 280 292 279 
3 265 304 268 
3 304 265 264 
3 304 305 268 
3 268 305 283 
3 305 304 306 
3 306 307 305 
3 305 307 284 
3 307 302 284 
3 302 307 308 
3 308 309 310 
3 310 309 311 
3 308 312 313 
3 313 300 308 
3 308 300 302 
3 313 301 312 
3 312 308 310 
3 311 312 310 
3 305 284 283 
3 306 314 307 
3 314 306 315 
3 315 316 314 
3 314 316 309 
3 309 307 314 
3 316 317 309 
3 309 317 311 
3 315 306 318 
3 318 319 315 
3 315 319 320 
3 320 319 321 
3 321 319 263 
3 263 319 264 
3 264 319 304 
3 304 319 318 
3 318 306 304 
3 307 309 308 
3 322 316 315 
3 315 320 323 
3 323 324 315 
3 315 324 322 
3 322 324 325 
3 326 327 325 
3 325 328 326 
3 325 329 330 
3 330 317 325 
3 325 317 322 
3 322 317 316 
3 258 331 259 
3 259 331 260 
3 260 331 332 
3 260 333 332 
3 263 333 260 
3 321 333 263 
3 332 333 321 
3 331 260 332 
3 331 258 334 
3 331 335 334 
3 336 335 331 
3 331 337 336 
3 332 337 331 
3 338 337 332 
3 332 339 338 
3 321 339 332 
3 320 339 321 
3 340 339 320 
3 338 339 340 
3 340 337 338 
3 340 320 341 
3 341 323 320 
3 334 335 342 
3 343 344 342 
3 343 345 342 
3 342 345 335 
3 335 345 336 
3 336 345 337 
3 337 345 346 
3 340 341 337 
3 343 347 348 
3 348 345 343 
3 348 346 345 
3 346 348 349 
3 349 348 347 
3 349 350 351 
3 351 346 349 
3 346 351 352 
3 352 353 346 
3 346 353 354 
3 354 353 341 
3 341 353 355 
3 324 327 355 
3 337 346 354 
3 354 337 341 
3 324 341 355 
3 323 341 324 
3 325 327 324 
3 350 356 357 
3 350 357 351 
3 351 357 358 
3 358 357 356 
3 356 359 358 
3 358 359 360 
3 358 361 360 
3 351 361 358 
3 362 361 351 
3 362 352 351 
3 352 362 353 
3 353 362 355 
3 327 362 355 
3 363 362 327 
3 356 364 359 
3 359 364 365 
3 365 360 359 
3 360 365 366 
3 360 367 366 
3 361 367 360 
3 368 367 361 
3 363 367 368 
3 368 362 363 
3 361 362 368 
3 328 367 363 
3 363 326 328 
3 327 326 363 
3 325 369 329 
3 328 325 369 
3 328 370 367 
3 328 369 370 
3 369 370 371 
3 367 370 371 
3 372 366 367 
3 367 371 372 
3 366 372 367 
3 369 371 373 
3 373 329 369 
3 329 373 374 
3 375 373 374 
3 376 373 375 
3 317 330 311 
3 311 330 377 
3 377 312 311 
3 330 378 377 
3 377 378 312 
3 378 330 329 
3 329 374 378 
3 378 379 380 
3 312 301 380 
3 379 378 374 
3 379 375 374 
3 301 375 379 
3 373 376 371 
3 365 372 366 
3 380 301 379 
3 378 380 312 
3 301 313 300 
3 381 382 383 
3 381 383 384 
3 384 385 381 
3 385 384 386 
3 387 388 389 
3 390 389 388 
3 391 392 393 
3 393 394 391 
3 393 392 395 
3 396 393 395 
3 392 397 395 
3 397 398 395 
3 399 398 397 
3 396 395 400 
3 396 400 401 
3 398 402 399 
3 397 402 398 
3 401 403 396 
3 404 403 401 
3 401 405 404 
3 406 405 401 
3 407 405 406 
3 408 405 407 
3 407 409 408 
3 410 409 407 
3 411 409 410 
3 411 412 413 
3 414 413 412 
3 415 413 416 
3 416 240 415 
3 417 413 414 
3 417 240 414 
3 418 412 411 
3 411 419 418 
3 419 420 418 
3 419 421 420 
3 411 410 419 
3 422 423 419 
3 424 425 426 
3 427 424 428 
3 425 424 427 
3 427 429 425 
3 430 429 427 
3 427 431 430 
3 428 402 427 
3 402 432 427 
3 433 432 402 
3 431 427 432 
3 397 433 402 
3 434 435 436 
3 431 435 434 
3 437 435 431 
3 431 438 437 
3 432 438 431 
3 439 438 432 
3 434 430 431 
3 436 430 434 
3 440 432 433 
3 441 439 440 
3 442 439 441 
3 441 443 442 
3 442 437 439 
3 439 432 440 
3 438 439 437 
3 444 433 397 
3 445 433 444 
3 444 446 445 
3 447 448 444 
3 444 392 447 
3 397 392 444 
3 449 450 448 
3 446 448 450 
3 445 440 433 
3 448 446 444 
3 451 452 445 
3 382 452 451 
3 441 452 382 
3 453 441 454 
3 443 441 453 
3 440 445 452 
3 440 452 441 
3 454 455 453 
3 385 455 454 
3 456 455 385 
3 457 455 456 
3 458 457 456 
3 456 459 458 
3 450 458 459 
3 450 459 460 
3 460 461 450 
3 445 461 460 
3 460 451 445 
3 446 450 461 
3 446 461 445 
3 381 441 382 
3 385 454 381 
3 441 381 454 
3 462 463 453 
3 453 455 462 
3 464 463 462 
3 462 455 464 
3 465 463 464 
3 464 466 465 
3 467 465 466 
3 436 467 466 
3 466 430 436 
3 453 463 468 
3 468 443 453 
3 469 458 450 
3 450 449 469 
3 469 470 458 
3 457 458 470 
3 470 455 457 
3 471 455 470 
3 469 472 471 
3 473 472 469 
3 469 474 475 
3 449 474 469 
3 476 449 448 
3 477 449 476 
3 474 449 477 
3 477 475 474 
3 478 447 392 
3 479 447 478 
3 448 447 479 
3 479 480 448 
3 480 476 448 
3 477 476 480 
3 480 479 478 
3 391 478 392 
3 477 480 481 
3 482 483 484 
3 475 477 485 
3 485 482 475 
3 484 486 487 
3 487 488 482 
3 486 488 487 
3 489 488 486 
3 490 488 489 
3 489 491 490 
3 484 487 482 
3 488 490 492 
3 475 482 488 
3 488 492 475 
3 493 475 492 
3 494 475 493 
3 492 495 493 
3 490 495 492 
3 475 494 496 
3 469 475 496 
3 496 473 469 
3 469 471 470 
3 405 408 497 
3 408 498 499 
3 408 409 499 
3 500 499 409 
3 501 499 500 
3 411 500 409 
3 500 411 413 
3 502 503 413 
3 413 417 502 
3 504 505 506 
3 499 505 504 
3 501 505 499 
3 504 499 507 
3 507 499 508 
3 509 504 507 
3 504 506 509 
3 510 509 506 
3 417 510 502 
3 509 510 417 
3 240 417 257 
3 257 417 511 
3 509 511 417 
3 498 497 408 
3 512 513 514 
3 515 513 516 
3 516 513 517 
3 518 413 503 
3 500 518 501 
3 518 500 413 
3 519 518 503 
3 519 503 520 
3 521 501 518 
3 521 518 519 
3 521 522 505 
3 521 505 501 
3 522 523 506 
3 522 506 505 
3 523 524 506 
3 506 524 510 
3 525 520 503 
3 525 503 502 
3 502 510 525 
3 525 510 524 
3 511 515 516 
3 516 526 511 
3 511 526 527 
3 527 528 511 
3 511 528 258 
3 258 257 511 
3 517 529 530 
3 530 531 517 
3 517 531 526 
3 526 516 517 
3 532 527 526 
3 526 531 532 
3 532 531 533 
3 533 534 532 
3 532 534 535 
3 535 527 532 
3 527 536 535 
3 334 536 528 
3 334 258 528 
3 528 536 527 
3 536 334 342 
3 342 537 536 
3 538 536 537 
3 535 536 538 
3 535 539 538 
3 539 535 534 
3 534 540 539 
3 539 540 541 
3 541 538 539 
3 541 540 542 
3 542 540 543 
3 542 543 387 
3 387 543 544 
3 545 342 344 
3 537 342 545 
3 537 546 545 
3 546 537 538 
3 538 547 546 
3 546 547 545 
3 545 547 548 
3 545 344 548 
3 549 550 551 
3 551 548 547 
3 547 552 551 
3 551 552 549 
3 549 552 553 
3 553 552 547 
3 547 538 553 
3 541 553 538 
3 553 541 554 
3 554 541 542 
3 554 555 542 
3 387 542 555 
3 555 389 387 
3 389 390 387 
3 556 557 558 
3 559 557 556 
3 560 561 562 
3 563 561 560 
3 560 564 563 
3 562 565 560 
3 565 564 560 
3 562 566 565 
3 565 567 564 
3 568 567 565 
3 565 566 569 
3 566 562 556 
3 570 571 558 
3 558 557 570 
3 572 570 557 
3 571 570 572 
3 573 563 574 
3 573 575 561 
3 576 575 573 
3 573 577 576 
3 574 577 573 
3 575 576 578 
3 557 559 578 
3 579 572 557 
3 557 578 579 
3 580 579 578 
3 576 580 578 
3 581 576 577 
3 582 576 581 
3 583 576 582 
3 580 576 583 
3 584 583 582 
3 568 582 581 
3 568 584 582 
3 568 585 584 
3 567 568 581 
3 586 569 566 
3 587 569 586 
3 588 587 586 
3 586 589 588 
3 590 588 589 
3 589 591 590 
3 591 589 592 
3 589 556 592 
3 589 586 556 
3 586 566 556 
3 572 593 571 
3 594 571 593 
3 571 595 596 
3 587 588 595 
3 595 594 587 
3 597 587 594 
3 588 590 598 
3 588 598 595 
3 597 599 587 
3 569 587 599 
3 599 600 569 
3 601 600 599 
3 602 600 603 
3 569 600 602 
3 604 585 584 
3 569 605 585 
3 606 607 604 
3 606 608 604 
3 607 584 604 
3 607 606 609 
3 583 584 607 
3 610 607 609 
3 611 607 610 
3 611 388 610 
3 388 611 390 
3 612 611 390 
3 607 611 612 
3 612 583 607 
3 613 610 388 
3 388 544 613 
3 613 544 614 
3 544 388 387 
3 606 615 608 
3 615 606 616 
3 616 617 618 
3 618 615 616 
3 619 620 614 
3 614 620 617 
3 621 497 622 
3 623 497 621 
3 623 624 621 
3 585 624 621 
3 625 497 623 
3 405 497 625 
3 624 403 625 
3 626 403 624 
3 605 627 628 
3 569 627 605 
3 602 627 569 
3 628 627 602 
3 602 629 628 
3 624 623 625 
3 396 403 626 
3 630 631 396 
3 396 626 632 
3 628 632 626 
3 633 632 628 
3 628 634 633 
3 393 630 635 
3 636 394 393 
3 393 637 636 
3 635 637 393 
3 638 639 635 
3 640 641 642 
3 643 641 640 
3 572 641 643 
3 644 645 646 
3 646 647 644 
3 648 647 646 
3 635 630 646 
3 649 646 630 
3 650 646 649 
3 650 648 646 
3 642 648 650 
3 649 630 651 
3 652 396 632 
3 643 593 572 
3 653 593 643 
3 643 654 653 
3 655 654 643 
3 643 656 655 
3 640 656 643 
3 634 656 640 
3 640 650 634 
3 641 572 579 
3 650 640 642 
3 603 629 602 
3 629 657 628 
3 657 658 628 
3 628 658 659 
3 650 633 634 
3 597 601 599 
3 660 601 597 
3 597 661 660 
3 661 597 594 
3 594 662 661 
3 653 662 593 
3 654 662 653 
3 663 662 654 
3 661 662 663 
3 662 594 593 
3 580 612 664 
3 638 645 665 
3 665 639 638 
3 666 639 665 
3 612 390 667 
3 580 583 612 
3 646 645 635 
3 668 659 658 
3 550 669 670 
3 670 669 671 
3 671 672 666 
3 672 639 666 
3 673 639 672 
3 672 671 673 
3 671 673 674 
3 674 675 671 
3 671 675 670 
3 670 675 550 
3 639 637 635 
3 636 637 639 
3 676 677 636 
3 677 678 636 
3 679 678 677 
3 677 680 679 
3 681 394 636 
3 676 636 639 
3 676 639 673 
3 677 682 680 
3 682 683 680 
3 677 684 682 
3 685 684 677 
3 677 673 685 
3 676 673 677 
3 686 685 673 
3 686 674 673 
3 687 686 674 
3 674 688 687 
3 687 689 686 
3 688 674 675 
3 684 685 686 
3 686 690 684 
3 689 690 686 
3 691 690 689 
3 682 690 691 
3 691 692 682 
3 692 683 682 
3 693 683 692 
3 694 693 692 
3 695 693 694 
3 692 691 694 
3 682 684 690 
3 550 675 696 
3 696 551 550 
3 551 696 548 
3 548 696 697 
3 548 344 697 
3 698 697 344 
3 688 697 698 
3 698 699 688 
3 699 687 688 
3 697 688 675 
3 697 696 675 
3 579 700 644 
3 580 665 700 
3 700 579 580 
3 645 644 700 
3 665 645 700 
3 664 665 580 
3 648 579 647 
3 644 647 579 
3 641 579 648 
3 642 641 648 
3 669 550 701 
3 621 702 622 
3 703 702 621 
3 585 621 624 
3 585 605 624 
3 628 626 605 
3 624 605 626 
3 404 625 403 
3 625 404 405 
3 550 704 705 
3 701 550 705 
3 701 706 705 
3 706 701 667 
3 667 390 707 
3 667 707 706 
3 708 390 389 
3 389 555 709 
3 389 709 708 
3 554 710 555 
3 555 710 709 
3 710 711 554 
3 553 554 711 
3 711 712 553 
3 549 553 712 
3 549 712 704 
3 550 549 704 
3 394 678 391 
3 678 478 391 
3 713 478 678 
3 678 679 713 
3 713 714 478 
3 680 713 679 
3 715 716 680 
3 714 713 680 
3 680 716 714 
3 680 683 715 
3 717 715 683 
3 683 693 717 
3 693 718 717 
3 719 717 718 
3 720 717 719 
3 715 717 720 
3 720 716 715 
3 714 716 720 
3 714 480 478 
3 720 480 714 
3 481 480 720 
3 720 721 481 
3 719 721 720 
3 718 721 719 
3 483 721 718 
3 718 484 483 
3 451 383 382 
3 451 722 383 
3 722 451 460 
3 722 460 723 
3 723 460 459 
3 723 459 724 
3 724 459 456 
3 724 456 725 
3 385 386 725 
3 385 725 456 
3 386 726 727 
3 386 727 725 
3 727 728 724 
3 727 724 725 
3 723 724 728 
3 723 728 729 
3 723 729 730 
3 723 730 722 
3 383 722 731 
3 731 722 730 
3 383 731 732 
3 383 732 384 
3 386 384 732 
3 386 732 726 
3 721 483 482 
3 721 482 485 
3 485 477 721 
3 481 721 477 
3 733 704 712 
3 734 733 712 
3 735 734 712 
3 711 735 712 
3 735 711 710 
3 710 735 736 
3 736 709 710 
3 736 737 709 
3 708 709 737 
3 708 737 738 
3 738 707 708 
3 738 739 707 
3 739 706 707 
3 739 740 706 
3 705 706 740 
3 741 740 705 
3 741 705 704 
3 733 741 704 
3 742 465 467 
3 465 742 743 
3 465 743 744 
3 465 744 463 
3 744 745 468 
3 744 468 463 
3 746 467 436 
3 467 746 742 
3 435 746 436 
3 435 437 747 
3 747 748 435 
3 435 748 746 
3 749 443 468 
3 749 468 745 
3 749 750 442 
3 749 442 443 
3 437 442 750 
3 437 750 747 
3 562 561 556 
3 561 563 573 
3 556 561 559 
3 578 561 575 
3 578 559 561 
3 751 752 592 
3 594 595 571 
3 595 598 596 
3 751 596 752 
3 556 558 751 
3 751 592 556 
3 402 753 399 
3 402 428 753 
3 753 428 424 
3 753 406 401 
3 407 406 753 
3 753 754 407 
3 424 754 753 
3 424 755 754 
3 754 755 407 
3 755 419 410 
3 426 422 419 
3 419 755 426 
3 410 407 755 
3 426 755 424 
3 498 513 515 
3 498 515 508 
3 508 515 507 
3 507 515 509 
3 511 509 515 
3 514 513 498 
3 517 513 512 
3 512 529 517 
3 514 529 512 
3 756 529 514 
3 514 622 756 
3 622 618 756 
3 615 618 622 
3 622 702 615 
3 390 708 707 
3 608 702 703 
3 615 702 608 
3 703 604 608 
3 514 497 498 
3 622 497 514 
3 508 499 498 
3 565 585 568 
3 569 585 565 
3 585 604 703 
3 703 621 585 
3 399 753 401 
3 400 399 401 
3 757 758 759 
3 760 758 757 
3 761 758 760 
3 760 762 761 
3 762 763 761 
3 764 762 760 
3 757 765 764 
3 759 766 757 
3 765 757 766 
3 766 767 765 
3 768 767 766 
3 766 769 768 
3 770 768 769 
3 771 768 770 
3 770 772 771 
3 773 774 769 
3 775 774 773 
3 773 776 775 
3 774 770 769 
3 772 770 774 
3 777 771 772 
3 772 774 777 
3 778 777 774 
3 774 775 778 
3 764 760 757 
3 771 779 768 
3 780 779 771 
3 781 779 780 
3 782 781 780 
3 780 783 782 
3 784 783 780 
3 771 784 780 
3 777 784 771 
3 777 772 771 
3 768 785 767 
3 786 785 768 
3 779 781 786 
3 785 787 764 
3 764 767 785 
3 786 787 785 
3 788 787 786 
3 786 781 788 
3 789 788 781 
3 781 782 789 
3 779 786 768 
3 764 765 767 
3 787 762 764 
3 790 762 787 
3 787 791 790 
3 788 791 787 
3 789 791 788 
3 792 793 789 
3 794 793 792 
3 791 793 794 
3 794 795 791 
3 796 795 794 
3 797 798 796 
3 799 798 797 
3 800 798 799 
3 763 800 801 
3 801 761 763 
3 763 798 800 
3 790 763 762 
3 763 790 798 
3 796 798 795 
3 795 798 790 
3 795 790 791 
3 793 791 789 
3 799 801 800 
3 802 801 799 
3 799 803 802 
3 804 803 799 
3 805 803 804 
3 804 806 805 
3 807 808 804 
3 804 799 807 
3 809 807 799 
3 799 797 809 
3 810 811 796 
3 811 797 796 
3 809 797 811 
3 794 812 796 
3 813 812 794 
3 794 792 813 
3 814 792 789 
3 789 782 814 
3 815 814 782 
3 782 816 815 
3 817 816 782 
3 818 819 817 
3 817 782 818 
3 783 818 782 
3 814 820 792 
3 821 820 814 
3 814 815 821 
3 822 821 815 
3 815 816 822 
3 820 813 792 
3 812 813 820 
3 820 823 812 
3 824 812 823 
3 825 812 824 
3 810 812 825 
3 825 811 810 
3 812 810 796 
3 821 826 820 
3 827 826 821 
3 826 828 820 
3 823 820 828 
3 828 824 823 
3 824 829 825 
3 830 829 824 
3 827 821 831 
3 832 831 821 
3 817 833 832 
3 832 816 817 
3 822 816 832 
3 832 821 822 
3 834 835 827 
3 827 831 834 
3 836 831 837 
3 832 837 831 
3 838 839 832 
3 840 839 838 
3 836 839 840 
3 836 837 839 
3 835 834 836 
3 830 827 835 
3 835 841 830 
3 826 827 830 
3 830 828 826 
3 830 841 842 
3 843 842 841 
3 841 835 843 
3 835 844 843 
3 845 844 835 
3 836 846 845 
3 845 835 836 
3 847 845 846 
3 847 843 844 
3 844 845 847 
3 848 847 846 
3 846 840 848 
3 836 840 846 
3 849 842 843 
3 850 851 849 
3 849 843 850 
3 847 850 843 
3 852 850 847 
3 847 853 852 
3 854 853 847 
3 847 848 854 
3 851 850 852 
3 855 849 856 
3 842 849 855 
3 855 857 842 
3 856 857 855 
3 858 859 856 
3 860 858 856 
3 856 851 860 
3 849 851 856 
3 834 831 836 
3 857 861 842 
3 830 842 861 
3 861 829 830 
3 857 829 861 
3 862 829 857 
3 857 863 862 
3 864 863 857 
3 865 866 864 
3 864 859 865 
3 857 859 864 
3 856 859 857 
3 828 830 824 
3 825 829 862 
3 862 811 825 
3 863 811 862 
3 809 811 863 
3 863 867 809 
3 864 867 863 
3 866 867 864 
3 806 868 805 
3 808 869 806 
3 806 804 808 
3 808 866 869 
3 867 866 808 
3 807 809 867 
3 867 808 807 
3 806 870 868 
3 871 868 870 
3 872 873 871 
3 871 870 872 
3 870 874 872 
3 869 874 870 
3 870 806 869 
3 875 872 874 
3 876 872 875 
3 877 878 876 
3 873 878 877 
3 872 878 873 
3 876 878 872 
3 879 880 874 
3 874 869 879 
3 866 879 869 
3 865 879 866 
3 858 879 865 
3 880 879 858 
3 881 875 880 
3 880 882 881 
3 858 882 880 
3 883 882 858 
3 858 860 883 
3 874 880 875 
3 865 859 858 
3 832 833 838 
3 884 838 833 
3 885 838 884 
3 884 886 885 
3 887 886 884 
3 884 888 887 
3 889 888 884 
3 884 817 889 
3 833 817 884 
3 819 889 817 
3 890 889 819 
3 819 818 890 
3 818 783 784 
3 784 890 818 
3 891 890 784 
3 777 891 784 
3 778 891 777 
3 775 891 778 
3 892 891 775 
3 893 891 892 
3 894 891 893 
3 889 891 894 
3 890 891 889 
3 837 832 839 
3 895 775 776 
3 892 775 895 
3 895 896 892 
3 897 892 896 
3 896 898 897 
3 899 897 898 
3 898 900 899 
3 901 899 900 
3 900 902 901 
3 903 901 902 
3 904 901 903 
3 903 905 904 
3 906 904 905 
3 907 904 906 
3 906 908 907 
3 909 907 908 
3 908 491 909 
3 491 489 909 
3 910 909 489 
3 907 909 910 
3 907 910 486 
3 489 486 910 
3 911 907 486 
3 486 912 911 
3 913 911 912 
3 914 911 913 
3 907 911 914 
3 914 904 907 
3 901 904 914 
3 915 916 901 
3 899 901 916 
3 916 897 899 
3 917 897 916 
3 893 897 917 
3 892 897 893 
3 914 915 901 
3 918 919 486 
3 486 484 918 
3 920 912 486 
3 486 919 920 
3 718 918 484 
3 921 919 918 
3 922 920 919 
3 912 920 922 
3 922 923 912 
3 913 912 923 
3 924 914 913 
3 915 914 924 
3 924 916 915 
3 925 916 924 
3 887 916 925 
3 917 916 887 
3 887 893 917 
3 888 893 887 
3 921 918 718 
3 718 926 921 
3 365 926 718 
3 718 693 365 
3 927 926 365 
3 928 929 927 
3 930 929 928 
3 928 931 930 
3 932 930 931 
3 931 876 932 
3 877 876 931 
3 929 926 927 
3 933 926 929 
3 921 926 933 
3 933 919 921 
3 934 919 933 
3 933 935 934 
3 929 935 933 
3 930 935 929 
3 936 935 930 
3 930 937 936 
3 881 937 930 
3 930 932 881 
3 876 875 932 
3 875 881 932 
3 935 938 934 
3 936 938 935 
3 937 938 936 
3 882 939 937 
3 937 881 882 
3 938 937 939 
3 940 934 938 
3 922 934 940 
3 919 934 922 
3 940 941 922 
3 938 941 940 
3 942 941 938 
3 938 939 942 
3 882 942 939 
3 883 942 882 
3 943 944 922 
3 922 941 943 
3 942 943 941 
3 945 943 942 
3 860 945 942 
3 942 883 860 
3 946 947 943 
3 943 945 946 
3 948 944 943 
3 943 947 948 
3 949 950 948 
3 944 948 950 
3 950 951 944 
3 952 951 950 
3 953 951 952 
3 913 951 953 
3 923 951 913 
3 922 951 923 
3 944 951 922 
3 860 946 945 
3 851 946 860 
3 852 946 851 
3 949 946 852 
3 947 946 949 
3 853 952 949 
3 949 852 853 
3 947 949 948 
3 949 952 950 
3 954 924 913 
3 913 953 954 
3 952 955 954 
3 954 953 952 
3 956 955 952 
3 853 854 956 
3 956 952 853 
3 854 848 956 
3 957 956 848 
3 848 840 957 
3 958 957 840 
3 840 838 958 
3 885 958 838 
3 959 958 885 
3 957 958 959 
3 955 956 957 
3 957 959 955 
3 886 887 925 
3 925 960 886 
3 924 960 925 
3 954 960 924 
3 959 960 954 
3 954 955 959 
3 959 885 960 
3 960 885 886 
3 888 894 893 
3 894 888 889 
3 372 371 376 
3 571 596 751 
3 751 558 571 
3 669 667 701 
3 666 669 671 
3 665 669 666 
3 664 669 665 
3 612 669 664 
3 667 669 612 
3 638 635 645 
